<svg width="182" height="48" viewBox="0 0 182 48" fill="none" xmlns="http://www.w3.org/2000/svg">
<path d="M39.9985 44.0001H27.5285L19.2227 31.6096L31.4076 31.8501L39.9985 44.0001Z" fill="url(#paint0_linear_4232_120545)"/>
<path d="M40.0002 18.9556C40.0002 23.0782 38.3345 26.8228 35.642 29.5253C32.9495 32.2279 29.2301 33.8998 25.1115 33.8998H20.8102L13.942 24.0515H25.0201C26.412 24.0515 27.6785 23.479 28.5912 22.5628C29.504 21.6467 30.0744 20.3756 30.0744 18.9785C30.0744 16.1844 27.8153 13.9055 25.0201 13.9055H19.0304L12.3675 4.38935L12.0938 4H25.1115C33.3373 4.01145 40.0002 10.6991 40.0002 18.9556Z" fill="url(#paint1_linear_4232_120545)"/>
<path d="M20.1389 18.9099H18.3819L7.98828 4.02295L9.76808 4.0344L20.1389 18.9099Z" fill="url(#paint2_linear_4232_120545)"/>
<path d="M12.1506 18.9099H10.3936L0 4.02295L1.7798 4.0344L12.1506 18.9099Z" fill="url(#paint3_linear_4232_120545)"/>
<path d="M16.1428 18.9099H14.3858L3.99219 4.02295L5.772 4.0344L16.1428 18.9099Z" fill="url(#paint4_linear_4232_120545)"/>
<path d="M60.6595 20.0001L56.9195 14.8201C58.3595 14.1001 59.2395 12.7401 59.2395 11.0601C59.2395 8.52007 57.2395 6.80007 54.4795 6.80007H49.5195V20.0001H52.2195V15.3401H54.1995L57.6195 20.0001H60.6595ZM52.2195 9.18007H54.4795C55.6995 9.18007 56.4795 9.94007 56.4795 11.0601C56.4795 12.2001 55.7395 12.9601 54.4795 12.9601H52.2195V9.18007ZM62.1325 20.0001H64.8325V10.1001H62.1325V20.0001ZM61.7525 6.50007C61.7525 7.44007 62.5125 8.16007 63.4725 8.16007C64.4325 8.16007 65.2125 7.44007 65.2125 6.50007C65.2125 5.54007 64.4325 4.82007 63.4725 4.82007C62.5125 4.82007 61.7525 5.54007 61.7525 6.50007ZM74.9636 10.1001V11.3401C74.2636 10.4001 73.1436 9.88007 71.7236 9.88007C69.0236 9.88007 66.9836 11.8401 66.9836 14.7801C66.9836 17.6801 68.9836 19.7001 71.7236 19.7001C72.9836 19.7001 74.0236 19.3001 74.7436 18.5201V19.0601C74.7436 20.6001 73.7036 21.4001 72.1036 21.4001C70.9036 21.4001 69.9836 20.9401 68.8836 20.1201L67.4636 22.0001C68.8436 23.2201 70.4636 23.8401 72.3236 23.8401C75.4236 23.8401 77.4436 22.1201 77.4436 18.9001V10.1001H74.9636ZM74.7836 14.7401C74.7836 16.4401 73.6436 17.4201 72.2836 17.4201C70.8436 17.4201 69.7236 16.3601 69.7236 14.7601C69.7236 13.1601 70.8236 12.1801 72.2836 12.1801C73.6636 12.1801 74.7836 13.0401 74.7836 14.7401ZM89.2208 15.9601C89.3407 15.4601 89.4008 14.9601 89.4008 14.4801C89.4008 11.9001 87.4808 9.88007 84.7408 9.88007C81.8808 9.82007 79.5008 12.2001 79.5608 15.0601C79.5008 17.9201 81.9208 20.3001 84.9808 20.2401C86.4408 20.2401 87.7608 19.7401 88.9408 18.7601L87.8208 16.9201C86.9608 17.5801 86.0408 17.9201 85.0608 17.9201C83.6208 17.9201 82.6008 17.2201 82.2808 15.9601H89.2208ZM82.2808 14.0601C82.5808 12.8401 83.5008 12.0601 84.6408 12.0601C85.8208 12.0601 86.7608 12.8401 86.7808 14.0601H82.2808ZM91.5075 20.0001H94.2075V5.00007H91.5075V20.0001ZM102.665 20.0001H105.365V15.3401H107.625C110.385 15.3401 112.385 13.5801 112.385 11.0601C112.385 8.52007 110.385 6.80007 107.625 6.80007H102.665V20.0001ZM105.365 12.9801V9.18007H107.625C108.845 9.18007 109.625 9.94007 109.625 11.0601C109.625 12.2001 108.885 12.9801 107.625 12.9801H105.365ZM120.44 10.1001C120.18 10.0201 119.9 9.98007 119.56 9.98007C118.46 9.98007 117.5 10.4601 116.84 11.2801V10.1001H114.36V20.0001H117.06V15.0601C117.06 13.3601 118.1 12.4801 119.72 12.4801H120.44V10.1001ZM121.358 15.0401C121.298 17.8601 123.738 20.2801 126.638 20.2201C129.538 20.2801 132.038 17.8601 131.978 15.0401C132.038 12.2201 129.558 9.84007 126.658 9.88007C123.758 9.82007 121.298 12.2201 121.358 15.0401ZM129.218 15.0601C129.218 16.6001 128.118 17.7401 126.658 17.7401C125.158 17.7401 124.098 16.6001 124.098 15.0601C124.098 13.4801 125.158 12.3401 126.658 12.3401C128.118 12.3401 129.218 13.5201 129.218 15.0601ZM140.446 17.7401C139.746 17.8001 139.326 17.8201 139.166 17.8201C137.886 17.8201 137.326 17.4001 137.326 16.2801V12.3801H140.126V10.1001H137.326V7.60007H134.626V10.1001H133.066V12.3801H134.626V16.5201C134.626 19.0001 136.086 20.2401 138.586 20.2401C139.186 20.2401 139.806 20.1601 140.446 20.0001V17.7401ZM141.651 15.0401C141.591 17.8601 144.031 20.2801 146.931 20.2201C149.831 20.2801 152.331 17.8601 152.271 15.0401C152.331 12.2201 149.851 9.84007 146.951 9.88007C144.051 9.82007 141.591 12.2201 141.651 15.0401ZM149.511 15.0601C149.511 16.6001 148.411 17.7401 146.951 17.7401C145.451 17.7401 144.391 16.6001 144.391 15.0601C144.391 13.4801 145.451 12.3401 146.951 12.3401C148.411 12.3401 149.511 13.5201 149.511 15.0601ZM153.819 15.0401C153.779 17.9001 156.219 20.3001 159.119 20.2401C161.039 20.2401 162.559 19.3001 163.419 17.7801L161.539 16.3401C160.899 17.2401 160.179 17.7601 159.159 17.7601C157.639 17.7601 156.559 16.6201 156.559 15.0401C156.559 13.5001 157.639 12.3401 159.159 12.3401C160.199 12.3401 160.919 12.8801 161.539 13.7801L163.419 12.3201C162.559 10.8001 161.059 9.88007 159.119 9.88007C156.179 9.88007 153.819 12.1401 153.819 15.0401ZM164.659 15.0401C164.599 17.8601 167.039 20.2801 169.939 20.2201C172.839 20.2801 175.339 17.8601 175.279 15.0401C175.339 12.2201 172.859 9.84007 169.959 9.88007C167.059 9.82007 164.599 12.2201 164.659 15.0401ZM172.519 15.0601C172.519 16.6001 171.419 17.7401 169.959 17.7401C168.459 17.7401 167.399 16.6001 167.399 15.0601C167.399 13.4801 168.459 12.3401 169.959 12.3401C171.419 12.3401 172.519 13.5201 172.519 15.0601ZM177.387 20.0001H180.087V5.00007H177.387V20.0001Z" fill="#F1F5F8"/>
<path d="M50 41.2341H51.484V37.6641H53.374C55.236 37.6641 56.51 36.4741 56.51 34.8221C56.51 33.1561 55.236 31.9941 53.374 31.9941H50V41.2341ZM51.484 36.3481V33.3101H53.346C54.396 33.3101 54.984 33.9261 54.984 34.8361C54.984 35.7461 54.396 36.3481 53.346 36.3481H51.484Z" fill="#4CAFFF"/>
<path d="M60.3601 39.9461L61.9841 38.2241C62.6281 37.5381 63.1181 36.9501 63.4401 36.4321C63.7761 35.9141 63.9441 35.3401 63.9441 34.7101C63.9441 33.0861 62.6421 31.8401 60.8781 31.8401C58.9881 31.8401 57.7701 33.2821 57.7701 34.7941C57.7701 35.0741 57.7981 35.3401 57.8681 35.5921H59.3661C59.3241 35.3121 59.2961 35.0741 59.2961 34.8781C59.2961 33.9261 59.9261 33.1981 60.8641 33.1981C61.8021 33.1981 62.4041 33.8841 62.4041 34.8221C62.4041 35.6061 61.9561 36.2781 60.9341 37.3561L57.6441 40.8981V41.2341H64.2661V39.9461H60.3601Z" fill="#4CAFFF"/>
<path d="M66.1738 41.2341H67.6578V37.6641H69.5478C71.4098 37.6641 72.6838 36.4741 72.6838 34.8221C72.6838 33.1561 71.4098 31.9941 69.5478 31.9941H66.1738V41.2341ZM67.6578 36.3481V33.3101H69.5198C70.5698 33.3101 71.1578 33.9261 71.1578 34.8361C71.1578 35.7461 70.5698 36.3481 69.5198 36.3481H67.6578Z" fill="#4CAFFF"/>
<path d="M85.044 38.672C85.044 39.352 84.8 39.912 84.312 40.352C83.824 40.784 83.2 41 82.44 41H78.912V33.08H81.72C82.456 33.08 83.056 33.288 83.52 33.704C83.992 34.112 84.228 34.64 84.228 35.288C84.228 35.872 84.032 36.348 83.64 36.716C84.576 37.06 85.044 37.712 85.044 38.672ZM81.588 34.472H80.472V36.284H81.588C81.916 36.284 82.168 36.204 82.344 36.044C82.528 35.884 82.62 35.66 82.62 35.372C82.62 35.092 82.528 34.872 82.344 34.712C82.168 34.552 81.916 34.472 81.588 34.472ZM83.448 38.612C83.448 38.308 83.348 38.068 83.148 37.892C82.948 37.708 82.672 37.616 82.32 37.616H80.472V39.608H82.32C82.672 39.608 82.948 39.52 83.148 39.344C83.348 39.168 83.448 38.924 83.448 38.612ZM86.3651 41V33.08H91.6931V34.544H87.9851V36.152H90.7091V37.532H87.9851V39.536H91.8371V41H86.3651ZM95.032 41V34.544H92.5V33.08H99.196V34.544H96.652V41H95.032ZM104.473 41L104.029 39.968H100.789L100.345 41H98.6052L102.145 32.936H102.685L106.213 41H104.473ZM103.465 38.636L102.409 35.96L101.353 38.636H103.465Z" fill="#4CAFFF"/>
<defs>
<linearGradient id="paint0_linear_4232_120545" x1="52.4915" y1="37.4829" x2="2.59277" y2="38.1795" gradientUnits="userSpaceOnUse">
<stop stop-color="#40BAD5"/>
<stop offset="1" stop-color="#035AA6"/>
</linearGradient>
<linearGradient id="paint1_linear_4232_120545" x1="31.3081" y1="33.1528" x2="21.5725" y2="4.4047" gradientUnits="userSpaceOnUse">
<stop stop-color="#40BAD5"/>
<stop offset="1" stop-color="#035AA6"/>
</linearGradient>
<linearGradient id="paint2_linear_4232_120545" x1="27.7238" y1="32.0256" x2="8.28223" y2="2.97137" gradientUnits="userSpaceOnUse">
<stop stop-color="#40BAD5"/>
<stop offset="1" stop-color="#035AA6"/>
</linearGradient>
<linearGradient id="paint3_linear_4232_120545" x1="22.1928" y1="35.7253" x2="2.75127" y2="6.67108" gradientUnits="userSpaceOnUse">
<stop stop-color="#40BAD5"/>
<stop offset="1" stop-color="#035AA6"/>
</linearGradient>
<linearGradient id="paint4_linear_4232_120545" x1="24.9563" y1="33.8754" x2="5.51479" y2="4.82123" gradientUnits="userSpaceOnUse">
<stop stop-color="#40BAD5"/>
<stop offset="1" stop-color="#035AA6"/>
</linearGradient>
</defs>
</svg>
