<svg width="182" height="48" viewBox="0 0 182 48" fill="none" xmlns="http://www.w3.org/2000/svg">
<path d="M40.0004 44.0001H27.5304L19.2246 31.6096L31.4095 31.8501L40.0004 44.0001Z" fill="url(#paint0_linear_567_10828)"/>
<path d="M40.0002 18.9556C40.0002 23.0782 38.3344 26.8228 35.642 29.5253C32.9495 32.2279 29.23 33.8998 25.1115 33.8998H20.8102L13.942 24.0515H25.0201C26.412 24.0515 27.6785 23.479 28.5912 22.5628C29.504 21.6467 30.0744 20.3756 30.0744 18.9785C30.0744 16.1844 27.8153 13.9055 25.0201 13.9055H19.0304L12.3675 4.38935L12.0938 4H25.1115C33.3373 4.01145 40.0002 10.6991 40.0002 18.9556Z" fill="url(#paint1_linear_567_10828)"/>
<path d="M20.1369 18.9099H18.3799L7.98633 4.02295L9.76613 4.0344L20.1369 18.9099Z" fill="url(#paint2_linear_567_10828)"/>
<path d="M12.1506 18.9099H10.3936L0 4.02295L1.7798 4.0344L12.1506 18.9099Z" fill="url(#paint3_linear_567_10828)"/>
<path d="M16.1438 18.9099H14.3868L3.99316 4.02295L5.77297 4.0344L16.1438 18.9099Z" fill="url(#paint4_linear_567_10828)"/>
<path d="M60.6595 19.9999L56.9195 14.8199C58.3595 14.0999 59.2395 12.7399 59.2395 11.0599C59.2395 8.51995 57.2395 6.79995 54.4795 6.79995H49.5195V19.9999H52.2195V15.3399H54.1995L57.6195 19.9999H60.6595ZM52.2195 9.17995H54.4795C55.6995 9.17995 56.4795 9.93995 56.4795 11.0599C56.4795 12.1999 55.7395 12.9599 54.4795 12.9599H52.2195V9.17995ZM62.1325 19.9999H64.8325V10.0999H62.1325V19.9999ZM61.7525 6.49995C61.7525 7.43995 62.5125 8.15995 63.4725 8.15995C64.4325 8.15995 65.2125 7.43995 65.2125 6.49995C65.2125 5.53995 64.4325 4.81995 63.4725 4.81995C62.5125 4.81995 61.7525 5.53995 61.7525 6.49995ZM74.9636 10.0999V11.3399C74.2636 10.3999 73.1436 9.87995 71.7236 9.87995C69.0236 9.87995 66.9836 11.8399 66.9836 14.7799C66.9836 17.6799 68.9836 19.6999 71.7236 19.6999C72.9836 19.6999 74.0236 19.2999 74.7436 18.5199V19.0599C74.7436 20.5999 73.7036 21.3999 72.1036 21.3999C70.9036 21.3999 69.9836 20.9399 68.8836 20.1199L67.4636 21.9999C68.8436 23.2199 70.4636 23.8399 72.3236 23.8399C75.4236 23.8399 77.4436 22.1199 77.4436 18.8999V10.0999H74.9636ZM74.7836 14.7399C74.7836 16.4399 73.6436 17.4199 72.2836 17.4199C70.8436 17.4199 69.7236 16.3599 69.7236 14.7599C69.7236 13.1599 70.8236 12.1799 72.2836 12.1799C73.6636 12.1799 74.7836 13.0399 74.7836 14.7399ZM89.2208 15.9599C89.3407 15.4599 89.4008 14.9599 89.4008 14.4799C89.4008 11.8999 87.4808 9.87995 84.7408 9.87995C81.8808 9.81995 79.5008 12.1999 79.5608 15.0599C79.5008 17.9199 81.9208 20.2999 84.9808 20.2399C86.4408 20.2399 87.7608 19.7399 88.9408 18.7599L87.8208 16.9199C86.9608 17.5799 86.0408 17.9199 85.0608 17.9199C83.6208 17.9199 82.6008 17.2199 82.2808 15.9599H89.2208ZM82.2808 14.0599C82.5808 12.8399 83.5008 12.0599 84.6408 12.0599C85.8208 12.0599 86.7608 12.8399 86.7808 14.0599H82.2808ZM91.5075 19.9999H94.2075V4.99995H91.5075V19.9999ZM102.665 19.9999H105.365V15.3399H107.625C110.385 15.3399 112.385 13.5799 112.385 11.0599C112.385 8.51995 110.385 6.79995 107.625 6.79995H102.665V19.9999ZM105.365 12.9799V9.17995H107.625C108.845 9.17995 109.625 9.93995 109.625 11.0599C109.625 12.1999 108.885 12.9799 107.625 12.9799H105.365ZM120.44 10.0999C120.18 10.0199 119.9 9.97995 119.56 9.97995C118.46 9.97995 117.5 10.4599 116.84 11.2799V10.0999H114.36V19.9999H117.06V15.0599C117.06 13.3599 118.1 12.4799 119.72 12.4799H120.44V10.0999ZM121.358 15.0399C121.298 17.8599 123.738 20.2799 126.638 20.2199C129.538 20.2799 132.038 17.8599 131.978 15.0399C132.038 12.2199 129.558 9.83995 126.658 9.87995C123.758 9.81995 121.298 12.2199 121.358 15.0399ZM129.218 15.0599C129.218 16.5999 128.118 17.7399 126.658 17.7399C125.158 17.7399 124.098 16.5999 124.098 15.0599C124.098 13.4799 125.158 12.3399 126.658 12.3399C128.118 12.3399 129.218 13.5199 129.218 15.0599ZM140.446 17.7399C139.746 17.7999 139.326 17.8199 139.166 17.8199C137.886 17.8199 137.326 17.3999 137.326 16.2799V12.3799H140.126V10.0999H137.326V7.59995H134.626V10.0999H133.066V12.3799H134.626V16.5199C134.626 18.9999 136.086 20.2399 138.586 20.2399C139.186 20.2399 139.806 20.1599 140.446 19.9999V17.7399ZM141.651 15.0399C141.591 17.8599 144.031 20.2799 146.931 20.2199C149.831 20.2799 152.331 17.8599 152.271 15.0399C152.331 12.2199 149.851 9.83995 146.951 9.87995C144.051 9.81995 141.591 12.2199 141.651 15.0399ZM149.511 15.0599C149.511 16.5999 148.411 17.7399 146.951 17.7399C145.451 17.7399 144.391 16.5999 144.391 15.0599C144.391 13.4799 145.451 12.3399 146.951 12.3399C148.411 12.3399 149.511 13.5199 149.511 15.0599ZM153.819 15.0399C153.779 17.8999 156.219 20.2999 159.119 20.2399C161.039 20.2399 162.559 19.2999 163.419 17.7799L161.539 16.3399C160.899 17.2399 160.179 17.7599 159.159 17.7599C157.639 17.7599 156.559 16.6199 156.559 15.0399C156.559 13.4999 157.639 12.3399 159.159 12.3399C160.199 12.3399 160.919 12.8799 161.539 13.7799L163.419 12.3199C162.559 10.7999 161.059 9.87995 159.119 9.87995C156.179 9.87995 153.819 12.1399 153.819 15.0399ZM164.659 15.0399C164.599 17.8599 167.039 20.2799 169.939 20.2199C172.839 20.2799 175.339 17.8599 175.279 15.0399C175.339 12.2199 172.859 9.83995 169.959 9.87995C167.059 9.81995 164.599 12.2199 164.659 15.0399ZM172.519 15.0599C172.519 16.5999 171.419 17.7399 169.959 17.7399C168.459 17.7399 167.399 16.5999 167.399 15.0599C167.399 13.4799 168.459 12.3399 169.959 12.3399C171.419 12.3399 172.519 13.5199 172.519 15.0599ZM177.387 19.9999H180.087V4.99995H177.387V19.9999Z" fill="#333333"/>
<path d="M50 41.2341H51.484V37.6641H53.374C55.236 37.6641 56.51 36.4741 56.51 34.8221C56.51 33.1561 55.236 31.9941 53.374 31.9941H50V41.2341ZM51.484 36.3481V33.3101H53.346C54.396 33.3101 54.984 33.9261 54.984 34.8361C54.984 35.7461 54.396 36.3481 53.346 36.3481H51.484Z" fill="#319EF6"/>
<path d="M60.3601 39.9461L61.9841 38.2241C62.6281 37.5381 63.1181 36.9501 63.4401 36.4321C63.7761 35.9141 63.9441 35.3401 63.9441 34.7101C63.9441 33.0861 62.6421 31.8401 60.8781 31.8401C58.9881 31.8401 57.7701 33.2821 57.7701 34.7941C57.7701 35.0741 57.7981 35.3401 57.8681 35.5921H59.3661C59.3241 35.3121 59.2961 35.0741 59.2961 34.8781C59.2961 33.9261 59.9261 33.1981 60.8641 33.1981C61.8021 33.1981 62.4041 33.8841 62.4041 34.8221C62.4041 35.6061 61.9561 36.2781 60.9341 37.3561L57.6441 40.8981V41.2341H64.2661V39.9461H60.3601Z" fill="#319EF6"/>
<path d="M66.1738 41.2341H67.6578V37.6641H69.5478C71.4098 37.6641 72.6838 36.4741 72.6838 34.8221C72.6838 33.1561 71.4098 31.9941 69.5478 31.9941H66.1738V41.2341ZM67.6578 36.3481V33.3101H69.5198C70.5698 33.3101 71.1578 33.9261 71.1578 34.8361C71.1578 35.7461 70.5698 36.3481 69.5198 36.3481H67.6578Z" fill="#319EF6"/>
<defs>
<linearGradient id="paint0_linear_567_10828" x1="52.4934" y1="37.4829" x2="2.59473" y2="38.1795" gradientUnits="userSpaceOnUse">
<stop stop-color="#40BAD5"/>
<stop offset="1" stop-color="#035AA6"/>
</linearGradient>
<linearGradient id="paint1_linear_567_10828" x1="31.3081" y1="33.1528" x2="21.5725" y2="4.4047" gradientUnits="userSpaceOnUse">
<stop stop-color="#40BAD5"/>
<stop offset="1" stop-color="#035AA6"/>
</linearGradient>
<linearGradient id="paint2_linear_567_10828" x1="27.7218" y1="32.0256" x2="8.28028" y2="2.97137" gradientUnits="userSpaceOnUse">
<stop stop-color="#40BAD5"/>
<stop offset="1" stop-color="#035AA6"/>
</linearGradient>
<linearGradient id="paint3_linear_567_10828" x1="22.1928" y1="35.7253" x2="2.75127" y2="6.67108" gradientUnits="userSpaceOnUse">
<stop stop-color="#40BAD5"/>
<stop offset="1" stop-color="#035AA6"/>
</linearGradient>
<linearGradient id="paint4_linear_567_10828" x1="24.9573" y1="33.8754" x2="5.51577" y2="4.82123" gradientUnits="userSpaceOnUse">
<stop stop-color="#40BAD5"/>
<stop offset="1" stop-color="#035AA6"/>
</linearGradient>
</defs>
</svg>
