<svg width="182" height="48" viewBox="0 0 182 48" fill="none" xmlns="http://www.w3.org/2000/svg">
<path d="M39.9985 43.9999H27.5285L19.2227 31.6094L31.4076 31.8499L39.9985 43.9999Z" fill="url(#paint0_linear_2473_20093)"/>
<path d="M40.0002 18.9556C40.0002 23.0782 38.3344 26.8228 35.642 29.5253C32.9495 32.2279 29.23 33.8998 25.1115 33.8998H20.8102L13.942 24.0515H25.0201C26.412 24.0515 27.6785 23.479 28.5912 22.5628C29.504 21.6467 30.0744 20.3756 30.0744 18.9785C30.0744 16.1844 27.8153 13.9055 25.0201 13.9055H19.0304L12.3675 4.38935L12.0938 4H25.1115C33.3373 4.01145 40.0002 10.6991 40.0002 18.9556Z" fill="url(#paint1_linear_2473_20093)"/>
<path d="M20.1389 18.9104H18.3819L7.98828 4.02344L9.76808 4.03489L20.1389 18.9104Z" fill="url(#paint2_linear_2473_20093)"/>
<path d="M12.1506 18.9104H10.3936L0 4.02344L1.7798 4.03489L12.1506 18.9104Z" fill="url(#paint3_linear_2473_20093)"/>
<path d="M16.1428 18.9104H14.3858L3.99219 4.02344L5.772 4.03489L16.1428 18.9104Z" fill="url(#paint4_linear_2473_20093)"/>
<path d="M60.6595 20.0003L56.9195 14.8203C58.3595 14.1003 59.2395 12.7403 59.2395 11.0603C59.2395 8.52031 57.2395 6.80031 54.4795 6.80031H49.5195V20.0003H52.2195V15.3403H54.1995L57.6195 20.0003H60.6595ZM52.2195 9.18031H54.4795C55.6995 9.18031 56.4795 9.94031 56.4795 11.0603C56.4795 12.2003 55.7395 12.9603 54.4795 12.9603H52.2195V9.18031ZM62.1325 20.0003H64.8325V10.1003H62.1325V20.0003ZM61.7525 6.50031C61.7525 7.44031 62.5125 8.16031 63.4725 8.16031C64.4325 8.16031 65.2125 7.44031 65.2125 6.50031C65.2125 5.54031 64.4325 4.82031 63.4725 4.82031C62.5125 4.82031 61.7525 5.54031 61.7525 6.50031ZM74.9636 10.1003V11.3403C74.2636 10.4003 73.1436 9.88031 71.7236 9.88031C69.0236 9.88031 66.9836 11.8403 66.9836 14.7803C66.9836 17.6803 68.9836 19.7003 71.7236 19.7003C72.9836 19.7003 74.0236 19.3003 74.7436 18.5203V19.0603C74.7436 20.6003 73.7036 21.4003 72.1036 21.4003C70.9036 21.4003 69.9836 20.9403 68.8836 20.1203L67.4636 22.0003C68.8436 23.2203 70.4636 23.8403 72.3236 23.8403C75.4236 23.8403 77.4436 22.1203 77.4436 18.9003V10.1003H74.9636ZM74.7836 14.7403C74.7836 16.4403 73.6436 17.4203 72.2836 17.4203C70.8436 17.4203 69.7236 16.3603 69.7236 14.7603C69.7236 13.1603 70.8236 12.1803 72.2836 12.1803C73.6636 12.1803 74.7836 13.0403 74.7836 14.7403ZM89.2208 15.9603C89.3407 15.4603 89.4008 14.9603 89.4008 14.4803C89.4008 11.9003 87.4808 9.88031 84.7408 9.88031C81.8808 9.82031 79.5008 12.2003 79.5608 15.0603C79.5008 17.9203 81.9208 20.3003 84.9808 20.2403C86.4408 20.2403 87.7608 19.7403 88.9408 18.7603L87.8208 16.9203C86.9608 17.5803 86.0408 17.9203 85.0608 17.9203C83.6208 17.9203 82.6008 17.2203 82.2808 15.9603H89.2208ZM82.2808 14.0603C82.5808 12.8403 83.5008 12.0603 84.6408 12.0603C85.8208 12.0603 86.7608 12.8403 86.7808 14.0603H82.2808ZM91.5075 20.0003H94.2075V5.00031H91.5075V20.0003ZM102.665 20.0003H105.365V15.3403H107.625C110.385 15.3403 112.385 13.5803 112.385 11.0603C112.385 8.52031 110.385 6.80031 107.625 6.80031H102.665V20.0003ZM105.365 12.9803V9.18031H107.625C108.845 9.18031 109.625 9.94031 109.625 11.0603C109.625 12.2003 108.885 12.9803 107.625 12.9803H105.365ZM120.44 10.1003C120.18 10.0203 119.9 9.98031 119.56 9.98031C118.46 9.98031 117.5 10.4603 116.84 11.2803V10.1003H114.36V20.0003H117.06V15.0603C117.06 13.3603 118.1 12.4803 119.72 12.4803H120.44V10.1003ZM121.358 15.0403C121.298 17.8603 123.738 20.2803 126.638 20.2203C129.538 20.2803 132.038 17.8603 131.978 15.0403C132.038 12.2203 129.558 9.84031 126.658 9.88031C123.758 9.82031 121.298 12.2203 121.358 15.0403ZM129.218 15.0603C129.218 16.6003 128.118 17.7403 126.658 17.7403C125.158 17.7403 124.098 16.6003 124.098 15.0603C124.098 13.4803 125.158 12.3403 126.658 12.3403C128.118 12.3403 129.218 13.5203 129.218 15.0603ZM140.446 17.7403C139.746 17.8003 139.326 17.8203 139.166 17.8203C137.886 17.8203 137.326 17.4003 137.326 16.2803V12.3803H140.126V10.1003H137.326V7.60031H134.626V10.1003H133.066V12.3803H134.626V16.5203C134.626 19.0003 136.086 20.2403 138.586 20.2403C139.186 20.2403 139.806 20.1603 140.446 20.0003V17.7403ZM141.651 15.0403C141.591 17.8603 144.031 20.2803 146.931 20.2203C149.831 20.2803 152.331 17.8603 152.271 15.0403C152.331 12.2203 149.851 9.84031 146.951 9.88031C144.051 9.82031 141.591 12.2203 141.651 15.0403ZM149.511 15.0603C149.511 16.6003 148.411 17.7403 146.951 17.7403C145.451 17.7403 144.391 16.6003 144.391 15.0603C144.391 13.4803 145.451 12.3403 146.951 12.3403C148.411 12.3403 149.511 13.5203 149.511 15.0603ZM153.819 15.0403C153.779 17.9003 156.219 20.3003 159.119 20.2403C161.039 20.2403 162.559 19.3003 163.419 17.7803L161.539 16.3403C160.899 17.2403 160.179 17.7603 159.159 17.7603C157.639 17.7603 156.559 16.6203 156.559 15.0403C156.559 13.5003 157.639 12.3403 159.159 12.3403C160.199 12.3403 160.919 12.8803 161.539 13.7803L163.419 12.3203C162.559 10.8003 161.059 9.88031 159.119 9.88031C156.179 9.88031 153.819 12.1403 153.819 15.0403ZM164.659 15.0403C164.599 17.8603 167.039 20.2803 169.939 20.2203C172.839 20.2803 175.339 17.8603 175.279 15.0403C175.339 12.2203 172.859 9.84031 169.959 9.88031C167.059 9.82031 164.599 12.2203 164.659 15.0403ZM172.519 15.0603C172.519 16.6003 171.419 17.7403 169.959 17.7403C168.459 17.7403 167.399 16.6003 167.399 15.0603C167.399 13.4803 168.459 12.3403 169.959 12.3403C171.419 12.3403 172.519 13.5203 172.519 15.0603ZM177.387 20.0003H180.087V5.00031H177.387V20.0003Z" fill="#F1F5F8"/>
<path d="M50 41.2338H51.484V37.6638H53.374C55.236 37.6638 56.51 36.4738 56.51 34.8218C56.51 33.1558 55.236 31.9938 53.374 31.9938H50V41.2338ZM51.484 36.3478V33.3098H53.346C54.396 33.3098 54.984 33.9258 54.984 34.8358C54.984 35.7458 54.396 36.3478 53.346 36.3478H51.484Z" fill="#4CAFFF"/>
<path d="M60.3601 39.9458L61.9841 38.2238C62.6281 37.5378 63.1181 36.9498 63.4401 36.4318C63.7761 35.9138 63.9441 35.3398 63.9441 34.7098C63.9441 33.0858 62.6421 31.8398 60.8781 31.8398C58.9881 31.8398 57.7701 33.2818 57.7701 34.7938C57.7701 35.0738 57.7981 35.3398 57.8681 35.5918H59.3661C59.3241 35.3118 59.2961 35.0738 59.2961 34.8778C59.2961 33.9258 59.9261 33.1978 60.8641 33.1978C61.8021 33.1978 62.4041 33.8838 62.4041 34.8218C62.4041 35.6058 61.9561 36.2778 60.9341 37.3558L57.6441 40.8978V41.2338H64.2661V39.9458H60.3601Z" fill="#4CAFFF"/>
<path d="M66.1738 41.2338H67.6578V37.6638H69.5478C71.4098 37.6638 72.6838 36.4738 72.6838 34.8218C72.6838 33.1558 71.4098 31.9938 69.5478 31.9938H66.1738V41.2338ZM67.6578 36.3478V33.3098H69.5198C70.5698 33.3098 71.1578 33.9258 71.1578 34.8358C71.1578 35.7458 70.5698 36.3478 69.5198 36.3478H67.6578Z" fill="#4CAFFF"/>
<defs>
<linearGradient id="paint0_linear_2473_20093" x1="52.4915" y1="37.4827" x2="2.59277" y2="38.1793" gradientUnits="userSpaceOnUse">
<stop stop-color="#40BAD5"/>
<stop offset="1" stop-color="#035AA6"/>
</linearGradient>
<linearGradient id="paint1_linear_2473_20093" x1="31.3081" y1="33.1528" x2="21.5725" y2="4.4047" gradientUnits="userSpaceOnUse">
<stop stop-color="#40BAD5"/>
<stop offset="1" stop-color="#035AA6"/>
</linearGradient>
<linearGradient id="paint2_linear_2473_20093" x1="27.7238" y1="32.0261" x2="8.28223" y2="2.97186" gradientUnits="userSpaceOnUse">
<stop stop-color="#40BAD5"/>
<stop offset="1" stop-color="#035AA6"/>
</linearGradient>
<linearGradient id="paint3_linear_2473_20093" x1="22.1928" y1="35.7258" x2="2.75127" y2="6.67157" gradientUnits="userSpaceOnUse">
<stop stop-color="#40BAD5"/>
<stop offset="1" stop-color="#035AA6"/>
</linearGradient>
<linearGradient id="paint4_linear_2473_20093" x1="24.9563" y1="33.8759" x2="5.51479" y2="4.82172" gradientUnits="userSpaceOnUse">
<stop stop-color="#40BAD5"/>
<stop offset="1" stop-color="#035AA6"/>
</linearGradient>
</defs>
</svg>
