<svg width="22" height="16" viewBox="0 0 22 16" fill="none" xmlns="http://www.w3.org/2000/svg">
<path d="M0 0H22V5.33333H0V0Z" fill="#FF9933"/>
<path d="M0 5.33337H22V10.6667H0V5.33337Z" fill="white"/>
<path d="M0 10.6666H22V16H0V10.6666Z" fill="#128807"/>
<path d="M10.9998 10.1334C12.2148 10.1334 13.1998 9.17824 13.1998 8.00003C13.1998 6.82183 12.2148 5.8667 10.9998 5.8667C9.78478 5.8667 8.7998 6.82183 8.7998 8.00003C8.7998 9.17824 9.78478 10.1334 10.9998 10.1334Z" fill="#000088"/>
<path d="M10.9992 9.86676C12.0624 9.86676 12.9242 9.03102 12.9242 8.00009C12.9242 6.96916 12.0624 6.13342 10.9992 6.13342C9.93607 6.13342 9.07422 6.96916 9.07422 8.00009C9.07422 9.03102 9.93607 9.86676 10.9992 9.86676Z" fill="white"/>
<path d="M10.9993 8.37338C11.2119 8.37338 11.3843 8.20623 11.3843 8.00004C11.3843 7.79386 11.2119 7.62671 10.9993 7.62671C10.7866 7.62671 10.6143 7.79386 10.6143 8.00004C10.6143 8.20623 10.7866 8.37338 10.9993 8.37338Z" fill="#000088"/>
<path d="M12.8955 8.33949C12.9498 8.34641 12.9995 8.3094 13.0066 8.25684C13.0138 8.20427 12.9756 8.15605 12.9214 8.14913C12.8672 8.14221 12.8175 8.17921 12.8103 8.23178C12.8032 8.28434 12.8413 8.33257 12.8955 8.33949Z" fill="#000088"/>
<path d="M10.9996 9.86659L11.0656 8.74659L10.9996 8.21326L10.9336 8.74659L10.9996 9.86659Z" fill="#000088"/>
<path d="M12.7388 8.80421C12.789 8.82423 12.8469 8.80054 12.8681 8.75128C12.8893 8.70203 12.8658 8.64587 12.8156 8.62585C12.7653 8.60583 12.7074 8.62953 12.6862 8.67878C12.665 8.72803 12.6885 8.78419 12.7388 8.80421Z" fill="#000088"/>
<path d="M10.4994 9.80344L10.8626 8.73716L10.9433 8.20559L10.7377 8.70489L10.4994 9.80344Z" fill="#000088"/>
<path d="M12.4652 9.21372C12.5083 9.24571 12.5704 9.23732 12.604 9.19497C12.6376 9.15262 12.6299 9.09236 12.5868 9.06037C12.5437 9.02838 12.4816 9.03677 12.448 9.07912C12.4144 9.12147 12.4221 9.18173 12.4652 9.21372Z" fill="#000088"/>
<path d="M10.036 9.61719L10.671 8.67799L10.8903 8.1843L10.5584 8.61505L10.036 9.61719Z" fill="#000088"/>
<path d="M12.0922 9.54042C12.1252 9.58224 12.1874 9.58976 12.231 9.55724C12.2746 9.52471 12.2832 9.46444 12.2502 9.42263C12.2172 9.38082 12.1551 9.37329 12.1114 9.40582C12.0678 9.43835 12.0592 9.49861 12.0922 9.54042Z" fill="#000088"/>
<path d="M9.63815 9.32061L10.5017 8.5726L10.8449 8.15041L10.4095 8.48319L9.63815 9.32061Z" fill="#000088"/>
<path d="M11.6458 9.76109C11.667 9.81039 11.7249 9.83415 11.7751 9.81417C11.8253 9.79419 11.8488 9.73804 11.8275 9.68874C11.8063 9.63945 11.7484 9.61568 11.6982 9.63566C11.648 9.65564 11.6245 9.7118 11.6458 9.76109Z" fill="#000088"/>
<path d="M9.33351 8.93249L10.3666 8.42997L10.809 8.10757L10.2994 8.31737L9.33351 8.93249Z" fill="#000088"/>
<path d="M11.1533 9.86283C11.1608 9.91571 11.2105 9.95323 11.2644 9.94662C11.3183 9.94002 11.3559 9.89179 11.3485 9.83891C11.341 9.78603 11.2913 9.74852 11.2374 9.75512C11.1835 9.76173 11.1459 9.80995 11.1533 9.86283Z" fill="#000088"/>
<path d="M9.14105 8.48184L10.2736 8.25684L10.7871 8.05652L10.2386 8.13061L9.14105 8.48184Z" fill="#000088"/>
<path d="M10.6495 9.83773C10.6427 9.88999 10.6814 9.93821 10.736 9.94544C10.7905 9.95267 10.8402 9.91616 10.8471 9.86391C10.8539 9.81165 10.8152 9.76343 10.7606 9.7562C10.7061 9.74897 10.6564 9.78547 10.6495 9.83773Z" fill="#000088"/>
<path d="M9.07564 7.99505L10.2305 8.06082L10.7797 8.00505L10.2296 7.94282L9.07564 7.99505Z" fill="#000088"/>
<path d="M10.1715 9.68749C10.1507 9.73634 10.1749 9.7925 10.2256 9.81292C10.2763 9.83334 10.3342 9.81028 10.355 9.76143C10.3757 9.71258 10.3515 9.65642 10.3009 9.636C10.2502 9.61558 10.1923 9.63863 10.1715 9.68749Z" fill="#000088"/>
<path d="M9.14047 7.51636L10.2396 7.86827L10.7878 7.94549L10.2733 7.74585L9.14047 7.51636Z" fill="#000088"/>
<path d="M9.74901 9.42264C9.71543 9.465 9.72312 9.52526 9.7662 9.55725C9.80928 9.58923 9.87142 9.58083 9.90501 9.53848C9.93859 9.49613 9.9309 9.43586 9.88782 9.40387C9.84474 9.37189 9.7826 9.38029 9.74901 9.42264Z" fill="#000088"/>
<path d="M9.33279 7.06756L10.2987 7.68267L10.8082 7.89248L10.3658 7.57008L9.33279 7.06756Z" fill="#000088"/>
<path d="M9.41182 9.06027C9.36814 9.09284 9.35947 9.1531 9.39246 9.19487C9.42544 9.23665 9.48759 9.24412 9.53127 9.21155C9.57494 9.17899 9.58361 9.11872 9.55063 9.07695C9.51764 9.03517 9.4555 9.02771 9.41182 9.06027Z" fill="#000088"/>
<path d="M9.63901 6.68072L10.4075 7.51771L10.8433 7.84851L10.5021 7.4259L9.63901 6.68072Z" fill="#000088"/>
<path d="M9.18279 8.62543C9.13204 8.64593 9.10769 8.70209 9.12838 8.75086C9.14907 8.79962 9.20699 8.82253 9.25773 8.80202C9.30847 8.78152 9.33283 8.72536 9.31214 8.67659C9.29144 8.62783 9.23353 8.60492 9.18279 8.62543Z" fill="#000088"/>
<path d="M10.0373 6.38379L10.5561 7.3856L10.8885 7.81485L10.6717 7.32084L10.0373 6.38379Z" fill="#000088"/>
<path d="M9.07857 8.1483C9.02413 8.15543 8.9856 8.20366 8.9925 8.25601C8.99941 8.30836 9.04914 8.34501 9.10358 8.33787C9.15802 8.33074 9.19655 8.28251 9.18964 8.23016C9.18274 8.17781 9.13301 8.14116 9.07857 8.1483Z" fill="#000088"/>
<path d="M10.5027 6.19732L10.7357 7.29561L10.9421 7.79372L10.8651 7.26189L10.5027 6.19732Z" fill="#000088"/>
<path d="M9.10528 7.65996C9.05141 7.65335 9.00168 7.69085 8.99421 7.74372C8.98674 7.79659 9.02436 7.84481 9.07823 7.85143C9.13211 7.85804 9.18184 7.82054 9.18931 7.76767C9.19678 7.7148 9.15916 7.66658 9.10528 7.65996Z" fill="#000088"/>
<path d="M11.0048 6.13379L10.9369 7.25365L10.9941 7.7863L11.0582 7.25282L11.0048 6.13379Z" fill="#000088"/>
<path d="M9.26026 7.19592C9.21003 7.1759 9.15212 7.19959 9.13091 7.24883C9.10971 7.29808 9.13323 7.35424 9.18346 7.37426C9.23369 7.39429 9.29161 7.3706 9.31281 7.32135C9.33402 7.2721 9.31049 7.21595 9.26026 7.19592Z" fill="#000088"/>
<path d="M11.4997 6.19656L11.1365 7.26283L11.0557 7.7944L11.2614 7.29511L11.4997 6.19656Z" fill="#000088"/>
<path d="M9.53387 6.7864C9.4908 6.75441 9.42865 6.7628 9.39506 6.80515C9.36148 6.8475 9.36917 6.90777 9.41224 6.93976C9.45532 6.97175 9.51746 6.96335 9.55105 6.921C9.58464 6.87865 9.57694 6.81839 9.53387 6.7864Z" fill="#000088"/>
<path d="M11.964 6.38293L11.3291 7.32213L11.1098 7.81582L11.4416 7.38507L11.964 6.38293Z" fill="#000088"/>
<path d="M9.90703 6.45964C9.87405 6.41786 9.8119 6.41039 9.76822 6.44294C9.72455 6.4755 9.71588 6.53577 9.74887 6.57755C9.78185 6.61933 9.844 6.6268 9.88768 6.59425C9.93135 6.56169 9.94002 6.50143 9.90703 6.45964Z" fill="#000088"/>
<path d="M12.3611 6.67945L11.4975 7.42762L11.1542 7.84978L11.5895 7.51688L12.3611 6.67945Z" fill="#000088"/>
<path d="M10.3533 6.23903C10.332 6.18974 10.2741 6.16597 10.2239 6.18595C10.1737 6.20593 10.1502 6.26208 10.1715 6.31138C10.1927 6.36067 10.2507 6.38444 10.3008 6.36446C10.351 6.34448 10.3745 6.28833 10.3533 6.23903Z" fill="#000088"/>
<path d="M12.6655 7.06763L11.6325 7.57015L11.1901 7.89255L11.6996 7.68275L12.6655 7.06763Z" fill="#000088"/>
<path d="M10.8457 6.13729C10.8382 6.08441 10.7885 6.04689 10.7346 6.0535C10.6807 6.0601 10.6431 6.10833 10.6506 6.16121C10.658 6.21409 10.7077 6.2516 10.7616 6.245C10.8155 6.23839 10.8532 6.19017 10.8457 6.13729Z" fill="#000088"/>
<path d="M12.858 7.51828L11.7254 7.74328L11.212 7.9436L11.7605 7.86951L12.858 7.51828Z" fill="#000088"/>
<path d="M11.3496 6.16263C11.3563 6.11041 11.3176 6.06219 11.263 6.05492C11.2084 6.04764 11.1587 6.08408 11.1519 6.13629C11.1451 6.18851 11.1839 6.23673 11.2385 6.244C11.2931 6.25127 11.3428 6.21484 11.3496 6.16263Z" fill="#000088"/>
<path d="M12.9232 8.00577L11.7684 7.93977L11.2192 7.99449L11.7694 8.05649L12.9232 8.00577Z" fill="#000088"/>
<path d="M11.8276 6.31281C11.8483 6.26401 11.824 6.20785 11.7733 6.18738C11.7226 6.1669 11.6647 6.18987 11.644 6.23867C11.6232 6.28747 11.6476 6.34362 11.6983 6.3641C11.749 6.38457 11.8069 6.36161 11.8276 6.31281Z" fill="#000088"/>
<path d="M12.8586 8.48403L11.7593 8.13202L11.2111 8.0544L11.7258 8.25395L12.8586 8.48403Z" fill="#000088"/>
<path d="M12.2499 6.57824C12.283 6.53632 12.2746 6.47606 12.231 6.44364C12.1875 6.41122 12.1254 6.41892 12.0922 6.46084C12.0591 6.50276 12.0675 6.56302 12.111 6.59544C12.1546 6.62786 12.2167 6.62016 12.2499 6.57824Z" fill="#000088"/>
<path d="M12.6661 8.9339L11.6982 8.31832L11.189 8.10638L11.6327 8.42832L12.6661 8.9339Z" fill="#000088"/>
<path d="M12.5871 6.94062C12.6303 6.90849 12.6382 6.84823 12.6048 6.80602C12.5713 6.76381 12.5092 6.75564 12.466 6.78777C12.4227 6.8199 12.4148 6.88016 12.4482 6.92237C12.4817 6.96458 12.5438 6.97275 12.5871 6.94062Z" fill="#000088"/>
<path d="M12.36 9.32036L11.5892 8.48302L11.1538 8.15062L11.4965 8.57289L12.36 9.32036Z" fill="#000088"/>
<path d="M12.8159 7.37541C12.8663 7.35526 12.8901 7.29911 12.869 7.24998C12.8479 7.20086 12.79 7.17737 12.7396 7.19752C12.6893 7.21767 12.6655 7.27383 12.6866 7.32295C12.7077 7.37208 12.7656 7.39556 12.8159 7.37541Z" fill="#000088"/>
<path d="M11.9628 9.61698L11.4415 8.61495L11.1095 8.18467L11.328 8.67847L11.9628 9.61698Z" fill="#000088"/>
<path d="M12.9202 7.85266C12.9742 7.84588 13.0121 7.79766 13.0049 7.74495C12.9976 7.69225 12.9478 7.65502 12.8938 7.6618C12.8397 7.66858 12.8018 7.7168 12.8091 7.7695C12.8164 7.82221 12.8661 7.85944 12.9202 7.85266Z" fill="#000088"/>
<path d="M11.4978 9.80342L11.2612 8.70495L11.0553 8.20604L11.1349 8.7377L11.4978 9.80342Z" fill="#000088"/>
</svg>
