<svg width="22" height="16" viewBox="0 0 22 16" fill="none" xmlns="http://www.w3.org/2000/svg">
<g clip-path="url(#clip0_2207_11544)">
<path d="M0 0H22V16H0V0Z" fill="white"/>
<path d="M0 0H22V4.8H0V0Z" fill="black"/>
<path d="M0 11.2H22V16H0V11.2Z" fill="#006600"/>
<path d="M8.05078 12.75L8.23641 12.85L13.0523 4.75002C13.3308 4.69002 13.4855 4.43002 13.6402 4.17002C13.7433 3.99002 14.1558 3.30002 14.3311 2.40002C13.8418 2.82161 13.4273 3.31822 13.1039 3.87002C12.9492 4.13002 12.7945 4.39002 12.8667 4.66002L8.05078 12.75Z" fill="black" stroke="black" stroke-width="0.375" stroke-miterlimit="10"/>
<path d="M8.05078 12.75L8.23641 12.85L13.0523 4.75002C13.3308 4.69002 13.4855 4.43002 13.6402 4.17002C13.7433 3.99002 14.1558 3.30002 14.3311 2.40002C13.8418 2.82161 13.4273 3.31822 13.1039 3.87002C12.9492 4.13002 12.7945 4.39002 12.8667 4.66002L8.05078 12.75Z" fill="white"/>
<path d="M13.9492 12.75L13.7636 12.85L8.94766 4.75002C8.66922 4.69002 8.51453 4.43002 8.35984 4.17002C8.25672 3.99002 7.84422 3.30002 7.66891 2.40002C8.15816 2.82161 8.57273 3.31822 8.89609 3.87002C9.05078 4.13002 9.20547 4.39002 9.13328 4.66002L13.9492 12.75Z" fill="black" stroke="black" stroke-width="0.375" stroke-miterlimit="10"/>
<path d="M13.9492 12.75L13.7636 12.85L8.94766 4.75002C8.66922 4.69002 8.51453 4.43002 8.35984 4.17002C8.25672 3.99002 7.84422 3.30002 7.66891 2.40002C8.15816 2.82161 8.57273 3.31822 8.89609 3.87002C9.05078 4.13002 9.20547 4.39002 9.13328 4.66002L13.9492 12.75Z" fill="white"/>
<path d="M22.0172 5.59995H12.9594C12.65 4.79995 11.6188 3.19995 11 3.19995C10.3813 3.19995 9.35004 4.79995 9.04067 5.59995H-0.00683594V10.4H9.04067C9.35004 11.2 10.3813 12.8 11 12.8C11.6188 12.8 12.65 11.2 12.9594 10.4H22.0172V5.59995Z" fill="#BB0000"/>
<path d="M12.959 10.4C13.2684 9.59998 13.4746 8.79998 13.4746 7.99998C13.4746 7.19998 13.2684 6.39998 12.959 5.59998C12.6496 6.39998 12.4434 7.19998 12.4434 7.99998C12.4434 8.79998 12.6496 9.59998 12.959 10.4Z" fill="black"/>
<path d="M9.04102 10.4C8.73164 9.59998 8.52539 8.79998 8.52539 7.99998C8.52539 7.19998 8.73164 6.39998 9.04102 5.59998C9.35039 6.39998 9.55664 7.19998 9.55664 7.99998C9.55664 8.79998 9.35039 9.59998 9.04102 10.4Z" fill="black"/>
<path d="M11.0004 8.60003C11.2282 8.60003 11.4129 8.3314 11.4129 8.00002C11.4129 7.66865 11.2282 7.40002 11.0004 7.40002C10.7726 7.40002 10.5879 7.66865 10.5879 8.00002C10.5879 8.3314 10.7726 8.60003 11.0004 8.60003Z" fill="white"/>
<path d="M11.1035 8.57996C11.1035 8.57996 11.516 9.37996 11.516 10.68C11.516 11.98 11.1035 12.78 11.1035 12.78V8.57996Z" fill="white"/>
<path d="M10.8965 7.41992C10.8965 7.41992 10.484 6.61992 10.484 5.31992C10.484 4.01992 10.8965 3.21992 10.8965 3.21992V7.41992Z" fill="white"/>
<path d="M10.8965 8.57996C10.8965 8.57996 10.484 9.37996 10.484 10.68C10.484 11.98 10.8965 12.78 10.8965 12.78V8.57996Z" fill="white"/>
<path d="M11.1035 7.41992C11.1035 7.41992 11.516 6.61992 11.516 5.31992C11.516 4.01992 11.1035 3.21992 11.1035 3.21992V7.41992Z" fill="white"/>
</g>
<defs>
<clipPath id="clip0_2207_11544">
<rect width="22" height="16" fill="white"/>
</clipPath>
</defs>
</svg>
