<svg width="22" height="16" viewBox="0 0 22 16" fill="none" xmlns="http://www.w3.org/2000/svg">
<g clip-path="url(#clip0_2207_18954)">
<path fill-rule="evenodd" clip-rule="evenodd" d="M0 0H31.35V1.23127H0V0ZM0 2.4625H31.35V3.69377H0V2.4625ZM0 4.92187H31.35V6.15623H0V4.92187ZM0 7.38437H31.35V8.61563H0V7.38437ZM0 9.84687H31.35V11.0781H0V9.84687ZM0 12.3062H31.35V13.5375H0V12.3062ZM0 14.7687H31.35V16H0V14.7687Z" fill="#BD3D44"/>
<path fill-rule="evenodd" clip-rule="evenodd" d="M0 1.23132H31.35V2.46256H0V1.23132ZM0 3.69379H31.35V4.92192H0V3.69379ZM0 6.15319H31.35V7.38442H0V6.15319ZM0 8.61569H31.35V9.84692H0V8.61569ZM0 11.0782H31.35V12.3094H0V11.0782ZM0 13.5376H31.35V14.7688H0V13.5376Z" fill="white"/>
<path fill-rule="evenodd" clip-rule="evenodd" d="M0 0H12.5393V8.61563H0V0Z" fill="#192F5D"/>
<path fill-rule="evenodd" clip-rule="evenodd" d="M1.04393 0.368774L1.15994 0.709341H1.52734L1.23083 0.918741L1.34364 1.26247L1.04393 1.04997L0.747444 1.25934L0.860228 0.918741L0.560547 0.709341H0.934375L1.04393 0.368774ZM3.13544 0.368774L3.24823 0.709341H3.61882L3.31911 0.918741L3.43193 1.26247L3.13544 1.04997L2.83573 1.25934L2.94851 0.918741L2.65203 0.709341H3.01943L3.13544 0.368774ZM5.22372 0.368774L5.33974 0.709374H5.70391L5.40742 0.918774L5.52017 1.26251L5.22049 1.05001L4.92401 1.25937L5.03679 0.918774L4.73708 0.709374H5.10771L5.22372 0.368774ZM7.31524 0.368774L7.42799 0.709374H7.79862L7.4989 0.918774L7.61492 1.26251L7.3152 1.05001L7.01552 1.25937L7.13154 0.918774L6.83182 0.709374H7.19922L7.31524 0.368774ZM9.40352 0.368774L9.51953 0.709374H9.8869L9.59041 0.918774L9.7032 1.26251L9.40348 1.05001L9.107 1.25937L9.21982 0.918774L8.92333 0.709374H9.2907L9.40352 0.368774ZM11.495 0.368774L11.6078 0.709374H11.9784L11.6787 0.918774L11.7947 1.26251L11.495 1.05001L11.1953 1.25937L11.3113 0.918774L11.0116 0.709374H11.3822L11.495 0.368774ZM2.0913 1.23121L2.20408 1.57187H2.57468L2.27497 1.78121L2.38455 2.12187L2.0945 1.91247L1.79482 2.12184L1.90114 1.78124L1.61112 1.57184H1.97852L2.0913 1.23121ZM4.17958 1.23121L4.2956 1.57187H4.66296L4.36325 1.78121L4.4793 2.12187L4.17955 1.91247L3.87987 2.12184L3.99588 1.78124L3.69617 1.57184H4.06676L4.17958 1.23121ZM6.27109 1.23121L6.38384 1.57187H6.75448L6.45476 1.78121L6.56754 2.12187L6.27106 1.91247L5.97138 2.12184L6.08416 1.78127L5.78768 1.57187H6.15508L6.27109 1.23121ZM8.35938 1.23121L8.47539 1.57187H8.84276L8.54304 1.78121L8.65906 2.12187L8.35934 1.91247L8.06286 2.12184L8.17568 1.78124L7.87596 1.57184H8.24979L8.35938 1.23121ZM10.4509 1.23121L10.5636 1.57187H10.9343L10.6346 1.78121L10.7473 2.12187L10.4509 1.91247L10.1511 2.12184L10.264 1.78124L9.96747 1.57184H10.3348L10.4509 1.23121ZM1.04393 2.09067L1.15994 2.43754H1.52734L1.23083 2.64691L1.34364 2.98754L1.04393 2.77504L0.747444 2.98754L0.860228 2.64377L0.560547 2.43444H0.934375L1.04393 2.09067ZM3.13544 2.09067L3.24823 2.43434H3.61882L3.31911 2.64371L3.43193 2.98437L3.13544 2.77184L2.83573 2.98434L2.94851 2.64061L2.65203 2.43124H3.01943L3.13544 2.09067ZM5.22372 2.09067L5.33974 2.43441H5.70391L5.40742 2.64377L5.52017 2.98444L5.22049 2.77191L4.92401 2.98441L5.03679 2.64067L4.73708 2.43131H5.10771L5.22372 2.09067ZM7.31524 2.09067L7.42799 2.43441H7.79862L7.4989 2.64377L7.61492 2.98444L7.3152 2.77191L7.01552 2.98441L7.13154 2.64067L6.83182 2.43131H7.19922L7.31524 2.09067ZM9.40352 2.09067L9.51953 2.43441H9.8869L9.59041 2.64374L9.7032 2.98441L9.40348 2.77187L9.107 2.98437L9.21982 2.64064L8.92333 2.43127H9.2907L9.40352 2.09067ZM11.495 2.09067L11.6078 2.43441H11.9784L11.6787 2.64377L11.7947 2.98444L11.495 2.77191L11.1953 2.98441L11.3113 2.64067L11.0116 2.43131H11.3822L11.495 2.09067ZM2.0913 2.95314L2.20408 3.29377H2.57468L2.27497 3.50311L2.38778 3.84687L2.0913 3.63437L1.79158 3.84374L1.90437 3.50314L1.60788 3.29377H1.97532L2.0913 2.95314ZM4.17958 2.95314L4.2956 3.29377H4.66296L4.36325 3.50311L4.4793 3.84687L4.17955 3.63437L3.87987 3.84374L3.99588 3.50314L3.69617 3.29377H4.06676L4.17958 2.95314ZM6.27109 2.95314L6.38384 3.29377H6.75448L6.45476 3.50311L6.56754 3.84687L6.27106 3.63437L5.97138 3.84374L6.08416 3.50314L5.78768 3.29377H6.15508L6.27109 2.95314ZM8.35938 2.95314L8.47539 3.29377H8.84276L8.54627 3.50311L8.65906 3.84687L8.35934 3.63437L8.06286 3.84374L8.17568 3.50314L7.87596 3.29377H8.24979L8.35938 2.95314ZM10.4509 2.95314L10.5636 3.29377H10.9343L10.6346 3.50311L10.7473 3.84687L10.4509 3.63437L10.1511 3.84374L10.264 3.50314L9.96747 3.29377H10.3348L10.4509 2.95314ZM1.04393 3.81564L1.15994 4.15627H1.52734L1.23083 4.36561L1.34364 4.70937L1.04393 4.49687L0.747444 4.70624L0.860228 4.36564L0.560547 4.15627H0.934375L1.04393 3.81564ZM3.13544 3.81564L3.24823 4.15627H3.61882L3.31911 4.36561L3.43193 4.70627L3.13544 4.49687L2.83573 4.70624L2.94851 4.36564L2.65203 4.15627H3.01943L3.13544 3.81564ZM5.22372 3.81564L5.33974 4.15627H5.70391L5.40742 4.36561L5.52017 4.70937L5.22049 4.49687L4.92401 4.70624L5.03679 4.36564L4.73708 4.15627H5.10771L5.22372 3.81564ZM7.31524 3.81564L7.42799 4.15627H7.79862L7.4989 4.36561L7.61492 4.70937L7.3152 4.49687L7.01552 4.70624L7.13154 4.36564L6.83182 4.15627H7.19922L7.31524 3.81564ZM9.40352 3.81564L9.51953 4.15627H9.8869L9.59041 4.36561L9.7032 4.70937L9.40348 4.49687L9.107 4.70624L9.21982 4.36564L8.92333 4.15627H9.2907L9.40352 3.81564ZM11.495 3.81564L11.6078 4.15627H11.9784L11.6787 4.36561L11.7947 4.70937L11.495 4.49687L11.1953 4.70624L11.3113 4.36564L11.0116 4.15627H11.3822L11.495 3.81564ZM2.0913 4.67814L2.20408 5.01877H2.57468L2.27497 5.22811L2.38778 5.56877L2.0913 5.35627L1.79158 5.56877L1.90437 5.22501L1.60788 5.01564H1.97532L2.0913 4.67814ZM4.17958 4.67814L4.2956 5.01877H4.66296L4.36325 5.22811L4.4793 5.56877L4.17955 5.35627L3.87987 5.56877L3.99588 5.22501L3.69617 5.01564H4.06676L4.17958 4.67814ZM6.27109 4.67814L6.38384 5.01877H6.75448L6.45476 5.22811L6.56754 5.56877L6.27106 5.35627L5.97138 5.56877L6.08416 5.22501L5.78768 5.01564H6.15508L6.27109 4.67814ZM8.35938 4.67814L8.47539 5.01877H8.84276L8.54627 5.22811L8.65906 5.56877L8.35934 5.35627L8.06286 5.56877L8.17568 5.22501L7.87596 5.01564H8.24979L8.35938 4.67814ZM10.4509 4.67814L10.5636 5.01877H10.9343L10.6346 5.22811L10.7473 5.56877L10.4509 5.35627L10.1511 5.56877L10.264 5.22501L9.96747 5.01564H10.3348L10.4509 4.67814ZM1.04393 5.53751L1.15994 5.88127H1.52734L1.23083 6.09061L1.34364 6.42814L1.04393 6.21877L0.747444 6.42811L0.860228 6.08751L0.560547 5.87814H0.934375L1.04393 5.53751ZM3.13544 5.53751L3.24823 5.88127H3.61882L3.31911 6.09061L3.43516 6.42814L3.13541 6.21877L2.83573 6.42811L2.95174 6.08751L2.65203 5.87814H3.01943L3.13544 5.53751ZM5.22372 5.53751L5.33974 5.88127H5.70391L5.40742 6.09061L5.52017 6.42814L5.22049 6.21877L4.92401 6.42811L5.03679 6.08751L4.73708 5.87814H5.10771L5.22372 5.53751ZM7.31524 5.53751L7.42799 5.88127H7.79862L7.4989 6.09061L7.61492 6.42814L7.3152 6.21877L7.01552 6.42811L7.13154 6.08751L6.83182 5.87814H7.19922L7.31524 5.53751ZM9.40352 5.53751L9.51953 5.88127H9.8869L9.59041 6.09061L9.7032 6.42814L9.40348 6.21877L9.107 6.42811L9.21982 6.08751L8.92333 5.87814H9.2907L9.40352 5.53751ZM11.495 5.53751L11.6078 5.88127H11.9784L11.6787 6.09061L11.7947 6.42814L11.495 6.21877L11.1953 6.42811L11.3113 6.08751L11.0116 5.87814H11.3822L11.495 5.53751ZM2.0913 6.40001L2.20408 6.74064H2.57468L2.27497 6.95001L2.38778 7.29377L2.0913 7.08127L1.79158 7.29061L1.90437 6.95001L1.60788 6.74064H1.97532L2.0913 6.40001ZM4.17958 6.40001L4.2956 6.74064H4.66296L4.36325 6.95001L4.4793 7.29377L4.17955 7.08127L3.87987 7.29061L3.99588 6.95001L3.69617 6.74064H4.06676L4.17958 6.40001ZM6.27109 6.40001L6.38384 6.74064H6.75448L6.45476 6.95001L6.56754 7.29377L6.27106 7.08127L5.97138 7.29061L6.08416 6.95001L5.78768 6.74064H6.15508L6.27109 6.40001ZM8.35938 6.40001L8.47539 6.74064H8.84276L8.54627 6.95001L8.65906 7.29377L8.35934 7.08127L8.06286 7.29061L8.17568 6.95001L7.87596 6.74064H8.24979L8.35938 6.40001ZM10.4509 6.40001L10.5636 6.74064H10.9343L10.6346 6.95001L10.7473 7.29377L10.4509 7.08127L10.1511 7.29061L10.264 6.95001L9.96747 6.74064H10.3348L10.4509 6.40001ZM1.04393 7.26251L1.15994 7.60314H1.52734L1.23083 7.81251L1.34364 8.15314L1.04393 7.94377L0.747444 8.15311L0.860228 7.80937L0.560547 7.60001H0.934375L1.04393 7.26251ZM3.13544 7.26251L3.24823 7.60314H3.61882L3.31911 7.81251L3.43516 8.15314L3.13541 7.94377L2.83573 8.15311L2.95174 7.80937L2.65203 7.60001H3.01943L3.13544 7.26251ZM5.22372 7.26251L5.33974 7.60314H5.70391L5.41385 7.81251L5.52664 8.15314L5.22692 7.94377L4.93043 8.15311L5.04325 7.80937L4.74354 7.60001H5.11414L5.22372 7.26251ZM7.31524 7.26251L7.42799 7.60314H7.79862L7.4989 7.81251L7.61492 8.15314L7.3152 7.94377L7.01552 8.15311L7.13154 7.80937L6.83182 7.60001H7.19922L7.31524 7.26251ZM9.40352 7.26251L9.51953 7.60314H9.8869L9.59041 7.81251L9.7032 8.15314L9.40348 7.94377L9.107 8.15311L9.21982 7.80937L8.92333 7.60001H9.2907L9.40352 7.26251ZM11.495 7.26251L11.6078 7.60314H11.9784L11.6787 7.81251L11.7947 8.15314L11.495 7.94377L11.1953 8.15311L11.3113 7.80937L11.0116 7.60001H11.3822L11.495 7.26251Z" fill="white"/>
</g>
<defs>
<clipPath id="clip0_2207_18954">
<rect width="22" height="16" fill="white"/>
</clipPath>
</defs>
</svg>
