<svg width="72" height="24" viewBox="0 0 72 24" fill="none" xmlns="http://www.w3.org/2000/svg">
<g clip-path="url(#clip0_5418_122157)">
<path d="M69.2772 0.320007H2.71719C1.83353 0.320007 1.11719 1.03635 1.11719 1.92001V22.08C1.11719 22.9637 1.83353 23.68 2.71719 23.68H69.2772C70.1609 23.68 70.8772 22.9637 70.8772 22.08V1.92001C70.8772 1.03635 70.1609 0.320007 69.2772 0.320007Z" fill="white"/>
<path d="M69.2772 0.320007H2.71719C1.83353 0.320007 1.11719 1.03635 1.11719 1.92001V22.08C1.11719 22.9637 1.83353 23.68 2.71719 23.68H69.2772C70.1609 23.68 70.8772 22.9637 70.8772 22.08V1.92001C70.8772 1.03635 70.1609 0.320007 69.2772 0.320007Z" stroke="#CC6B1C" stroke-width="2"/>
<g filter="url(#filter0_i_5418_122157)">
<path d="M20.8461 3.68736C21.2828 3.43527 21.8207 3.43527 22.2574 3.68736L28.3978 7.23255C28.8345 7.48464 29.1034 7.95056 29.1034 8.45479V15.5451C29.1034 16.0494 28.8345 16.5153 28.3978 16.7673L22.2574 20.3126C21.8207 20.5646 21.2828 20.5646 20.8461 20.3126L14.7057 16.7673C14.269 16.5153 14 16.0494 14 15.5451V8.45479C14 7.95056 14.269 7.48464 14.7057 7.23255L20.8461 3.68736Z" fill="#FEC393"/>
</g>
<path d="M21.3876 4.99641C21.5123 4.92437 21.666 4.92437 21.7908 4.99641L27.5861 8.34233C27.7109 8.41436 27.7877 8.54748 27.7877 8.69154V15.3834C27.7877 15.5274 27.7109 15.6606 27.5861 15.7326L21.7908 19.0786C21.666 19.1506 21.5123 19.1506 21.3876 19.0786L15.5922 15.7326C15.4675 15.6606 15.3906 15.5274 15.3906 15.3834V8.69154C15.3906 8.54748 15.4675 8.41436 15.5922 8.34233L21.3876 4.99641Z" fill="#FFD98A"/>
<path d="M24.9006 15.168H22.8829L21.5391 13.1707L23.5106 13.2094L24.9006 15.168Z" fill="#CC6B1C"/>
<path d="M24.8981 11.1308C24.8981 11.7954 24.6286 12.399 24.1929 12.8347C23.7573 13.2703 23.1555 13.5398 22.4891 13.5398H21.7931L20.6819 11.9523H22.4743C22.6995 11.9523 22.9044 11.86 23.0521 11.7123C23.1998 11.5646 23.2921 11.3597 23.2921 11.1345C23.2921 10.6841 22.9266 10.3167 22.4743 10.3167H21.5052L20.4271 8.78274L20.3828 8.71997H22.4891C23.82 8.72181 24.8981 9.79987 24.8981 11.1308Z" fill="#CC6B1C"/>
<path d="M21.6847 11.1234H21.4004L19.7188 8.72363L20.0067 8.72547L21.6847 11.1234Z" fill="#CC6B1C"/>
<path d="M20.3957 11.1234H20.1114L18.4297 8.72363L18.7177 8.72547L20.3957 11.1234Z" fill="#CC6B1C"/>
<path d="M21.0441 11.1234H20.7598L19.0781 8.72363L19.3661 8.72547L21.0441 11.1234Z" fill="#CC6B1C"/>
<path d="M37.3903 14.4744L37.1054 13.8122H35.0264L34.7415 14.4744H33.625L35.8965 9.30005H36.243L38.5068 14.4744H37.3903ZM36.7435 12.9575L36.0659 11.2404L35.3883 12.9575H36.7435Z" fill="#CC6B1C"/>
<path d="M43.8362 9.30005H44.175V14.4744H43.1355V11.764L41.8573 13.3656H41.5185L40.2403 11.764V14.4744H39.2008V9.30005H39.5396L41.6879 12.0489L43.8362 9.30005Z" fill="#CC6B1C"/>
<path d="M49.279 12.9806C49.279 13.417 49.1224 13.7763 48.8093 14.0586C48.4961 14.3358 48.0957 14.4744 47.6081 14.4744H45.3443V9.39245H47.1461C47.6183 9.39245 48.0033 9.52592 48.3011 9.79285C48.6039 10.0546 48.7554 10.3934 48.7554 10.8092C48.7554 11.184 48.6296 11.4894 48.3781 11.7255C48.9787 11.9463 49.279 12.3646 49.279 12.9806ZM47.0614 10.2856H46.3453V11.4483H47.0614C47.2718 11.4483 47.4335 11.397 47.5465 11.2943C47.6645 11.1917 47.7236 11.0479 47.7236 10.8631C47.7236 10.6835 47.6645 10.5423 47.5465 10.4396C47.4335 10.337 47.2718 10.2856 47.0614 10.2856ZM48.2549 12.9421C48.2549 12.7471 48.1907 12.5931 48.0624 12.4801C47.934 12.3621 47.7569 12.303 47.5311 12.303H46.3453V13.5812H47.5311C47.7569 13.5812 47.934 13.5248 48.0624 13.4118C48.1907 13.2989 48.2549 13.1423 48.2549 12.9421Z" fill="#CC6B1C"/>
<path d="M50.1267 14.4744V9.39245H53.5455V10.3318H51.1662V11.3636H52.9141V12.2491H51.1662V13.535H53.6379V14.4744H50.1267Z" fill="#CC6B1C"/>
<path d="M58.8296 14.4744H57.6592L56.3425 12.6803H55.5802V14.4744H54.5407V9.39245H56.4503C56.9841 9.39245 57.423 9.54388 57.767 9.84675C58.1109 10.1496 58.2829 10.5449 58.2829 11.0325C58.2829 11.3508 58.2033 11.6383 58.0442 11.8949C57.8902 12.1465 57.672 12.3415 57.3897 12.4801L58.8296 14.4744ZM55.5802 10.3087V11.764H56.4503C56.6915 11.764 56.8789 11.6973 57.0124 11.5638C57.151 11.4304 57.2203 11.2533 57.2203 11.0325C57.2203 10.8169 57.1484 10.6424 57.0047 10.5089C56.8661 10.3755 56.6813 10.3087 56.4503 10.3087H55.5802Z" fill="#CC6B1C"/>
</g>
<defs>
<filter id="filter0_i_5418_122157" x="14" y="3.49829" width="15.1016" height="21.0033" filterUnits="userSpaceOnUse" color-interpolation-filters="sRGB">
<feFlood flood-opacity="0" result="BackgroundImageFix"/>
<feBlend mode="normal" in="SourceGraphic" in2="BackgroundImageFix" result="shape"/>
<feColorMatrix in="SourceAlpha" type="matrix" values="0 0 0 0 0 0 0 0 0 0 0 0 0 0 0 0 0 0 127 0" result="hardAlpha"/>
<feOffset dy="4"/>
<feGaussianBlur stdDeviation="2"/>
<feComposite in2="hardAlpha" operator="arithmetic" k2="-1" k3="1"/>
<feColorMatrix type="matrix" values="0 0 0 0 0.8 0 0 0 0 0.419608 0 0 0 0 0.109804 0 0 0 1 0"/>
<feBlend mode="normal" in2="shape" result="effect1_innerShadow_5418_122157"/>
</filter>
<clipPath id="clip0_5418_122157">
<rect x="0.796875" width="70.4" height="24" rx="2" fill="white"/>
</clipPath>
</defs>
</svg>
