<svg width="474" height="161" viewBox="0 0 474 161" fill="none" xmlns="http://www.w3.org/2000/svg">
<g clip-path="url(#clip0_5515_120951)">
<path d="M460.254 2.14624H13.7472C7.81939 2.14624 3.01392 6.95172 3.01392 12.8796V148.12C3.01392 154.047 7.81939 158.853 13.7472 158.853H460.254C466.182 158.853 470.987 154.047 470.987 148.12V12.8796C470.987 6.95172 466.182 2.14624 460.254 2.14624Z" fill="#15202B"/>
<path d="M460.254 2.14624H13.7472C7.81939 2.14624 3.01392 6.95172 3.01392 12.8796V148.12C3.01392 154.047 7.81939 158.853 13.7472 158.853H460.254C466.182 158.853 470.987 154.047 470.987 148.12V12.8796C470.987 6.95172 466.182 2.14624 460.254 2.14624Z" stroke="#CC6B1C" stroke-width="13.4167"/>
<g filter="url(#filter0_i_5515_120951)">
<path d="M135.342 24.7361C138.271 23.045 141.88 23.045 144.81 24.7361L186.002 48.5184C188.931 50.2095 190.735 53.3351 190.735 56.7176V104.282C190.735 107.665 188.931 110.79 186.002 112.481L144.81 136.264C141.88 137.954 138.271 137.954 135.342 136.264L94.1501 112.481C91.2209 110.79 89.4163 107.665 89.4163 104.282V56.7176C89.4163 53.3351 91.2209 50.2095 94.1501 48.5184L135.342 24.7361Z" fill="#FEC393"/>
</g>
<path d="M138.975 33.5177C139.812 33.0345 140.843 33.0345 141.68 33.5177L180.557 55.9632C181.394 56.4465 181.909 57.3395 181.909 58.3059V103.197C181.909 104.163 181.394 105.056 180.557 105.54L141.68 127.986C140.843 128.469 139.812 128.469 138.975 127.986L100.098 105.54C99.2607 105.056 98.7451 104.163 98.7451 103.197V58.3059C98.7451 57.3395 99.2607 56.4465 100.098 55.9632L138.975 33.5177Z" fill="#FFD98A"/>
<path d="M162.562 101.752H149.027L140.012 88.3533L153.238 88.6133L162.562 101.752Z" fill="#CC6B1C"/>
<path d="M162.564 74.6694C162.564 79.1273 160.756 83.1768 157.833 86.0993C154.911 89.0217 150.874 90.8297 146.403 90.8297H141.735L134.28 80.1799H146.304C147.815 80.1799 149.189 79.5608 150.18 78.5702C151.171 77.5795 151.79 76.2049 151.79 74.6941C151.79 71.6725 149.338 69.2082 146.304 69.2082H139.803L132.571 58.9177L132.274 58.4966H146.403C155.332 58.5089 162.564 65.7409 162.564 74.6694Z" fill="#CC6B1C"/>
<path d="M141.004 74.6196H139.097L127.816 58.5212L129.747 58.5336L141.004 74.6196Z" fill="#CC6B1C"/>
<path d="M132.335 74.6196H130.428L119.147 58.5212L121.079 58.5336L132.335 74.6196Z" fill="#CC6B1C"/>
<path d="M136.669 74.6196H134.762L123.48 58.5212L125.412 58.5336L136.669 74.6196Z" fill="#CC6B1C"/>
<path d="M246.305 97.0995L244.394 92.6573H230.447L228.536 97.0995H221.046L236.284 62.3879H238.609L253.795 97.0995H246.305ZM241.966 86.9237L237.421 75.4048L232.875 86.9237H241.966Z" fill="#CC6B1C"/>
<path d="M289.546 62.3879H291.819V97.0995H284.846V78.9173L276.271 89.6613H273.999L265.424 78.9173V97.0995H258.451V62.3879H260.723L275.135 80.8285L289.546 62.3879Z" fill="#CC6B1C"/>
<path d="M326.058 87.0786C326.058 90.0057 325.008 92.4162 322.907 94.3102C320.807 96.1698 318.121 97.0995 314.849 97.0995H299.663V63.0078H311.75C314.918 63.0078 317.501 63.9031 319.498 65.6938C321.53 67.45 322.546 69.7228 322.546 72.5122C322.546 75.026 321.702 77.0749 320.015 78.659C324.044 80.1398 326.058 82.9463 326.058 87.0786ZM311.182 68.9997H306.378V76.7995H311.182C312.594 76.7995 313.678 76.4551 314.436 75.7664C315.228 75.0776 315.624 74.1134 315.624 72.8737C315.624 71.6685 315.228 70.7215 314.436 70.0328C313.678 69.344 312.594 68.9997 311.182 68.9997ZM319.188 86.8204C319.188 85.5118 318.758 84.4787 317.897 83.7211C317.036 82.9291 315.848 82.5331 314.333 82.5331H306.378V91.1077H314.333C315.848 91.1077 317.036 90.7289 317.897 89.9713C318.758 89.2137 319.188 88.1634 319.188 86.8204Z" fill="#CC6B1C"/>
<path d="M331.745 97.0995V63.0078H354.68V69.3096H338.718V76.2313H350.444V82.1715H338.718V90.7977H355.299V97.0995H331.745Z" fill="#CC6B1C"/>
<path d="M390.127 97.0995H382.275L373.443 85.0641H368.329V97.0995H361.355V63.0078H374.166C377.747 63.0078 380.691 64.0237 382.999 66.0554C385.306 68.0871 386.459 70.7387 386.459 74.0101C386.459 76.1452 385.926 78.0736 384.858 79.7954C383.825 81.4828 382.361 82.7913 380.467 83.7211L390.127 97.0995ZM368.329 69.1546V78.9173H374.166C375.784 78.9173 377.041 78.4696 377.936 77.5743C378.866 76.6789 379.331 75.4909 379.331 74.0101C379.331 72.5638 378.849 71.393 377.885 70.4976C376.955 69.6023 375.715 69.1546 374.166 69.1546H368.329Z" fill="#CC6B1C"/>
</g>
<defs>
<filter id="filter0_i_5515_120951" x="89.4163" y="23.4678" width="101.319" height="140.897" filterUnits="userSpaceOnUse" color-interpolation-filters="sRGB">
<feFlood flood-opacity="0" result="BackgroundImageFix"/>
<feBlend mode="normal" in="SourceGraphic" in2="BackgroundImageFix" result="shape"/>
<feColorMatrix in="SourceAlpha" type="matrix" values="0 0 0 0 0 0 0 0 0 0 0 0 0 0 0 0 0 0 127 0" result="hardAlpha"/>
<feOffset dy="26.8333"/>
<feGaussianBlur stdDeviation="13.4167"/>
<feComposite in2="hardAlpha" operator="arithmetic" k2="-1" k3="1"/>
<feColorMatrix type="matrix" values="0 0 0 0 0.8 0 0 0 0 0.419608 0 0 0 0 0.109804 0 0 0 1 0"/>
<feBlend mode="normal" in2="shape" result="effect1_innerShadow_5515_120951"/>
</filter>
<clipPath id="clip0_5515_120951">
<rect x="0.866699" width="472.267" height="161" rx="13.4167" fill="white"/>
</clipPath>
</defs>
</svg>
