<svg width="24" height="24" viewBox="0 0 24 24" fill="none" xmlns="http://www.w3.org/2000/svg">
<circle cx="12" cy="12" r="12" transform="rotate(-90 12 12)" fill="#319EF6" fill-opacity="0.08"/>
<path d="M13.2755 15.2002C13.4452 15.2002 13.608 15.1327 13.728 15.0127C13.8481 14.8927 13.9155 14.7299 13.9155 14.5602C13.9155 14.3904 13.8481 14.2276 13.728 14.1076C13.608 13.9876 13.4452 13.9202 13.2755 13.9202L9.70045 13.9202L10.528 13.0926C10.6445 12.9719 10.7091 12.8103 10.7076 12.6425C10.7061 12.4747 10.6388 12.3141 10.5202 12.1955C10.4015 12.0768 10.241 12.0095 10.0732 12.0081C9.90538 12.0066 9.74371 12.0711 9.62301 12.1877L7.70301 14.1077C7.58303 14.2277 7.51563 14.3905 7.51563 14.5602C7.51563 14.7299 7.58303 14.8926 7.70301 15.0126L9.62301 16.9326C9.74371 17.0492 9.90538 17.1137 10.0732 17.1123C10.241 17.1108 10.4015 17.0435 10.5202 16.9249C10.6388 16.8062 10.7061 16.6457 10.7076 16.4779C10.7091 16.3101 10.6445 16.1484 10.528 16.0277L9.70045 15.2002L13.2755 15.2002ZM10.7155 8.80017C10.5457 8.80017 10.383 8.8676 10.2629 8.98762C10.1429 9.10764 10.0755 9.27043 10.0755 9.44017C10.0755 9.60991 10.1429 9.77269 10.2629 9.89272C10.383 10.0127 10.5457 10.0802 10.7155 10.0802L14.2905 10.0802L13.463 10.9077C13.3464 11.0284 13.2819 11.1901 13.2834 11.3579C13.2848 11.5257 13.3521 11.6862 13.4708 11.8049C13.5895 11.9235 13.75 11.9908 13.9178 11.9923C14.0856 11.9937 14.2473 11.9292 14.368 11.8126L16.288 9.89265C16.408 9.77263 16.4754 9.60987 16.4754 9.44017C16.4754 9.27046 16.408 9.10771 16.288 8.98769L14.368 7.06769C14.2473 6.95111 14.0856 6.8866 13.9178 6.88806C13.75 6.88952 13.5895 6.95682 13.4708 7.07549C13.3521 7.19415 13.2848 7.35467 13.2834 7.52247C13.2819 7.69028 13.3464 7.85194 13.463 7.97265L14.2905 8.80017L10.7155 8.80017Z" fill="#319EF6"/>
</svg>
