<svg width="64" height="24" viewBox="0 0 64 24" fill="none" xmlns="http://www.w3.org/2000/svg">
<path d="M11.932 3.68739C12.3687 3.4353 12.9067 3.4353 13.3433 3.68739L19.4838 7.23258C19.9204 7.48467 20.1894 7.95059 20.1894 8.45482V15.5452C20.1894 16.0494 19.9204 16.5153 19.4838 16.7673L13.3433 20.3126C12.9067 20.5646 12.3687 20.5646 11.932 20.3126L5.7916 16.7673C5.35495 16.5153 5.08594 16.0494 5.08594 15.5452V8.45482C5.08594 7.95059 5.35495 7.48467 5.7916 7.23258L11.932 3.68739Z" fill="#F2F9F8"/>
<path d="M12.4735 4.99641C12.5983 4.92437 12.752 4.92437 12.8767 4.99641L18.672 8.34233C18.7968 8.41436 18.8736 8.54748 18.8736 8.69154V15.3834C18.8736 15.5274 18.7968 15.6606 18.672 15.7326L12.8767 19.0786C12.752 19.1506 12.5983 19.1506 12.4735 19.0786L6.67818 15.7326C6.55343 15.6606 6.47656 15.5274 6.47656 15.3834V8.69154C6.47656 8.54748 6.55343 8.41436 6.67818 8.34233L12.4735 4.99641Z" fill="#DBEBEE"/>
<path d="M15.9943 15.328H13.9767L12.6328 13.3306L14.6043 13.3694L15.9943 15.328Z" fill="#62818A"/>
<path d="M15.9918 11.2909C15.9918 11.9554 15.7223 12.559 15.2867 12.9947C14.851 13.4303 14.2492 13.6998 13.5828 13.6998H12.8869L11.7756 12.1123H13.5681C13.7933 12.1123 13.9982 12.02 14.1458 11.8723C14.2935 11.7247 14.3858 11.5197 14.3858 11.2945C14.3858 10.8441 14.0203 10.4768 13.5681 10.4768H12.5989L11.5209 8.94277L11.4766 8.88H13.5828C14.9138 8.88184 15.9918 9.95991 15.9918 11.2909Z" fill="#62818A"/>
<path d="M12.7785 11.2835H12.4942L10.8125 8.8837L11.1005 8.88554L12.7785 11.2835Z" fill="#62818A"/>
<path d="M11.4894 11.2835H11.2051L9.52344 8.8837L9.81141 8.88554L11.4894 11.2835Z" fill="#62818A"/>
<path d="M12.13 11.2835H11.8457L10.1641 8.8837L10.452 8.88554L12.13 11.2835Z" fill="#62818A"/>
<path d="M25.1406 14.4V9.33119H26.7995C27.6085 9.32095 28.2741 9.55391 28.7963 10.0301C29.3185 10.5011 29.5745 11.1078 29.5643 11.8502C29.5745 12.5875 29.316 13.1994 28.7886 13.6858C28.2613 14.1722 27.5982 14.4102 26.7995 14.4H25.1406ZM26.1774 13.463H26.7918C27.3038 13.463 27.716 13.3171 28.0283 13.0253C28.3406 12.7283 28.4968 12.3366 28.4968 11.8502C28.4968 11.3587 28.3432 10.9722 28.036 10.6906C27.7288 10.409 27.3141 10.2682 26.7918 10.2682H26.1774V13.463ZM30.4432 14.4V9.33119H31.48V14.4H30.4432ZM35.9123 14.4L35.6282 13.7395H33.5545L33.2704 14.4H32.1568L34.4224 9.23903H34.768L37.0259 14.4H35.9123ZM35.2672 12.887L34.5913 11.1744L33.9155 12.887H35.2672ZM42.3414 9.23903H42.6794V14.4H41.6426V11.6966L40.3677 13.2941H40.0298L38.7549 11.6966V14.4H37.7181V9.23903H38.056L40.1987 11.9808L42.3414 9.23903ZM43.5538 11.8656C43.5435 11.1437 43.8046 10.5216 44.3371 9.99935C44.8747 9.47711 45.5096 9.22367 46.2418 9.23903C46.9739 9.22367 47.6088 9.47711 48.1464 9.99935C48.6891 10.5216 48.9554 11.1437 48.9451 11.8656C48.9554 12.5875 48.6891 13.2096 48.1464 13.7318C47.6088 14.2541 46.9739 14.5075 46.2418 14.4922C45.5096 14.5075 44.8747 14.2541 44.3371 13.7318C43.8046 13.2096 43.5435 12.5875 43.5538 11.8656ZM47.8776 11.8656C47.8776 11.3843 47.7214 10.9875 47.4091 10.6752C47.1019 10.3578 46.7154 10.199 46.2494 10.199C45.7784 10.199 45.3893 10.3552 45.0821 10.6675C44.7749 10.9798 44.6213 11.3792 44.6213 11.8656C44.6213 12.352 44.7749 12.7514 45.0821 13.0637C45.3893 13.376 45.7784 13.5322 46.2494 13.5322C46.7154 13.5322 47.1019 13.376 47.4091 13.0637C47.7214 12.7514 47.8776 12.352 47.8776 11.8656ZM53.1026 9.33119H54.1394V14.4922H53.7938L50.86 11.3587V14.4H49.8232V9.23903H50.1611L53.1026 12.3571V9.33119ZM55.2981 14.4V9.33119H56.957C57.7659 9.32095 58.4315 9.55391 58.9538 10.0301C59.476 10.5011 59.732 11.1078 59.7218 11.8502C59.732 12.5875 59.4734 13.1994 58.9461 13.6858C58.4187 14.1722 57.7557 14.4102 56.957 14.4H55.2981ZM56.3349 13.463H56.9493C57.4613 13.463 57.8734 13.3171 58.1858 13.0253C58.4981 12.7283 58.6542 12.3366 58.6542 11.8502C58.6542 11.3587 58.5006 10.9722 58.1934 10.6906C57.8862 10.409 57.4715 10.2682 56.9493 10.2682H56.3349V13.463Z" fill="#62818A"/>
<path d="M62.0803 0.320007H1.92031C1.03666 0.320007 0.320312 1.03635 0.320312 1.92001V22.08C0.320312 22.9637 1.03666 23.68 1.92031 23.68H62.0803C62.964 23.68 63.6803 22.9637 63.6803 22.08V1.92001C63.6803 1.03635 62.964 0.320007 62.0803 0.320007Z" stroke="#62818A" stroke-width="2"/>
</svg>
