<svg width="473" height="161" viewBox="0 0 473 161" fill="none" xmlns="http://www.w3.org/2000/svg">
<g clip-path="url(#clip0_5515_120965)">
<path d="M459.854 2.14624H13.3473C7.41949 2.14624 2.61401 6.95172 2.61401 12.8796V148.12C2.61401 154.047 7.41949 158.853 13.3473 158.853H459.854C465.782 158.853 470.587 154.047 470.587 148.12V12.8796C470.587 6.95172 465.782 2.14624 459.854 2.14624Z" fill="#15202B"/>
<path d="M459.854 2.14624H13.3473C7.41949 2.14624 2.61401 6.95172 2.61401 12.8796V148.12C2.61401 154.047 7.41949 158.853 13.3473 158.853H459.854C465.782 158.853 470.587 154.047 470.587 148.12V12.8796C470.587 6.95172 465.782 2.14624 459.854 2.14624Z" stroke="#239A5D" stroke-width="13.4167"/>
<g filter="url(#filter0_i_5515_120965)">
<path d="M105.426 24.7361C108.356 23.045 111.965 23.045 114.894 24.7361L156.086 48.5184C159.015 50.2095 160.819 53.3351 160.819 56.7176V104.282C160.819 107.665 159.015 110.79 156.086 112.481L114.894 136.264C111.965 137.954 108.356 137.954 105.426 136.264L64.2343 112.481C61.3051 110.79 59.5005 107.665 59.5005 104.282V56.7176C59.5005 53.3351 61.3051 50.2095 64.2343 48.5184L105.426 24.7361Z" fill="#7DBB9C"/>
</g>
<path d="M109.059 33.5177C109.896 33.0345 110.927 33.0345 111.764 33.5177L150.641 55.9632C151.478 56.4465 151.993 57.3395 151.993 58.3059V103.197C151.993 104.163 151.478 105.056 150.641 105.54L111.764 127.986C110.927 128.469 109.896 128.469 109.059 127.986L70.1819 105.54C69.345 105.056 68.8293 104.163 68.8293 103.197V58.3059C68.8293 57.3395 69.345 56.4465 70.1819 55.9632L109.059 33.5177Z" fill="#8AC1A5"/>
<path d="M132.646 101.752H119.111L110.096 88.3533L123.322 88.6133L132.646 101.752Z" fill="#239A5D"/>
<path d="M132.648 74.6694C132.648 79.1273 130.84 83.1768 127.917 86.0993C124.995 89.0217 120.958 90.8297 116.487 90.8297H111.819L104.364 80.1799H116.388C117.899 80.1799 119.274 79.5608 120.264 78.5702C121.255 77.5795 121.874 76.2049 121.874 74.6941C121.874 71.6725 119.422 69.2082 116.388 69.2082H109.887L102.655 58.9177L102.358 58.4966H116.487C125.416 58.5089 132.648 65.7409 132.648 74.6694Z" fill="#239A5D"/>
<path d="M111.088 74.6196H109.181L97.8997 58.5212L99.8314 58.5336L111.088 74.6196Z" fill="#239A5D"/>
<path d="M102.419 74.6196H100.512L89.231 58.5212L91.1627 58.5336L102.419 74.6196Z" fill="#239A5D"/>
<path d="M106.753 74.6196H104.846L93.5647 58.5212L95.4965 58.5336L106.753 74.6196Z" fill="#239A5D"/>
<path d="M191.13 97.0995V63.0078H214.065V69.3096H198.103V76.2313H209.829V82.1715H198.103V90.7977H214.684V97.0995H191.13Z" fill="#239A5D"/>
<path d="M251.836 62.3879H254.109V97.0995H247.136V78.9173L238.561 89.6613H236.288L227.714 78.9173V97.0995H220.74V62.3879H223.013L237.425 80.8285L251.836 62.3879Z" fill="#239A5D"/>
<path d="M261.953 97.0995V63.0078H284.887V69.3096H268.926V76.2313H280.652V82.1715H268.926V90.7977H285.507V97.0995H261.953Z" fill="#239A5D"/>
<path d="M320.335 97.0995H312.483L303.65 85.0641H298.537V97.0995H291.563V63.0078H304.373C307.955 63.0078 310.899 64.0237 313.206 66.0554C315.514 68.0871 316.667 70.7387 316.667 74.0101C316.667 76.1452 316.133 78.0736 315.066 79.7954C314.033 81.4828 312.569 82.7913 310.675 83.7211L320.335 97.0995ZM298.537 69.1546V78.9173H304.373C305.992 78.9173 307.249 78.4696 308.144 77.5743C309.074 76.6789 309.539 75.4909 309.539 74.0101C309.539 72.5638 309.057 71.393 308.093 70.4976C307.163 69.6023 305.923 69.1546 304.373 69.1546H298.537Z" fill="#239A5D"/>
<path d="M346.608 97.0995L344.697 92.6573H330.751L328.839 97.0995H321.349L336.587 62.3879H338.912L354.098 97.0995H346.608ZM342.269 86.9237L337.724 75.4048L333.178 86.9237H342.269Z" fill="#239A5D"/>
<path d="M358.754 97.0995V63.0078H365.727V90.7977H380.655V97.0995H358.754Z" fill="#239A5D"/>
<path d="M385.842 97.0995V63.0078H396.999C402.44 62.9389 406.917 64.5058 410.43 67.7083C413.942 70.8764 415.664 74.9571 415.595 79.9504C415.664 84.9092 413.925 89.0243 410.378 92.2957C406.831 95.5671 402.371 97.1684 396.999 97.0995H385.842ZM392.815 90.7977H396.948C400.391 90.7977 403.164 89.8163 405.264 87.8534C407.365 85.8562 408.415 83.2218 408.415 79.9504C408.415 76.6445 407.382 74.0446 405.316 72.1506C403.25 70.2566 400.46 69.3096 396.948 69.3096H392.815V90.7977Z" fill="#239A5D"/>
</g>
<defs>
<filter id="filter0_i_5515_120965" x="59.5005" y="23.4678" width="101.319" height="140.897" filterUnits="userSpaceOnUse" color-interpolation-filters="sRGB">
<feFlood flood-opacity="0" result="BackgroundImageFix"/>
<feBlend mode="normal" in="SourceGraphic" in2="BackgroundImageFix" result="shape"/>
<feColorMatrix in="SourceAlpha" type="matrix" values="0 0 0 0 0 0 0 0 0 0 0 0 0 0 0 0 0 0 127 0" result="hardAlpha"/>
<feOffset dy="26.8333"/>
<feGaussianBlur stdDeviation="13.4167"/>
<feComposite in2="hardAlpha" operator="arithmetic" k2="-1" k3="1"/>
<feColorMatrix type="matrix" values="0 0 0 0 0.105882 0 0 0 0 0.321569 0 0 0 0 0.211765 0 0 0 1 0"/>
<feBlend mode="normal" in2="shape" result="effect1_innerShadow_5515_120965"/>
</filter>
<clipPath id="clip0_5515_120965">
<rect x="0.466797" width="472.267" height="161" rx="13.4167" fill="white"/>
</clipPath>
</defs>
</svg>
