<svg width="72" height="24" viewBox="0 0 72 24" fill="none" xmlns="http://www.w3.org/2000/svg">
<g clip-path="url(#clip0_5418_122160)">
<path d="M69.2772 0.320007H2.71719C1.83353 0.320007 1.11719 1.03635 1.11719 1.92001V22.08C1.11719 22.9637 1.83353 23.68 2.71719 23.68H69.2772C70.1609 23.68 70.8772 22.9637 70.8772 22.08V1.92001C70.8772 1.03635 70.1609 0.320007 69.2772 0.320007Z" fill="white"/>
<path d="M69.2772 0.320007H2.71719C1.83353 0.320007 1.11719 1.03635 1.11719 1.92001V22.08C1.11719 22.9637 1.83353 23.68 2.71719 23.68H69.2772C70.1609 23.68 70.8772 22.9637 70.8772 22.08V1.92001C70.8772 1.03635 70.1609 0.320007 69.2772 0.320007Z" stroke="#1B5236" stroke-width="2"/>
<g filter="url(#filter0_i_5418_122160)">
<path d="M16.4398 3.68736C16.8765 3.43527 17.4145 3.43527 17.8512 3.68736L23.9916 7.23255C24.4282 7.48464 24.6972 7.95056 24.6972 8.45479V15.5451C24.6972 16.0494 24.4282 16.5153 23.9916 16.7673L17.8512 20.3126C17.4145 20.5646 16.8765 20.5646 16.4398 20.3126L10.2994 16.7673C9.86276 16.5153 9.59375 16.0494 9.59375 15.5451V8.45479C9.59375 7.95056 9.86276 7.48464 10.2994 7.23255L16.4398 3.68736Z" fill="#7DBB9C"/>
</g>
<path d="M16.9813 4.99641C17.1061 4.92437 17.2598 4.92437 17.3845 4.99641L23.1799 8.34233C23.3047 8.41436 23.3815 8.54748 23.3815 8.69154V15.3834C23.3815 15.5274 23.3047 15.6606 23.1799 15.7326L17.3845 19.0786C17.2598 19.1506 17.1061 19.1506 16.9813 19.0786L11.186 15.7326C11.0612 15.6606 10.9844 15.5274 10.9844 15.3834V8.69154C10.9844 8.54748 11.0612 8.41436 11.186 8.34233L16.9813 4.99641Z" fill="#8AC1A5"/>
<path d="M20.4943 15.168H18.4767L17.1328 13.1707L19.1043 13.2094L20.4943 15.168Z" fill="#1B5236"/>
<path d="M20.4918 11.1308C20.4918 11.7954 20.2223 12.399 19.7867 12.8347C19.351 13.2703 18.7492 13.5398 18.0828 13.5398H17.3869L16.2756 11.9523H18.0681C18.2933 11.9523 18.4982 11.86 18.6458 11.7123C18.7935 11.5646 18.8858 11.3597 18.8858 11.1345C18.8858 10.6841 18.5203 10.3167 18.0681 10.3167H17.0989L16.0209 8.78274L15.9766 8.71997H18.0828C19.4138 8.72181 20.4918 9.79987 20.4918 11.1308Z" fill="#1B5236"/>
<path d="M17.2785 11.1234H16.9942L15.3125 8.72363L15.6005 8.72547L17.2785 11.1234Z" fill="#1B5236"/>
<path d="M15.9894 11.1234H15.7051L14.0234 8.72363L14.3114 8.72547L15.9894 11.1234Z" fill="#1B5236"/>
<path d="M16.6378 11.1234H16.3536L14.6719 8.72363L14.9598 8.72547L16.6378 11.1234Z" fill="#1B5236"/>
<path d="M29.2188 14.4744V9.39245H32.6376V10.3318H30.2583V11.3636H32.0062V12.2491H30.2583V13.535H32.73V14.4744H29.2188Z" fill="#1B5236"/>
<path d="M38.2681 9.30005H38.6069V14.4744H37.5674V11.764L36.2892 13.3656H35.9504L34.6722 11.764V14.4744H33.6327V9.30005H33.9715L36.1198 12.0489L38.2681 9.30005Z" fill="#1B5236"/>
<path d="M39.7762 14.4744V9.39245H43.195V10.3318H40.8157V11.3636H42.5636V12.2491H40.8157V13.535H43.2874V14.4744H39.7762Z" fill="#1B5236"/>
<path d="M48.479 14.4744H47.3086L45.9919 12.6803H45.2296V14.4744H44.1901V9.39245H46.0997C46.6336 9.39245 47.0725 9.54388 47.4164 9.84675C47.7604 10.1496 47.9323 10.5449 47.9323 11.0325C47.9323 11.3508 47.8528 11.6383 47.6936 11.8949C47.5396 12.1465 47.3215 12.3415 47.0391 12.4801L48.479 14.4744ZM45.2296 10.3087V11.764H46.0997C46.341 11.764 46.5284 11.6973 46.6618 11.5638C46.8004 11.4304 46.8697 11.2533 46.8697 11.0325C46.8697 10.8169 46.7979 10.6424 46.6541 10.5089C46.5155 10.3755 46.3307 10.3087 46.0997 10.3087H45.2296Z" fill="#1B5236"/>
<path d="M52.3956 14.4744L52.1107 13.8122H50.0317L49.7468 14.4744H48.6303L50.9018 9.30005H51.2483L53.5121 14.4744H52.3956ZM51.7488 12.9575L51.0712 11.2404L50.3936 12.9575H51.7488Z" fill="#1B5236"/>
<path d="M54.2062 14.4744V9.39245H55.2457V13.535H57.471V14.4744H54.2062Z" fill="#1B5236"/>
<path d="M58.2441 14.4744V9.39245H59.9073C60.7184 9.38218 61.3857 9.61575 61.9093 10.0931C62.4329 10.5654 62.6896 11.1737 62.6793 11.918C62.6896 12.6572 62.4304 13.2707 61.9016 13.7583C61.3729 14.246 60.7081 14.4847 59.9073 14.4744H58.2441ZM59.2836 13.535H59.8996C60.413 13.535 60.8262 13.3887 61.1393 13.0961C61.4525 12.7984 61.609 12.4057 61.609 11.918C61.609 11.4252 61.455 11.0377 61.147 10.7553C60.839 10.473 60.4232 10.3318 59.8996 10.3318H59.2836V13.535Z" fill="#1B5236"/>
</g>
<defs>
<filter id="filter0_i_5418_122160" x="9.59375" y="3.49829" width="15.1016" height="21.0033" filterUnits="userSpaceOnUse" color-interpolation-filters="sRGB">
<feFlood flood-opacity="0" result="BackgroundImageFix"/>
<feBlend mode="normal" in="SourceGraphic" in2="BackgroundImageFix" result="shape"/>
<feColorMatrix in="SourceAlpha" type="matrix" values="0 0 0 0 0 0 0 0 0 0 0 0 0 0 0 0 0 0 127 0" result="hardAlpha"/>
<feOffset dy="4"/>
<feGaussianBlur stdDeviation="2"/>
<feComposite in2="hardAlpha" operator="arithmetic" k2="-1" k3="1"/>
<feColorMatrix type="matrix" values="0 0 0 0 0.105882 0 0 0 0 0.321569 0 0 0 0 0.211765 0 0 0 1 0"/>
<feBlend mode="normal" in2="shape" result="effect1_innerShadow_5418_122160"/>
</filter>
<clipPath id="clip0_5418_122160">
<rect x="0.796875" width="70.4" height="24" rx="2" fill="white"/>
</clipPath>
</defs>
</svg>
