<svg width="172" height="24" viewBox="0 0 172 24" fill="none" xmlns="http://www.w3.org/2000/svg">
<g clip-path="url(#clip0_1052_100)">
<g clip-path="url(#clip1_1052_100)">
<path d="M23.3836 22.668H16.0859L11.2344 15.6455L18.3574 15.7856L23.3836 22.668Z" fill="url(#paint0_linear_1052_100)"/>
<path d="M23.3834 8.47376C23.3834 10.8146 22.4069 12.9354 20.8343 14.4659C19.2617 15.9964 17.0826 16.9468 14.6775 16.9468H12.1592L8.14031 11.3648H14.6158C15.4278 11.3648 16.1679 11.0447 16.7023 10.5245C17.2368 10.0043 17.5657 9.28405 17.5657 8.49377C17.5657 6.9032 16.2398 5.62275 14.6158 5.62275H11.1108L7.21524 0.230835L7.05078 0.0107619H14.6569C19.4878 0.000758386 23.3834 3.7921 23.3834 8.47376Z" fill="url(#paint1_linear_1052_100)"/>
<path d="M11.7685 8.443H10.7406L4.66602 0L5.70415 0.0100133L11.7685 8.443Z" fill="url(#paint2_linear_1052_100)"/>
<path d="M7.10248 8.443H6.06434L0 0L1.03813 0.0100133L7.10248 8.443Z" fill="url(#paint3_linear_1052_100)"/>
<path d="M9.43646 8.443H8.4086L2.33398 0L3.37212 0.0100133L9.43646 8.443Z" fill="url(#paint4_linear_1052_100)"/>
</g>
<path d="M39.5185 13.8823H36.9277V19.5054H33.6758V4.14477H39.5402C41.4046 4.14477 42.8427 4.54918 43.8544 5.35801C44.8662 6.16683 45.372 7.30973 45.372 8.78671C45.372 9.83467 45.1372 10.7103 44.6674 11.4136C44.2049 12.1099 43.5003 12.6656 42.5536 13.0805L45.9682 19.3577V19.5054H42.4778L39.5185 13.8823ZM36.9277 11.3187H39.551C40.3676 11.3187 40.9999 11.1182 41.448 10.7173C41.896 10.3094 42.1201 9.75027 42.1201 9.03991C42.1201 8.31549 41.9069 7.74579 41.4805 7.33083C41.0614 6.91587 40.4146 6.70839 39.5402 6.70839H36.9277V11.3187Z" fill="white"/>
<path d="M50.9546 19.5054H47.811V8.09042H50.9546V19.5054ZM47.6267 5.13646C47.6267 4.6793 47.7821 4.30302 48.0928 4.00762C48.4108 3.71223 48.8408 3.56453 49.3828 3.56453C49.9175 3.56453 50.3439 3.71223 50.6619 4.00762C50.9799 4.30302 51.1388 4.6793 51.1388 5.13646C51.1388 5.60065 50.9762 5.98045 50.651 6.27585C50.3331 6.57124 49.9103 6.71894 49.3828 6.71894C48.8552 6.71894 48.4289 6.57124 48.1037 6.27585C47.7857 5.98045 47.6267 5.60065 47.6267 5.13646Z" fill="white"/>
<path d="M53.09 13.7135C53.09 11.9622 53.5164 10.5521 54.3691 9.48301C55.2291 8.41395 56.3853 7.87943 57.8379 7.87943C59.1242 7.87943 60.1251 8.30845 60.8405 9.16651L60.9706 8.09042H63.8107V19.1256C63.8107 20.1243 63.5758 20.9929 63.1061 21.7314C62.6436 22.4699 61.9896 23.0326 61.1441 23.4194C60.2985 23.8062 59.3085 23.9996 58.1739 23.9996C57.314 23.9996 56.4757 23.8308 55.6591 23.4932C54.8425 23.1627 54.2246 22.7336 53.8055 22.2062L55.193 20.3494C55.9734 21.2004 56.9201 21.6259 58.033 21.6259C58.8641 21.6259 59.5108 21.4079 59.9733 20.9718C60.4358 20.5428 60.6671 19.9309 60.6671 19.1361V18.5242C59.9444 19.319 58.9941 19.7164 57.8162 19.7164C56.407 19.7164 55.2652 19.1819 54.3908 18.1128C53.5236 17.0367 53.09 15.6125 53.09 13.8401V13.7135ZM56.2227 13.9351C56.2227 14.9689 56.4359 15.7813 56.8623 16.3721C57.2887 16.9558 57.874 17.2477 58.6184 17.2477C59.5723 17.2477 60.2552 16.8996 60.6671 16.2033V11.4031C60.248 10.7068 59.5723 10.3586 58.64 10.3586C57.8885 10.3586 57.2959 10.6576 56.8623 11.2554C56.4359 11.8532 56.2227 12.7464 56.2227 13.9351Z" fill="white"/>
<path d="M71.6262 19.7164C69.9063 19.7164 68.5043 19.203 67.4203 18.1761C66.3436 17.1492 65.8052 15.7813 65.8052 14.0722V13.7768C65.8052 12.6304 66.0328 11.607 66.4881 10.7068C66.9434 9.7995 67.5866 9.10321 68.4176 8.61792C69.2559 8.12559 70.2098 7.87943 71.2794 7.87943C72.8837 7.87943 74.1447 8.37175 75.0625 9.35641C75.9875 10.3411 76.45 11.7372 76.45 13.5447V14.7896H68.9813C69.0825 15.5351 69.386 16.1329 69.8918 16.5831C70.4049 17.0332 71.0517 17.2583 71.8322 17.2583C73.039 17.2583 73.9821 16.8328 74.6614 15.9817L76.2007 17.6592C75.7309 18.3062 75.095 18.8126 74.2928 19.1783C73.4907 19.537 72.6018 19.7164 71.6262 19.7164ZM71.2685 10.3481C70.647 10.3481 70.1412 10.5521 69.7509 10.96C69.3679 11.3679 69.1222 11.9517 69.0138 12.7113H73.3714V12.4686C73.357 11.7934 73.1691 11.273 72.8078 10.9072C72.4464 10.5345 71.9334 10.3481 71.2685 10.3481Z" fill="white"/>
<path d="M81.5447 19.5054H78.4012V3.30078H81.5447V19.5054Z" fill="white"/>
<path d="M93.1217 14.0933V19.5054H89.8698V4.14477H96.0268C97.212 4.14477 98.2526 4.35577 99.1487 4.77776C100.052 5.19976 100.746 5.8011 101.23 6.58179C101.714 7.35545 101.956 8.23812 101.956 9.22981C101.956 10.7349 101.425 11.9235 100.363 12.7957C99.3077 13.6608 97.8443 14.0933 95.9726 14.0933H93.1217ZM93.1217 11.5297H96.0268C96.8868 11.5297 97.5408 11.3328 97.9888 10.9389C98.4441 10.545 98.6717 9.98237 98.6717 9.25091C98.6717 8.49835 98.4441 7.88998 97.9888 7.42578C97.5336 6.96159 96.9048 6.72246 96.1027 6.70839H93.1217V11.5297Z" fill="white"/>
<path d="M110.585 10.9494C110.158 10.8932 109.783 10.865 109.457 10.865C108.272 10.865 107.495 11.2554 107.127 12.0361V19.5054H103.994V8.09042H106.953L107.04 9.45136C107.669 8.4034 108.54 7.87943 109.653 7.87943C109.999 7.87943 110.325 7.92514 110.628 8.01657L110.585 10.9494Z" fill="white"/>
<path d="M111.224 13.6924C111.224 12.5601 111.448 11.5508 111.896 10.6646C112.344 9.7784 112.988 9.09266 113.826 8.60737C114.671 8.12207 115.651 7.87943 116.764 7.87943C118.346 7.87943 119.636 8.35065 120.633 9.29311C121.638 10.2356 122.198 11.5156 122.314 13.1333L122.335 13.914C122.335 15.6652 121.833 17.0719 120.828 18.1339C119.824 19.1889 118.476 19.7164 116.785 19.7164C115.094 19.7164 113.743 19.1889 112.731 18.1339C111.727 17.0789 111.224 15.6441 111.224 13.8296V13.6924ZM114.357 13.914C114.357 14.9971 114.567 15.827 114.986 16.4037C115.405 16.9734 116.005 17.2583 116.785 17.2583C117.544 17.2583 118.137 16.9769 118.563 16.4143C118.989 15.8446 119.202 14.9373 119.202 13.6924C119.202 12.6304 118.989 11.8075 118.563 11.2237C118.137 10.64 117.537 10.3481 116.764 10.3481C115.997 10.3481 115.405 10.64 114.986 11.2237C114.567 11.8005 114.357 12.6972 114.357 13.914Z" fill="white"/>
<path d="M128.015 5.28416V8.09042H130.021V10.327H128.015V16.0239C128.015 16.4459 128.098 16.7484 128.265 16.9312C128.431 17.1141 128.749 17.2055 129.219 17.2055C129.565 17.2055 129.873 17.1809 130.14 17.1317V19.4421C129.526 19.625 128.893 19.7164 128.243 19.7164C126.046 19.7164 124.926 18.6368 124.883 16.4776V10.327H123.17V8.09042H124.883V5.28416H128.015Z" fill="white"/>
<path d="M130.953 13.6924C130.953 12.5601 131.177 11.5508 131.625 10.6646C132.073 9.7784 132.716 9.09266 133.554 8.60737C134.4 8.12207 135.379 7.87943 136.492 7.87943C138.075 7.87943 139.365 8.35065 140.362 9.29311C141.366 10.2356 141.927 11.5156 142.042 13.1333L142.064 13.914C142.064 15.6652 141.562 17.0719 140.557 18.1339C139.553 19.1889 138.205 19.7164 136.514 19.7164C134.823 19.7164 133.471 19.1889 132.46 18.1339C131.455 17.0789 130.953 15.6441 130.953 13.8296V13.6924ZM134.086 13.914C134.086 14.9971 134.295 15.827 134.714 16.4037C135.134 16.9734 135.733 17.2583 136.514 17.2583C137.273 17.2583 137.865 16.9769 138.292 16.4143C138.718 15.8446 138.931 14.9373 138.931 13.6924C138.931 12.6304 138.718 11.8075 138.292 11.2237C137.865 10.64 137.265 10.3481 136.492 10.3481C135.726 10.3481 135.134 10.64 134.714 11.2237C134.295 11.8005 134.086 12.6972 134.086 13.914Z" fill="white"/>
<path d="M148.871 17.2583C149.449 17.2583 149.919 17.1035 150.28 16.7941C150.642 16.4846 150.83 16.0732 150.844 15.5597H153.782C153.775 16.3334 153.558 17.0437 153.131 17.6908C152.705 18.3308 152.12 18.8302 151.375 19.1889C150.638 19.5406 149.822 19.7164 148.925 19.7164C147.249 19.7164 145.926 19.1994 144.958 18.1656C143.99 17.1246 143.506 15.6898 143.506 13.8612V13.6608C143.506 11.9024 143.986 10.4993 144.947 9.45136C145.908 8.4034 147.227 7.87943 148.904 7.87943C150.371 7.87943 151.545 8.28735 152.427 9.10321C153.316 9.91203 153.767 10.9916 153.782 12.342H150.844C150.83 11.7512 150.642 11.273 150.28 10.9072C149.919 10.5345 149.442 10.3481 148.85 10.3481C148.12 10.3481 147.567 10.6083 147.191 11.1288C146.823 11.6422 146.638 12.4792 146.638 13.6397V13.9562C146.638 15.1307 146.823 15.9747 147.191 16.4881C147.56 17.0015 148.12 17.2583 148.871 17.2583Z" fill="white"/>
<path d="M155.083 13.6924C155.083 12.5601 155.307 11.5508 155.755 10.6646C156.203 9.7784 156.846 9.09266 157.684 8.60737C158.53 8.12207 159.509 7.87943 160.622 7.87943C162.204 7.87943 163.494 8.35065 164.492 9.29311C165.496 10.2356 166.056 11.5156 166.172 13.1333L166.193 13.914C166.193 15.6652 165.691 17.0719 164.687 18.1339C163.682 19.1889 162.334 19.7164 160.643 19.7164C158.952 19.7164 157.601 19.1889 156.589 18.1339C155.585 17.0789 155.083 15.6441 155.083 13.8296V13.6924ZM158.215 13.914C158.215 14.9971 158.425 15.827 158.844 16.4037C159.263 16.9734 159.863 17.2583 160.643 17.2583C161.402 17.2583 161.995 16.9769 162.421 16.4143C162.847 15.8446 163.061 14.9373 163.061 13.6924C163.061 12.6304 162.847 11.8075 162.421 11.2237C161.995 10.64 161.395 10.3481 160.622 10.3481C159.856 10.3481 159.263 10.64 158.844 11.2237C158.425 11.8005 158.215 12.6972 158.215 13.914Z" fill="white"/>
<path d="M171.429 19.5054H168.285V3.30078H171.429V19.5054Z" fill="white"/>
</g>
<defs>
<linearGradient id="paint0_linear_1052_100" x1="30.6858" y1="18.974" x2="1.5113" y2="19.394" gradientUnits="userSpaceOnUse">
<stop stop-color="#40BAD5"/>
<stop offset="1" stop-color="#035AA6"/>
</linearGradient>
<linearGradient id="paint1_linear_1052_100" x1="18.2991" y1="16.52" x2="12.9141" y2="0.120958" gradientUnits="userSpaceOnUse">
<stop stop-color="#40BAD5"/>
<stop offset="1" stop-color="#035AA6"/>
</linearGradient>
<linearGradient id="paint2_linear_1052_100" x1="16.2022" y1="15.8802" x2="5.31348" y2="-0.901919" gradientUnits="userSpaceOnUse">
<stop stop-color="#40BAD5"/>
<stop offset="1" stop-color="#035AA6"/>
</linearGradient>
<linearGradient id="paint3_linear_1052_100" x1="12.97" y1="17.9776" x2="2.08123" y2="1.19555" gradientUnits="userSpaceOnUse">
<stop stop-color="#40BAD5"/>
<stop offset="1" stop-color="#035AA6"/>
</linearGradient>
<linearGradient id="paint4_linear_1052_100" x1="14.5871" y1="16.9289" x2="3.69832" y2="0.146817" gradientUnits="userSpaceOnUse">
<stop stop-color="#40BAD5"/>
<stop offset="1" stop-color="#035AA6"/>
</linearGradient>
<clipPath id="clip0_1052_100">
<rect width="171.428" height="24" fill="white"/>
</clipPath>
<clipPath id="clip1_1052_100">
<rect width="23.3837" height="22.6681" fill="white"/>
</clipPath>
</defs>
</svg>
