<svg width="64" height="24" viewBox="0 0 64 24" fill="none" xmlns="http://www.w3.org/2000/svg">
<path d="M11.1352 3.68742C11.5718 3.43533 12.1098 3.43533 12.5464 3.68742L18.6869 7.23261C19.1235 7.4847 19.3925 7.95062 19.3925 8.45485V15.5452C19.3925 16.0495 19.1235 16.5154 18.6869 16.7674L12.5464 20.3127C12.1098 20.5647 11.5718 20.5647 11.1352 20.3127L4.99473 16.7674C4.55807 16.5154 4.28906 16.0495 4.28906 15.5452V8.45485C4.28906 7.95062 4.55807 7.4847 4.99473 7.23261L11.1352 3.68742Z" fill="#FDEB64"/>
<path d="M11.6766 4.99641C11.8014 4.92437 11.955 4.92437 12.0798 4.99641L17.8752 8.34233C18 8.41436 18.0768 8.54748 18.0768 8.69154V15.3834C18.0768 15.5274 18 15.6606 17.8752 15.7326L12.0798 19.0786C11.955 19.1506 11.8014 19.1506 11.6766 19.0786L5.8813 15.7326C5.75655 15.6606 5.67969 15.5274 5.67969 15.3834V8.69154C5.67969 8.54748 5.75655 8.41436 5.8813 8.34233L11.6766 4.99641Z" fill="#FED443"/>
<path d="M15.1897 15.328H13.1721L11.8281 13.3306L13.7996 13.3694L15.1897 15.328Z" fill="#D5840E"/>
<path d="M15.1949 11.2909C15.1949 11.9554 14.9254 12.559 14.4898 12.9947C14.0541 13.4303 13.4523 13.6998 12.7859 13.6998H12.0899L10.9787 12.1123H12.771C12.9963 12.1123 13.2013 12.02 13.349 11.8723C13.4966 11.7247 13.5888 11.5197 13.5888 11.2945C13.5888 10.8441 13.2234 10.4768 12.771 10.4768H11.8019L10.724 8.94277L10.6797 8.88H12.7859C14.1168 8.88184 15.1949 9.95991 15.1949 11.2909Z" fill="#D5840E"/>
<path d="M11.9815 11.2834H11.6974L10.0156 8.88367L10.3036 8.88551L11.9815 11.2834Z" fill="#D5840E"/>
<path d="M10.6847 11.2834H10.4005L8.71875 8.88367L9.00675 8.88551L10.6847 11.2834Z" fill="#D5840E"/>
<path d="M11.3331 11.2834H11.049L9.36719 8.88367L9.65519 8.88551L11.3331 11.2834Z" fill="#D5840E"/>
<path d="M23.0553 11.8656C23.04 11.1386 23.2985 10.5165 23.831 9.99938C24.3686 9.48226 25.0137 9.22882 25.7664 9.23906C26.6726 9.23906 27.3843 9.60514 27.9014 10.3373L27.1641 10.944C26.8057 10.4474 26.3347 10.1991 25.751 10.1991C25.2697 10.1991 24.8781 10.3552 24.576 10.6675C24.2739 10.9799 24.1229 11.3792 24.1229 11.8656C24.1229 12.3623 24.279 12.7693 24.5913 13.0867C24.9037 13.4042 25.3107 13.5629 25.8125 13.5629C26.4013 13.5629 26.8467 13.353 27.1488 12.9331V12.5184H25.751V11.6199H28.1856V13.1175C27.9501 13.5322 27.6198 13.865 27.1949 14.1159C26.775 14.3667 26.2989 14.4922 25.7664 14.4922C25.024 14.5075 24.384 14.2567 23.8464 13.7395C23.3088 13.2173 23.0451 12.5927 23.0553 11.8656ZM28.7928 11.8656C28.7825 11.1437 29.0437 10.5216 29.5761 9.99938C30.1137 9.47714 30.7486 9.2237 31.4808 9.23906C32.2129 9.2237 32.8478 9.47714 33.3854 9.99938C33.9281 10.5216 34.1944 11.1437 34.1841 11.8656C34.1944 12.5875 33.9281 13.2096 33.3854 13.7319C32.8478 14.2541 32.2129 14.5075 31.4808 14.4922C30.7486 14.5075 30.1137 14.2541 29.5761 13.7319C29.0437 13.2096 28.7825 12.5875 28.7928 11.8656ZM33.1166 11.8656C33.1166 11.3843 32.9605 10.9875 32.6481 10.6752C32.3409 10.3578 31.9544 10.1991 31.4885 10.1991C31.0174 10.1991 30.6283 10.3552 30.3211 10.6675C30.0139 10.9799 29.8603 11.3792 29.8603 11.8656C29.8603 12.352 30.0139 12.7514 30.3211 13.0637C30.6283 13.376 31.0174 13.5322 31.4885 13.5322C31.9544 13.5322 32.3409 13.376 32.6481 13.0637C32.9605 12.7514 33.1166 12.352 33.1166 11.8656ZM35.0622 14.4V9.33122H36.099V13.4631H38.3185V14.4H35.0622ZM39.0897 14.4V9.33122H40.7486C41.5576 9.32098 42.2232 9.55394 42.7454 10.0301C43.2677 10.5011 43.5237 11.1079 43.5134 11.8503C43.5237 12.5875 43.2651 13.1994 42.7377 13.6858C42.2104 14.1722 41.5473 14.4103 40.7486 14.4H39.0897ZM40.1265 13.4631H40.7409C41.2529 13.4631 41.6651 13.3171 41.9774 13.0253C42.2897 12.7283 42.4459 12.3367 42.4459 11.8503C42.4459 11.3587 42.2923 10.9722 41.9851 10.6906C41.6779 10.409 41.2632 10.2682 40.7409 10.2682H40.1265V13.4631Z" fill="#D4840E"/>
<path d="M62.0803 0.320007H1.92031C1.03666 0.320007 0.320312 1.03635 0.320312 1.92001V22.08C0.320312 22.9637 1.03666 23.68 1.92031 23.68H62.0803C62.964 23.68 63.6803 22.9637 63.6803 22.08V1.92001C63.6803 1.03635 62.964 0.320007 62.0803 0.320007Z" stroke="#D4840E" stroke-width="2"/>
</svg>
