<svg width="16" height="16" viewBox="0 0 16 16" fill="none" xmlns="http://www.w3.org/2000/svg">
<path d="M8.0026 15.1667C4.04927 15.1667 0.835938 11.9534 0.835938 8.00004C0.835938 4.04671 4.04927 0.833374 8.0026 0.833374C11.9559 0.833374 15.1693 4.04671 15.1693 8.00004C15.1693 11.9534 11.9559 15.1667 8.0026 15.1667ZM8.0026 1.83337C4.6026 1.83337 1.83594 4.60004 1.83594 8.00004C1.83594 11.4 4.6026 14.1667 8.0026 14.1667C11.4026 14.1667 14.1693 11.4 14.1693 8.00004C14.1693 4.60004 11.4026 1.83337 8.0026 1.83337Z" fill="#D7A500"/>
<path d="M8 9.16671C7.72667 9.16671 7.5 8.94004 7.5 8.66671V5.33337C7.5 5.06004 7.72667 4.83337 8 4.83337C8.27333 4.83337 8.5 5.06004 8.5 5.33337V8.66671C8.5 8.94004 8.27333 9.16671 8 9.16671Z" fill="#D7A500"/>
<path d="M8.0026 11.3333C7.91594 11.3333 7.82927 11.3133 7.74927 11.28C7.66927 11.2466 7.59594 11.2 7.52927 11.14C7.46927 11.0733 7.4226 11.0066 7.38927 10.92C7.35594 10.84 7.33594 10.7533 7.33594 10.6666C7.33594 10.58 7.35594 10.4933 7.38927 10.4133C7.4226 10.3333 7.46927 10.26 7.52927 10.1933C7.59594 10.1333 7.66927 10.0866 7.74927 10.0533C7.90927 9.98663 8.09594 9.98663 8.25594 10.0533C8.33594 10.0866 8.40927 10.1333 8.47594 10.1933C8.53594 10.26 8.5826 10.3333 8.61594 10.4133C8.64927 10.4933 8.66927 10.58 8.66927 10.6666C8.66927 10.7533 8.64927 10.84 8.61594 10.92C8.5826 11.0066 8.53594 11.0733 8.47594 11.14C8.40927 11.2 8.33594 11.2466 8.25594 11.28C8.17594 11.3133 8.08927 11.3333 8.0026 11.3333Z" fill="#D7A500"/>
</svg>
