<svg width="71" height="24" viewBox="0 0 71 24" fill="none" xmlns="http://www.w3.org/2000/svg">
<path d="M11.057 3.68741C11.4937 3.43531 12.0317 3.43531 12.4683 3.68741L18.6088 7.23259C19.0454 7.48469 19.3144 7.95061 19.3144 8.45483V15.5452C19.3144 16.0494 19.0454 16.5154 18.6088 16.7674L12.4683 20.3126C12.0317 20.5646 11.4937 20.5646 11.057 20.3126L4.9166 16.7674C4.47995 16.5154 4.21094 16.0494 4.21094 15.5452V8.45483C4.21094 7.95061 4.47995 7.48469 4.9166 7.23259L11.057 3.68741Z" fill="#98CEFA"/>
<path d="M11.5985 4.99641C11.7233 4.92437 11.877 4.92437 12.0017 4.99641L17.7971 8.34233C17.9219 8.41436 17.9987 8.54748 17.9987 8.69154V15.3834C17.9987 15.5274 17.9219 15.6606 17.7971 15.7326L12.0017 19.0786C11.877 19.1506 11.7233 19.1506 11.5985 19.0786L5.80318 15.7326C5.67843 15.6606 5.60156 15.5274 5.60156 15.3834V8.69154C5.60156 8.54748 5.67843 8.41436 5.80318 8.34233L11.5985 4.99641Z" fill="#53AEF7"/>
<path d="M15.1115 15.168H13.0939L11.75 13.1707L13.7215 13.2094L15.1115 15.168Z" fill="#2169A4"/>
<path d="M15.109 11.1308C15.109 11.7954 14.8395 12.399 14.4038 12.8347C13.9682 13.2703 13.3664 13.5398 12.7 13.5398H12.0041L10.8928 11.9523H12.6852C12.9105 11.9523 13.1153 11.86 13.263 11.7123C13.4107 11.5647 13.503 11.3597 13.503 11.1345C13.503 10.6841 13.1375 10.3168 12.6852 10.3168H11.7161L10.6381 8.78277L10.5938 8.72H12.7C14.031 8.72184 15.109 9.79991 15.109 11.1308Z" fill="#2169A4"/>
<path d="M11.8956 11.1235H11.6114L9.92969 8.72369L10.2177 8.72553L11.8956 11.1235Z" fill="#2169A4"/>
<path d="M10.6066 11.1235H10.3223L8.64062 8.72369L8.92859 8.72553L10.6066 11.1235Z" fill="#2169A4"/>
<path d="M11.255 11.1235H10.9707L9.28906 8.72369L9.57703 8.72553L11.255 11.1235Z" fill="#2169A4"/>
<path d="M24.2656 14.4V9.3312H25.3024V13.463H27.5219V14.4H24.2656ZM28.2931 14.4V9.3312H31.7031V10.2682H29.3299V11.2973H31.0733V12.1805H29.3299V13.463H31.7952V14.4H28.2931ZM32.2912 11.8656C32.2759 11.1386 32.5344 10.5165 33.0669 9.99936C33.6045 9.48224 34.2496 9.2288 35.0023 9.23904C35.9085 9.23904 36.6202 9.60512 37.1373 10.3373L36.4 10.944C36.0416 10.4474 35.5706 10.199 34.9869 10.199C34.5056 10.199 34.1139 10.3552 33.8119 10.6675C33.5098 10.9798 33.3587 11.3792 33.3587 11.8656C33.3587 12.3622 33.5149 12.7693 33.8272 13.0867C34.1396 13.4042 34.5466 13.5629 35.0483 13.5629C35.6371 13.5629 36.0826 13.353 36.3847 12.9331V12.5184H34.9869V11.6198H37.4215V13.1174C37.186 13.5322 36.8557 13.865 36.4308 14.1158C36.0109 14.3667 35.5348 14.4922 35.0023 14.4922C34.2599 14.5075 33.6199 14.2566 33.0823 13.7395C32.5447 13.2173 32.281 12.5926 32.2912 11.8656ZM38.3207 14.4V9.3312H41.7306V10.2682H39.3575V11.2973H41.1008V12.1805H39.3575V13.463H41.8228V14.4H38.3207ZM46.0024 9.3312H47.0392V14.4922H46.6936L43.7599 11.3587V14.4H42.7231V9.23904H43.061L46.0024 12.3571V9.3312ZM48.1981 14.4V9.3312H49.857C50.666 9.32096 51.3316 9.55392 51.8538 10.0301C52.376 10.5011 52.632 11.1078 52.6218 11.8502C52.632 12.5875 52.3735 13.1994 51.8461 13.6858C51.3188 14.1722 50.6557 14.4102 49.857 14.4H48.1981ZM49.2349 13.463H49.8493C50.3613 13.463 50.7735 13.3171 51.0858 13.0253C51.3981 12.7283 51.5543 12.3366 51.5543 11.8502C51.5543 11.3587 51.4007 10.9722 51.0935 10.6906C50.7863 10.409 50.3716 10.2682 49.8493 10.2682H49.2349V13.463ZM56.6599 14.4L56.3757 13.7395H54.3021L54.018 14.4H52.9044L55.17 9.23904H55.5156L57.7735 14.4H56.6599ZM56.0148 12.887L55.3389 11.1744L54.6631 12.887H56.0148ZM62.7434 14.4H61.576L60.2628 12.6106H59.5024V14.4H58.4656V9.3312H60.3703C60.9028 9.3312 61.3405 9.48224 61.6836 9.78432C62.0266 10.0864 62.1981 10.4806 62.1981 10.967C62.1981 11.2845 62.1188 11.5712 61.96 11.8272C61.8064 12.0781 61.5888 12.2726 61.3072 12.4109L62.7434 14.4ZM59.5024 10.2451V11.6966H60.3703C60.6109 11.6966 60.7978 11.6301 60.9309 11.497C61.0692 11.3638 61.1383 11.1872 61.1383 10.967C61.1383 10.752 61.0666 10.5779 60.9232 10.4448C60.785 10.3117 60.6007 10.2451 60.3703 10.2451H59.5024ZM67.1863 9.3312L65.4429 12.4032V14.4H64.4061V12.4109L62.6551 9.3312H63.8071L64.9284 11.3434L66.042 9.3312H67.1863Z" fill="#2169A4"/>
<path d="M68.4803 0.320007H1.92031C1.03666 0.320007 0.320312 1.03635 0.320312 1.92001V22.08C0.320312 22.9637 1.03666 23.68 1.92031 23.68H68.4803C69.364 23.68 70.0803 22.9637 70.0803 22.08V1.92001C70.0803 1.03635 69.364 0.320007 68.4803 0.320007Z" stroke="#2169A4" stroke-width="2"/>
</svg>
