<svg width="25" height="24" viewBox="0 0 25 24" fill="none" xmlns="http://www.w3.org/2000/svg">
<path d="M13.0022 14.75H10.5022C10.0922 14.75 9.75219 14.41 9.75219 14C9.75219 13.59 10.0922 13.25 10.5022 13.25H13.0022C15.6222 13.25 17.7522 11.12 17.7522 8.5C17.7522 5.88 15.6222 3.75 13.0022 3.75H8.00219C5.38219 3.75 3.25219 5.88 3.25219 8.5C3.25219 9.6 3.64219 10.67 4.34219 11.52C4.60219 11.84 4.56219 12.31 4.24219 12.58C3.92219 12.84 3.45219 12.8 3.18219 12.48C2.25219 11.36 1.74219 9.95 1.74219 8.5C1.74219 5.05 4.54219 2.25 7.99219 2.25H12.9922C16.4422 2.25 19.2422 5.05 19.2422 8.5C19.2422 11.95 16.4522 14.75 13.0022 14.75Z" fill="#0760A8"/>
<path d="M17 21.75H12C8.55 21.75 5.75 18.95 5.75 15.5C5.75 12.05 8.55 9.25 12 9.25H14.5C14.91 9.25 15.25 9.59 15.25 10C15.25 10.41 14.91 10.75 14.5 10.75H12C9.38 10.75 7.25 12.88 7.25 15.5C7.25 18.12 9.38 20.25 12 20.25H17C19.62 20.25 21.75 18.12 21.75 15.5C21.75 14.4 21.36 13.33 20.66 12.48C20.4 12.16 20.44 11.69 20.76 11.42C21.08 11.15 21.55 11.2 21.82 11.52C22.75 12.64 23.26 14.05 23.26 15.5C23.25 18.95 20.45 21.75 17 21.75Z" fill="#0760A8"/>
</svg>
