<svg width="21" height="22" viewBox="0 0 21 22" fill="none" xmlns="http://www.w3.org/2000/svg">
<path d="M10.0013 21.0083C9.4263 21.0083 8.88464 20.7166 8.5013 20.2083L7.2513 18.5416C7.2263 18.5083 7.1263 18.4666 7.08464 18.4583H6.66797C3.19297 18.4583 1.04297 17.5166 1.04297 12.8333V8.66663C1.04297 4.98329 2.98464 3.04163 6.66797 3.04163H13.3346C17.018 3.04163 18.9596 4.98329 18.9596 8.66663V12.8333C18.9596 16.5166 17.018 18.4583 13.3346 18.4583H12.918C12.8513 18.4583 12.793 18.4916 12.7513 18.5416L11.5013 20.2083C11.118 20.7166 10.5763 21.0083 10.0013 21.0083ZM6.66797 4.29163C3.68464 4.29163 2.29297 5.68329 2.29297 8.66663V12.8333C2.29297 16.6 3.58464 17.2083 6.66797 17.2083H7.08464C7.50964 17.2083 7.99297 17.45 8.2513 17.7916L9.5013 19.4583C9.79297 19.8416 10.2096 19.8416 10.5013 19.4583L11.7513 17.7916C12.0263 17.425 12.4596 17.2083 12.918 17.2083H13.3346C16.318 17.2083 17.7096 15.8166 17.7096 12.8333V8.66663C17.7096 5.68329 16.318 4.29163 13.3346 4.29163H6.66797Z" fill="#319EF6"/>
<path d="M14.1654 9.29163H5.83203C5.49036 9.29163 5.20703 9.00829 5.20703 8.66663C5.20703 8.32496 5.49036 8.04163 5.83203 8.04163H14.1654C14.507 8.04163 14.7904 8.32496 14.7904 8.66663C14.7904 9.00829 14.507 9.29163 14.1654 9.29163Z" fill="#319EF6"/>
<path d="M10.832 13.4584H5.83203C5.49036 13.4584 5.20703 13.175 5.20703 12.8334C5.20703 12.4917 5.49036 12.2084 5.83203 12.2084H10.832C11.1737 12.2084 11.457 12.4917 11.457 12.8334C11.457 13.175 11.1737 13.4584 10.832 13.4584Z" fill="#319EF6"/>
<circle cx="17" cy="4" r="3.5" fill="#CC334F" stroke="#EBF6FE"/>
</svg>
