<svg width="16" height="16" viewBox="0 0 16 16" fill="none" xmlns="http://www.w3.org/2000/svg">
<path d="M12 7.16634C11.7267 7.16634 11.5 6.93967 11.5 6.66634V5.33301C11.5 3.23301 10.9067 1.83301 8 1.83301C5.09333 1.83301 4.5 3.23301 4.5 5.33301V6.66634C4.5 6.93967 4.27333 7.16634 4 7.16634C3.72667 7.16634 3.5 6.93967 3.5 6.66634V5.33301C3.5 3.39967 3.96667 0.833008 8 0.833008C12.0333 0.833008 12.5 3.39967 12.5 5.33301V6.66634C12.5 6.93967 12.2733 7.16634 12 7.16634Z" fill="#999999"/>
<path d="M8.0026 12.8333C6.80927 12.8333 5.83594 11.86 5.83594 10.6667C5.83594 9.47333 6.80927 8.5 8.0026 8.5C9.19594 8.5 10.1693 9.47333 10.1693 10.6667C10.1693 11.86 9.19594 12.8333 8.0026 12.8333ZM8.0026 9.5C7.3626 9.5 6.83594 10.0267 6.83594 10.6667C6.83594 11.3067 7.3626 11.8333 8.0026 11.8333C8.6426 11.8333 9.16927 11.3067 9.16927 10.6667C9.16927 10.0267 8.6426 9.5 8.0026 9.5Z" fill="#999999"/>
<path d="M11.3359 15.167H4.66927C1.72927 15.167 0.835938 14.2737 0.835938 11.3337V10.0003C0.835938 7.06033 1.72927 6.16699 4.66927 6.16699H11.3359C14.2759 6.16699 15.1693 7.06033 15.1693 10.0003V11.3337C15.1693 14.2737 14.2759 15.167 11.3359 15.167ZM4.66927 7.16699C2.2826 7.16699 1.83594 7.62033 1.83594 10.0003V11.3337C1.83594 13.7137 2.2826 14.167 4.66927 14.167H11.3359C13.7226 14.167 14.1693 13.7137 14.1693 11.3337V10.0003C14.1693 7.62033 13.7226 7.16699 11.3359 7.16699H4.66927Z" fill="#999999"/>
</svg>
