<svg width="18" height="18" viewBox="0 0 18 18" fill="none" xmlns="http://www.w3.org/2000/svg">
<path d="M15.6693 14.8333C15.6693 13.9129 14.9231 13.1667 14.0026 13.1667C13.0821 13.1667 12.3359 13.9129 12.3359 14.8333C12.3359 15.7538 13.0821 16.5 14.0026 16.5C14.9231 16.5 15.6693 15.7538 15.6693 14.8333Z" stroke="#CCCCCC" stroke-width="1.25" stroke-linecap="round" stroke-linejoin="round"/>
<path d="M5.66927 3.16634C5.66927 2.24587 4.92308 1.49967 4.0026 1.49967C3.08213 1.49967 2.33594 2.24587 2.33594 3.16634C2.33594 4.08682 3.08213 4.83301 4.0026 4.83301C4.92308 4.83301 5.66927 4.08682 5.66927 3.16634Z" stroke="#CCCCCC" stroke-width="1.25" stroke-linecap="round" stroke-linejoin="round"/>
<path d="M5.66406 3.16634H9.83073C10.9358 3.16634 11.9956 3.60533 12.777 4.38673C13.5584 5.16813 13.9974 6.22794 13.9974 7.33301V9.83301M13.9974 9.83301L11.4974 7.33301M13.9974 9.83301L16.4974 7.33301" stroke="#CCCCCC" stroke-width="1.25" stroke-linecap="round" stroke-linejoin="round"/>
<path d="M12.3333 14.833H8.16667C7.0616 14.833 6.00179 14.394 5.22039 13.6126C4.43899 12.8312 4 11.7714 4 10.6663V8.16634M4 8.16634L1.5 10.6663M4 8.16634L6.5 10.6663" stroke="#CCCCCC" stroke-width="1.25" stroke-linecap="round" stroke-linejoin="round"/>
</svg>
