<svg width="72" height="24" viewBox="0 0 72 24" fill="none" xmlns="http://www.w3.org/2000/svg">
<g clip-path="url(#clip0_5418_122163)">
<path d="M69.2772 0.320007H2.71719C1.83353 0.320007 1.11719 1.03635 1.11719 1.92001V22.08C1.11719 22.9637 1.83353 23.68 2.71719 23.68H69.2772C70.1609 23.68 70.8772 22.9637 70.8772 22.08V1.92001C70.8772 1.03635 70.1609 0.320007 69.2772 0.320007Z" fill="white"/>
<path d="M69.2772 0.320007H2.71719C1.83353 0.320007 1.11719 1.03635 1.11719 1.92001V22.08C1.11719 22.9637 1.83353 23.68 2.71719 23.68H69.2772C70.1609 23.68 70.8772 22.9637 70.8772 22.08V1.92001C70.8772 1.03635 70.1609 0.320007 69.2772 0.320007Z" stroke="#FB323E" stroke-width="2"/>
<g filter="url(#filter0_i_5418_122163)">
<path d="M24.0414 3.68736C24.4781 3.43527 25.0161 3.43527 25.4527 3.68736L31.5931 7.23255C32.0298 7.48464 32.2987 7.95056 32.2987 8.45479V15.5451C32.2987 16.0494 32.0298 16.5153 31.5931 16.7673L25.4527 20.3126C25.0161 20.5646 24.4781 20.5646 24.0414 20.3126L17.901 16.7673C17.4643 16.5153 17.1953 16.0494 17.1953 15.5451V8.45479C17.1953 7.95056 17.4643 7.48464 17.901 7.23255L24.0414 3.68736Z" fill="#FFA1A8"/>
</g>
<path d="M24.5829 4.99641C24.7076 4.92437 24.8613 4.92437 24.9861 4.99641L30.7814 8.34233C30.9062 8.41436 30.983 8.54748 30.983 8.69154V15.3834C30.983 15.5274 30.9062 15.6606 30.7814 15.7326L24.9861 19.0786C24.8613 19.1506 24.7076 19.1506 24.5829 19.0786L18.7876 15.7326C18.6628 15.6606 18.5859 15.5274 18.5859 15.3834V8.69154C18.5859 8.54748 18.6628 8.41436 18.7876 8.34233L24.5829 4.99641Z" fill="#FFA9B0"/>
<path d="M28.0959 15.168H26.0782L24.7344 13.1707L26.7059 13.2094L28.0959 15.168Z" fill="#FB323E"/>
<path d="M28.0934 11.1308C28.0934 11.7954 27.8239 12.399 27.3882 12.8347C26.9526 13.2703 26.3508 13.5398 25.6844 13.5398H24.9884L23.8772 11.9523H25.6696C25.8948 11.9523 26.0997 11.86 26.2474 11.7123C26.3951 11.5646 26.4874 11.3597 26.4874 11.1345C26.4874 10.6841 26.1219 10.3167 25.6696 10.3167H24.7005L23.6224 8.78274L23.5781 8.71997H25.6844C27.0153 8.72181 28.0934 9.79987 28.0934 11.1308Z" fill="#FB323E"/>
<path d="M24.88 11.1234H24.5957L22.9141 8.72363L23.202 8.72547L24.88 11.1234Z" fill="#FB323E"/>
<path d="M23.591 11.1234H23.3067L21.625 8.72363L21.913 8.72547L23.591 11.1234Z" fill="#FB323E"/>
<path d="M24.2394 11.1234H23.9551L22.2734 8.72363L22.5614 8.72547L24.2394 11.1234Z" fill="#FB323E"/>
<path d="M41.1092 14.382H39.9388L38.6221 12.5879H37.8598V14.382H36.8203V9.30005H38.7299C39.2638 9.30005 39.7027 9.45148 40.0466 9.75435C40.3905 10.0572 40.5625 10.4525 40.5625 10.9401C40.5625 11.2584 40.4829 11.5459 40.3238 11.8025C40.1698 12.0541 39.9516 12.2491 39.6693 12.3877L41.1092 14.382ZM37.8598 10.2163V11.6716H38.7299C38.9712 11.6716 39.1585 11.6049 39.292 11.4714C39.4306 11.338 39.4999 11.1609 39.4999 10.9401C39.4999 10.7245 39.428 10.55 39.2843 10.4165C39.1457 10.2831 38.9609 10.2163 38.7299 10.2163H37.8598Z" fill="#FB323E"/>
<path d="M41.549 12.2799V9.30005H42.5885V12.3569C42.5885 12.7214 42.6912 13.0063 42.8965 13.2116C43.1018 13.4118 43.3713 13.5119 43.705 13.5119C44.0438 13.5119 44.3133 13.4118 44.5135 13.2116C44.7188 13.0063 44.8215 12.7214 44.8215 12.3569V9.30005H45.861V12.2799C45.861 12.9421 45.6582 13.4734 45.2527 13.8738C44.8472 14.2742 44.3313 14.4744 43.705 14.4744C43.0736 14.4744 42.5551 14.2742 42.1496 13.8738C41.7492 13.4734 41.549 12.9421 41.549 12.2799Z" fill="#FB323E"/>
<path d="M50.9214 12.8882C50.9214 13.3246 50.7649 13.6839 50.4517 13.9662C50.1386 14.2434 49.7382 14.382 49.2505 14.382H46.9867V9.30005H48.7885C49.2608 9.30005 49.6458 9.43352 49.9435 9.70045C50.2464 9.96225 50.3978 10.301 50.3978 10.7168C50.3978 11.0916 50.2721 11.397 50.0205 11.6331C50.6211 11.8539 50.9214 12.2722 50.9214 12.8882ZM48.7038 10.1932H47.9877V11.3559H48.7038C48.9143 11.3559 49.076 11.3046 49.1889 11.2019C49.307 11.0993 49.366 10.9555 49.366 10.7707C49.366 10.5911 49.307 10.4499 49.1889 10.3472C49.076 10.2446 48.9143 10.1932 48.7038 10.1932ZM49.8973 12.8497C49.8973 12.6547 49.8332 12.5007 49.7048 12.3877C49.5765 12.2697 49.3994 12.2106 49.1735 12.2106H47.9877V13.4888H49.1735C49.3994 13.4888 49.5765 13.4324 49.7048 13.3194C49.8332 13.2065 49.8973 13.0499 49.8973 12.8497Z" fill="#FB323E"/>
<path d="M55.4142 9.30005L53.6663 12.38V14.382H52.6268V12.3877L50.8712 9.30005H52.0262L53.1504 11.3174L54.2669 9.30005H55.4142Z" fill="#FB323E"/>
</g>
<defs>
<filter id="filter0_i_5418_122163" x="17.1953" y="3.49829" width="15.1016" height="21.0033" filterUnits="userSpaceOnUse" color-interpolation-filters="sRGB">
<feFlood flood-opacity="0" result="BackgroundImageFix"/>
<feBlend mode="normal" in="SourceGraphic" in2="BackgroundImageFix" result="shape"/>
<feColorMatrix in="SourceAlpha" type="matrix" values="0 0 0 0 0 0 0 0 0 0 0 0 0 0 0 0 0 0 127 0" result="hardAlpha"/>
<feOffset dy="4"/>
<feGaussianBlur stdDeviation="2"/>
<feComposite in2="hardAlpha" operator="arithmetic" k2="-1" k3="1"/>
<feColorMatrix type="matrix" values="0 0 0 0 0.984314 0 0 0 0 0.196078 0 0 0 0 0.243137 0 0 0 1 0"/>
<feBlend mode="normal" in2="shape" result="effect1_innerShadow_5418_122163"/>
</filter>
<clipPath id="clip0_5418_122163">
<rect x="0.796875" width="70.4" height="24" rx="2" fill="white"/>
</clipPath>
</defs>
</svg>
