<svg width="473" height="161" viewBox="0 0 473 161" fill="none" xmlns="http://www.w3.org/2000/svg">
<g clip-path="url(#clip0_5515_120979)">
<path d="M459.454 2.14624H12.947C7.0191 2.14624 2.21362 6.95172 2.21362 12.8796V148.12C2.21362 154.047 7.0191 158.853 12.947 158.853H459.454C465.382 158.853 470.187 154.047 470.187 148.12V12.8796C470.187 6.95172 465.382 2.14624 459.454 2.14624Z" fill="#15202B"/>
<path d="M459.454 2.14624H12.947C7.0191 2.14624 2.21362 6.95172 2.21362 12.8796V148.12C2.21362 154.047 7.0191 158.853 12.947 158.853H459.454C465.382 158.853 470.187 154.047 470.187 148.12V12.8796C470.187 6.95172 465.382 2.14624 459.454 2.14624Z" stroke="#FF3358" stroke-width="13.4167"/>
<g filter="url(#filter0_i_5515_120979)">
<path d="M156.008 24.7361C158.938 23.045 162.547 23.045 165.476 24.7361L206.668 48.5184C209.597 50.2095 211.401 53.3351 211.401 56.7176V104.282C211.401 107.665 209.597 110.79 206.668 112.481L165.476 136.264C162.547 137.954 158.938 137.954 156.008 136.264L114.816 112.481C111.887 110.79 110.083 107.665 110.083 104.282V56.7176C110.083 53.3351 111.887 50.2095 114.816 48.5184L156.008 24.7361Z" fill="#FFA1A8"/>
</g>
<path d="M159.641 33.5177C160.478 33.0345 161.509 33.0345 162.346 33.5177L201.223 55.9632C202.06 56.4465 202.575 57.3395 202.575 58.3059V103.197C202.575 104.163 202.06 105.056 201.223 105.54L162.346 127.986C161.509 128.469 160.478 128.469 159.641 127.986L120.764 105.54C119.927 105.056 119.411 104.163 119.411 103.197V58.3059C119.411 57.3395 119.927 56.4465 120.764 55.9632L159.641 33.5177Z" fill="#FFA9B0"/>
<path d="M183.227 101.752H169.692L160.677 88.3533L173.902 88.6133L183.227 101.752Z" fill="#FF3358"/>
<path d="M183.228 74.6694C183.228 79.1273 181.42 83.1768 178.498 86.0993C175.575 89.0217 171.538 90.8297 167.068 90.8297H162.399L154.944 80.1799H166.969C168.479 80.1799 169.854 79.5608 170.845 78.5702C171.835 77.5795 172.455 76.2049 172.455 74.6941C172.455 71.6725 170.003 69.2082 166.969 69.2082H160.467L153.235 58.9177L152.938 58.4966H167.068C175.996 58.5089 183.228 65.7409 183.228 74.6694Z" fill="#FF3358"/>
<path d="M161.668 74.6196H159.761L148.48 58.5212L150.412 58.5336L161.668 74.6196Z" fill="#FF3358"/>
<path d="M153 74.6196H151.093L139.811 58.5212L141.743 58.5336L153 74.6196Z" fill="#FF3358"/>
<path d="M157.333 74.6196H155.426L144.145 58.5212L146.077 58.5336L157.333 74.6196Z" fill="#FF3358"/>
<path d="M270.484 96.4797H262.632L253.799 84.4443H248.685V96.4797H241.712V62.3879H254.522C258.104 62.3879 261.048 63.4038 263.355 65.4355C265.662 67.4673 266.816 70.1188 266.816 73.3903C266.816 75.5253 266.282 77.4537 265.215 79.1755C264.182 80.8629 262.718 82.1715 260.824 83.1013L270.484 96.4797ZM248.685 68.5348V78.2974H254.522C256.141 78.2974 257.398 77.8498 258.293 76.9544C259.223 76.0591 259.688 74.871 259.688 73.3903C259.688 71.944 259.206 70.7731 258.241 69.8778C257.312 68.9825 256.072 68.5348 254.522 68.5348H248.685Z" fill="#FF3358"/>
<path d="M273.434 82.3781V62.3879H280.407V82.8946C280.407 85.3396 281.096 87.2508 282.473 88.6283C283.851 89.9713 285.659 90.6428 287.897 90.6428C290.17 90.6428 291.978 89.9713 293.321 88.6283C294.698 87.2508 295.387 85.3396 295.387 82.8946V62.3879H302.36V82.3781C302.36 86.8204 301 90.3845 298.28 93.0705C295.559 95.7565 292.098 97.0995 287.897 97.0995C283.661 97.0995 280.183 95.7565 277.463 93.0705C274.777 90.3845 273.434 86.8204 273.434 82.3781Z" fill="#FF3358"/>
<path d="M336.307 86.4588C336.307 89.3859 335.257 91.7964 333.156 93.6904C331.056 95.5499 328.37 96.4797 325.098 96.4797H309.912V62.3879H321.999C325.167 62.3879 327.75 63.2833 329.747 65.074C331.779 66.8302 332.795 69.103 332.795 71.8923C332.795 74.4061 331.951 76.4551 330.264 78.0392C334.293 79.5199 336.307 82.3264 336.307 86.4588ZM321.431 68.3798H316.627V76.1796H321.431C322.843 76.1796 323.927 75.8352 324.685 75.1465C325.477 74.4578 325.873 73.4936 325.873 72.2539C325.873 71.0486 325.477 70.1016 324.685 69.4129C323.927 68.7242 322.843 68.3798 321.431 68.3798ZM329.437 86.2005C329.437 84.8919 329.007 83.8589 328.146 83.1013C327.285 82.3092 326.097 81.9132 324.582 81.9132H316.627V90.4878H324.582C326.097 90.4878 327.285 90.109 328.146 89.3514C329.007 88.5938 329.437 87.5435 329.437 86.2005Z" fill="#FF3358"/>
<path d="M366.446 62.3879L354.721 83.0496V96.4797H347.747V83.1013L335.97 62.3879H343.718L351.26 75.9213L358.75 62.3879H366.446Z" fill="#FF3358"/>
</g>
<defs>
<filter id="filter0_i_5515_120979" x="110.083" y="23.4678" width="101.319" height="140.897" filterUnits="userSpaceOnUse" color-interpolation-filters="sRGB">
<feFlood flood-opacity="0" result="BackgroundImageFix"/>
<feBlend mode="normal" in="SourceGraphic" in2="BackgroundImageFix" result="shape"/>
<feColorMatrix in="SourceAlpha" type="matrix" values="0 0 0 0 0 0 0 0 0 0 0 0 0 0 0 0 0 0 127 0" result="hardAlpha"/>
<feOffset dy="26.8333"/>
<feGaussianBlur stdDeviation="13.4167"/>
<feComposite in2="hardAlpha" operator="arithmetic" k2="-1" k3="1"/>
<feColorMatrix type="matrix" values="0 0 0 0 0.984314 0 0 0 0 0.196078 0 0 0 0 0.243137 0 0 0 1 0"/>
<feBlend mode="normal" in2="shape" result="effect1_innerShadow_5515_120979"/>
</filter>
<clipPath id="clip0_5515_120979">
<rect x="0.0664062" width="472.267" height="161" rx="13.4167" fill="white"/>
</clipPath>
</defs>
</svg>
