<svg width="473" height="161" viewBox="0 0 473 161" fill="none" xmlns="http://www.w3.org/2000/svg">
<g clip-path="url(#clip0_5515_120938)">
<path d="M459.653 2.14624H13.1465C7.21869 2.14624 2.41321 6.95172 2.41321 12.8796V148.12C2.41321 154.047 7.21869 158.853 13.1465 158.853H459.653C465.581 158.853 470.387 154.047 470.387 148.12V12.8796C470.387 6.95172 465.581 2.14624 459.653 2.14624Z" fill="#15202B"/>
<path d="M459.653 2.14624H13.1465C7.21869 2.14624 2.41321 6.95172 2.41321 12.8796V148.12C2.41321 154.047 7.21869 158.853 13.1465 158.853H459.653C465.581 158.853 470.387 154.047 470.387 148.12V12.8796C470.387 6.95172 465.581 2.14624 459.653 2.14624Z" stroke="#4F78FF" stroke-width="13.4167"/>
<g filter="url(#filter0_i_5515_120938)">
<path d="M97.1758 24.7361C100.105 23.045 103.714 23.045 106.643 24.7361L147.835 48.5184C150.765 50.2095 152.569 53.3351 152.569 56.7176V104.282C152.569 107.665 150.765 110.79 147.835 112.481L106.643 136.264C103.714 137.954 100.105 137.954 97.1758 136.264L55.9838 112.481C53.0546 110.79 51.25 107.665 51.25 104.282V56.7176C51.25 53.3351 53.0546 50.2095 55.9838 48.5184L97.1758 24.7361Z" fill="#8FB8FF"/>
</g>
<path d="M100.809 33.5177C101.646 33.0345 102.677 33.0345 103.514 33.5177L142.391 55.9632C143.228 56.4465 143.743 57.3395 143.743 58.3059V103.197C143.743 104.163 143.228 105.056 142.391 105.54L103.514 127.986C102.677 128.469 101.646 128.469 100.809 127.986L61.9321 105.54C61.0952 105.056 60.5796 104.163 60.5796 103.197V58.3059C60.5796 57.3395 61.0952 56.4465 61.9321 55.9632L100.809 33.5177Z" fill="#D5DEF9"/>
<path d="M124.396 101.752H110.861L101.846 88.3533L115.071 88.6133L124.396 101.752Z" fill="#4F78FF"/>
<path d="M124.396 74.6694C124.396 79.1273 122.588 83.1768 119.666 86.0993C116.743 89.0217 112.706 90.8297 108.236 90.8297H103.567L96.1126 80.1799H108.137C109.648 80.1799 111.022 79.5608 112.013 78.5702C113.004 77.5795 113.623 76.2049 113.623 74.6941C113.623 71.6725 111.171 69.2082 108.137 69.2082H101.636L94.4038 58.9177L94.1066 58.4966H108.236C117.164 58.5089 124.396 65.7409 124.396 74.6694Z" fill="#4F78FF"/>
<path d="M102.837 74.6196H100.93L89.6486 58.5212L91.5803 58.5336L102.837 74.6196Z" fill="#4F78FF"/>
<path d="M94.1681 74.6196H92.261L80.9797 58.5212L82.9115 58.5336L94.1681 74.6196Z" fill="#4F78FF"/>
<path d="M98.5016 74.6196H96.5946L85.3134 58.5212L87.2451 58.5336L98.5016 74.6196Z" fill="#4F78FF"/>
<path d="M182.885 90.1779L187.689 86.5621C190.1 89.868 192.889 91.5209 196.057 91.5209C197.573 91.5209 198.761 91.1938 199.621 90.5395C200.482 89.8507 200.913 88.921 200.913 87.7501C200.913 86.7859 200.62 86.0456 200.035 85.529C199.449 84.978 198.296 84.3065 196.574 83.5145L192.906 81.8616C187.397 79.4166 184.642 76.1452 184.642 72.0473C184.642 69.1546 185.709 66.8302 187.844 65.074C189.979 63.2833 192.683 62.3879 195.954 62.3879C198.502 62.3879 200.741 62.9734 202.669 64.1442C204.597 65.2806 206.113 66.8474 207.215 68.8447L202.462 72.5122C200.706 69.895 198.537 68.5864 195.954 68.5864C194.714 68.5864 193.698 68.8791 192.906 69.4646C192.114 70.05 191.718 70.8592 191.718 71.8923C191.718 72.7532 191.994 73.4592 192.545 74.0101C193.13 74.5267 194.181 75.1293 195.696 75.818L199.57 77.5226C202.497 78.8312 204.632 80.2603 205.975 81.8099C207.318 83.3251 207.989 85.2191 207.989 87.4919C207.989 90.5567 206.87 93.0361 204.632 94.9301C202.394 96.7896 199.535 97.7194 196.057 97.7194C193.199 97.7194 190.616 97.0479 188.309 95.7049C186.036 94.3619 184.229 92.5195 182.885 90.1779Z" fill="#4F78FF"/>
<path d="M235.868 97.0995L233.957 92.6573H220.01L218.099 97.0995H210.609L225.847 62.3879H228.171L243.358 97.0995H235.868ZM231.529 86.9237L226.983 75.4048L222.438 86.9237H231.529Z" fill="#4F78FF"/>
<path d="M248.013 97.0995V63.0078H260.824C264.405 63.0078 267.349 64.0237 269.656 66.0554C271.964 68.0871 273.117 70.7387 273.117 74.0101C273.117 77.2471 271.964 79.8987 269.656 81.9649C267.349 84.031 264.405 85.0641 260.824 85.0641H254.987V97.0995H248.013ZM254.987 78.9689H260.824C262.442 78.9689 263.699 78.5213 264.594 77.6259C265.524 76.6961 265.989 75.4909 265.989 74.0101C265.989 72.5638 265.507 71.393 264.543 70.4976C263.613 69.6023 262.373 69.1546 260.824 69.1546H254.987V78.9689Z" fill="#4F78FF"/>
<path d="M278.683 97.0995V63.0078H291.493C295.075 63.0078 298.019 64.0237 300.326 66.0554C302.633 68.0871 303.787 70.7387 303.787 74.0101C303.787 77.2471 302.633 79.8987 300.326 81.9649C298.019 84.031 295.075 85.0641 291.493 85.0641H285.656V97.0995H278.683ZM285.656 78.9689H291.493C293.112 78.9689 294.369 78.5213 295.264 77.6259C296.194 76.6961 296.659 75.4909 296.659 74.0101C296.659 72.5638 296.177 71.393 295.212 70.4976C294.283 69.6023 293.043 69.1546 291.493 69.1546H285.656V78.9689Z" fill="#4F78FF"/>
<path d="M309.353 97.0995V63.0078H316.326V76.0763H331.409V63.0078H338.382V97.0995H331.409V82.3781H316.326V97.0995H309.353Z" fill="#4F78FF"/>
<path d="M346.176 97.0995V63.0078H353.15V97.0995H346.176Z" fill="#4F78FF"/>
<path d="M389.728 97.0995H381.876L373.043 85.0641H367.93V97.0995H360.956V63.0078H373.767C377.348 63.0078 380.292 64.0237 382.599 66.0554C384.907 68.0871 386.06 70.7387 386.06 74.0101C386.06 76.1452 385.527 78.0736 384.459 79.7954C383.426 81.4828 381.962 82.7913 380.068 83.7211L389.728 97.0995ZM367.93 69.1546V78.9173H373.767C375.385 78.9173 376.642 78.4696 377.537 77.5743C378.467 76.6789 378.932 75.4909 378.932 74.0101C378.932 72.5638 378.45 71.393 377.486 70.4976C376.556 69.6023 375.316 69.1546 373.767 69.1546H367.93Z" fill="#4F78FF"/>
<path d="M393.997 97.0995V63.0078H416.931V69.3096H400.97V76.2313H412.696V82.1715H400.97V90.7977H417.551V97.0995H393.997Z" fill="#4F78FF"/>
</g>
<defs>
<filter id="filter0_i_5515_120938" x="51.25" y="23.4678" width="101.319" height="140.897" filterUnits="userSpaceOnUse" color-interpolation-filters="sRGB">
<feFlood flood-opacity="0" result="BackgroundImageFix"/>
<feBlend mode="normal" in="SourceGraphic" in2="BackgroundImageFix" result="shape"/>
<feColorMatrix in="SourceAlpha" type="matrix" values="0 0 0 0 0 0 0 0 0 0 0 0 0 0 0 0 0 0 127 0" result="hardAlpha"/>
<feOffset dy="26.8333"/>
<feGaussianBlur stdDeviation="13.4167"/>
<feComposite in2="hardAlpha" operator="arithmetic" k2="-1" k3="1"/>
<feColorMatrix type="matrix" values="0 0 0 0 0.309804 0 0 0 0 0.470588 0 0 0 0 1 0 0 0 1 0"/>
<feBlend mode="normal" in2="shape" result="effect1_innerShadow_5515_120938"/>
</filter>
<clipPath id="clip0_5515_120938">
<rect x="0.266846" width="472.267" height="161" rx="13.4167" fill="white"/>
</clipPath>
</defs>
</svg>
