<svg width="72" height="24" viewBox="0 0 72 24" fill="none" xmlns="http://www.w3.org/2000/svg">
<g clip-path="url(#clip0_5417_122096)">
<path d="M69.2772 0.320007H2.71719C1.83353 0.320007 1.11719 1.03635 1.11719 1.92001V22.08C1.11719 22.9637 1.83353 23.68 2.71719 23.68H69.2772C70.1609 23.68 70.8772 22.9637 70.8772 22.08V1.92001C70.8772 1.03635 70.1609 0.320007 69.2772 0.320007Z" fill="white"/>
<path d="M69.2772 0.320007H2.71719C1.83353 0.320007 1.11719 1.03635 1.11719 1.92001V22.08C1.11719 22.9637 1.83353 23.68 2.71719 23.68H69.2772C70.1609 23.68 70.8772 22.9637 70.8772 22.08V1.92001C70.8772 1.03635 70.1609 0.320007 69.2772 0.320007Z" stroke="#4F78FF" stroke-width="2"/>
<g filter="url(#filter0_i_5417_122096)">
<path d="M15.2445 3.68736C15.6812 3.43527 16.2192 3.43527 16.6558 3.68736L22.7963 7.23255C23.2329 7.48464 23.5019 7.95056 23.5019 8.45479V15.5451C23.5019 16.0494 23.2329 16.5153 22.7963 16.7673L16.6558 20.3126C16.2192 20.5646 15.6812 20.5646 15.2445 20.3126L9.1041 16.7673C8.66745 16.5153 8.39844 16.0494 8.39844 15.5451V8.45479C8.39844 7.95056 8.66745 7.48464 9.1041 7.23255L15.2445 3.68736Z" fill="#8FB8FF"/>
</g>
<path d="M15.786 4.99641C15.9108 4.92437 16.0645 4.92437 16.1892 4.99641L21.9846 8.34233C22.1094 8.41436 22.1862 8.54748 22.1862 8.69154V15.3834C22.1862 15.5274 22.1094 15.6606 21.9846 15.7326L16.1892 19.0786C16.0645 19.1506 15.9108 19.1506 15.786 19.0786L9.99068 15.7326C9.86593 15.6606 9.78906 15.5274 9.78906 15.3834V8.69154C9.78906 8.54748 9.86593 8.41436 9.99068 8.34233L15.786 4.99641Z" fill="#D5DEF9"/>
<path d="M19.299 15.168H17.2814L15.9375 13.1707L17.909 13.2094L19.299 15.168Z" fill="#4F78FF"/>
<path d="M19.3043 11.1308C19.3043 11.7954 19.0348 12.399 18.5992 12.8347C18.1635 13.2703 17.5617 13.5398 16.8953 13.5398H16.1994L15.0881 11.9523H16.8806C17.1058 11.9523 17.3107 11.86 17.4583 11.7123C17.606 11.5646 17.6983 11.3597 17.6983 11.1345C17.6983 10.6841 17.3328 10.3167 16.8806 10.3167H15.9114L14.8334 8.78274L14.7891 8.71997H16.8953C18.2263 8.72181 19.3043 9.79987 19.3043 11.1308Z" fill="#4F78FF"/>
<path d="M16.091 11.1234H15.8067L14.125 8.72363L14.413 8.72547L16.091 11.1234Z" fill="#4F78FF"/>
<path d="M14.7941 11.1234H14.5098L12.8281 8.72363L13.1161 8.72547L14.7941 11.1234Z" fill="#4F78FF"/>
<path d="M15.4425 11.1234H15.1582L13.4766 8.72363L13.7645 8.72547L15.4425 11.1234Z" fill="#4F78FF"/>
<path d="M28.0234 13.4426L28.7395 12.9036C29.0989 13.3964 29.5147 13.6428 29.9869 13.6428C30.2128 13.6428 30.3899 13.5941 30.5182 13.4965C30.6466 13.3939 30.7107 13.2553 30.7107 13.0807C30.7107 12.937 30.6671 12.8266 30.5798 12.7496C30.4926 12.6675 30.3206 12.5674 30.0639 12.4493L29.5172 12.2029C28.6959 11.8385 28.2852 11.3508 28.2852 10.7399C28.2852 10.3087 28.4444 9.96225 28.7626 9.70045C29.0809 9.43352 29.4839 9.30005 29.9715 9.30005C30.3514 9.30005 30.6851 9.38732 30.9725 9.56185C31.26 9.73125 31.4859 9.96482 31.6501 10.2625L30.9417 10.8092C30.6799 10.4191 30.3565 10.224 29.9715 10.224C29.7867 10.224 29.6353 10.2677 29.5172 10.3549C29.3992 10.4422 29.3401 10.5628 29.3401 10.7168C29.3401 10.8452 29.3812 10.9504 29.4633 11.0325C29.5506 11.1095 29.7072 11.1994 29.933 11.302L30.5105 11.5561C30.9469 11.7512 31.2651 11.9642 31.4653 12.1952C31.6655 12.4211 31.7656 12.7034 31.7656 13.0422C31.7656 13.4991 31.5988 13.8687 31.2651 14.151C30.9315 14.4282 30.5054 14.5668 29.9869 14.5668C29.5609 14.5668 29.1759 14.4667 28.8319 14.2665C28.4931 14.0663 28.2236 13.7917 28.0234 13.4426Z" fill="#4F78FF"/>
<path d="M35.9214 14.4744L35.6365 13.8122H33.5575L33.2726 14.4744H32.1561L34.4276 9.30005H34.7741L37.0379 14.4744H35.9214ZM35.2746 12.9575L34.597 11.2404L33.9194 12.9575H35.2746Z" fill="#4F78FF"/>
<path d="M37.7319 14.4744V9.39245H39.6415C40.1754 9.39245 40.6143 9.54388 40.9582 9.84675C41.3022 10.1496 41.4741 10.5449 41.4741 11.0325C41.4741 11.5151 41.3022 11.9103 40.9582 12.2183C40.6143 12.5263 40.1754 12.6803 39.6415 12.6803H38.7714V14.4744H37.7319ZM38.7714 11.7717H39.6415C39.8828 11.7717 40.0702 11.705 40.2036 11.5715C40.3422 11.4329 40.4115 11.2533 40.4115 11.0325C40.4115 10.8169 40.3397 10.6424 40.1959 10.5089C40.0573 10.3755 39.8725 10.3087 39.6415 10.3087H38.7714V11.7717Z" fill="#4F78FF"/>
<path d="M42.3038 14.4744V9.39245H44.2134C44.7473 9.39245 45.1862 9.54388 45.5301 9.84675C45.874 10.1496 46.046 10.5449 46.046 11.0325C46.046 11.5151 45.874 11.9103 45.5301 12.2183C45.1862 12.5263 44.7473 12.6803 44.2134 12.6803H43.3433V14.4744H42.3038ZM43.3433 11.7717H44.2134C44.4547 11.7717 44.642 11.705 44.7755 11.5715C44.9141 11.4329 44.9834 11.2533 44.9834 11.0325C44.9834 10.8169 44.9115 10.6424 44.7678 10.5089C44.6292 10.3755 44.4444 10.3087 44.2134 10.3087H43.3433V11.7717Z" fill="#4F78FF"/>
<path d="M46.8757 14.4744V9.39245H47.9152V11.3405H50.1636V9.39245H51.2031V14.4744H50.1636V12.2799H47.9152V14.4744H46.8757Z" fill="#4F78FF"/>
<path d="M52.3649 14.4744V9.39245H53.4044V14.4744H52.3649Z" fill="#4F78FF"/>
<path d="M58.8571 14.4744H57.6867L56.37 12.6803H55.6077V14.4744H54.5682V9.39245H56.4778C57.0116 9.39245 57.4505 9.54388 57.7945 9.84675C58.1384 10.1496 58.3104 10.5449 58.3104 11.0325C58.3104 11.3508 58.2308 11.6383 58.0717 11.8949C57.9177 12.1465 57.6995 12.3415 57.4172 12.4801L58.8571 14.4744ZM55.6077 10.3087V11.764H56.4778C56.719 11.764 56.9064 11.6973 57.0399 11.5638C57.1785 11.4304 57.2478 11.2533 57.2478 11.0325C57.2478 10.8169 57.1759 10.6424 57.0322 10.5089C56.8936 10.3755 56.7088 10.3087 56.4778 10.3087H55.6077Z" fill="#4F78FF"/>
<path d="M59.4935 14.4744V9.39245H62.9123V10.3318H60.533V11.3636H62.2809V12.2491H60.533V13.535H63.0047V14.4744H59.4935Z" fill="#4F78FF"/>
</g>
<defs>
<filter id="filter0_i_5417_122096" x="8.39844" y="3.49829" width="15.1016" height="21.0033" filterUnits="userSpaceOnUse" color-interpolation-filters="sRGB">
<feFlood flood-opacity="0" result="BackgroundImageFix"/>
<feBlend mode="normal" in="SourceGraphic" in2="BackgroundImageFix" result="shape"/>
<feColorMatrix in="SourceAlpha" type="matrix" values="0 0 0 0 0 0 0 0 0 0 0 0 0 0 0 0 0 0 127 0" result="hardAlpha"/>
<feOffset dy="4"/>
<feGaussianBlur stdDeviation="2"/>
<feComposite in2="hardAlpha" operator="arithmetic" k2="-1" k3="1"/>
<feColorMatrix type="matrix" values="0 0 0 0 0.309804 0 0 0 0 0.470588 0 0 0 0 1 0 0 0 1 0"/>
<feBlend mode="normal" in2="shape" result="effect1_innerShadow_5417_122096"/>
</filter>
<clipPath id="clip0_5417_122096">
<rect x="0.796875" width="70.4" height="24" rx="2" fill="white"/>
</clipPath>
</defs>
</svg>
