<svg width="64" height="24" viewBox="0 0 64 24" fill="none" xmlns="http://www.w3.org/2000/svg">
<g clip-path="url(#clip0_201_4063)">
<path d="M62.08 0.320068H1.92001C1.03635 0.320068 0.320007 1.03641 0.320007 1.92007V22.0801C0.320007 22.9637 1.03635 23.6801 1.92001 23.6801H62.08C62.9637 23.6801 63.68 22.9637 63.68 22.0801V1.92007C63.68 1.03641 62.9637 0.320068 62.08 0.320068Z" fill="white"/>
<g filter="url(#filter0_i_201_4063)">
<path d="M17.5344 3.68736C17.971 3.43527 18.5089 3.43527 18.9456 3.68736L25.0861 7.23255C25.5227 7.48464 25.7917 7.95056 25.7917 8.45479V15.5451C25.7917 16.0494 25.5227 16.5153 25.0861 16.7673L18.9456 20.3126C18.5089 20.5646 17.971 20.5646 17.5344 20.3126L11.3939 16.7673C10.9572 16.5153 10.6882 16.0494 10.6882 15.5451V8.45479C10.6882 7.95056 10.9572 7.48464 11.3939 7.23255L17.5344 3.68736Z" fill="#E0E9F1"/>
</g>
<path d="M18.0758 4.99641C18.2006 4.92437 18.3542 4.92437 18.479 4.99641L24.2744 8.34233C24.3992 8.41436 24.476 8.54748 24.476 8.69154V15.3834C24.476 15.5274 24.3992 15.6606 24.2744 15.7326L18.479 19.0786C18.3542 19.1506 18.2006 19.1506 18.0758 19.0786L12.2805 15.7326C12.1558 15.6606 12.0789 15.5274 12.0789 15.3834V8.69154C12.0789 8.54748 12.1558 8.41436 12.2805 8.34233L18.0758 4.99641Z" fill="#D2DCE5"/>
<path d="M21.592 15.3279H19.5744L18.2304 13.3306L20.2019 13.3693L21.592 15.3279Z" fill="#728B9F"/>
<path d="M21.592 11.2907C21.592 11.9553 21.3225 12.5589 20.8869 12.9946C20.4512 13.4302 19.8494 13.6997 19.183 13.6997H18.487L17.3758 12.1122H19.1681C19.3934 12.1122 19.5984 12.0199 19.7461 11.8722C19.8937 11.7245 19.9859 11.5196 19.9859 11.2944C19.9859 10.844 19.6205 10.4767 19.1681 10.4767H18.199L17.1211 8.94265L17.0768 8.87988H19.183C20.5139 8.88172 21.592 9.95979 21.592 11.2907Z" fill="#728B9F"/>
<path d="M18.3781 11.2835H18.0939L16.4122 8.88379L16.7002 8.88563L18.3781 11.2835Z" fill="#728B9F"/>
<path d="M17.0859 11.2835H16.8018L15.12 8.88379L15.408 8.88563L17.0859 11.2835Z" fill="#728B9F"/>
<path d="M17.732 11.2835H17.4479L15.7661 8.88379L16.0541 8.88563L17.732 11.2835Z" fill="#728B9F"/>
<path d="M30.3904 13.3709L31.1046 12.8333C31.463 13.3248 31.8777 13.5705 32.3488 13.5705C32.5741 13.5705 32.7507 13.5219 32.8787 13.4246C33.0067 13.3222 33.0707 13.184 33.0707 13.0099C33.0707 12.8665 33.0272 12.7565 32.9401 12.6797C32.8531 12.5977 32.6816 12.4979 32.4256 12.3801L31.8803 12.1344C31.0611 11.7709 30.6515 11.2845 30.6515 10.6752C30.6515 10.2451 30.8102 9.89949 31.1277 9.63837C31.4451 9.37213 31.847 9.23901 32.3334 9.23901C32.7123 9.23901 33.0451 9.32605 33.3318 9.50013C33.6185 9.66909 33.8438 9.90205 34.0077 10.199L33.3011 10.7443C33.04 10.3552 32.7174 10.1606 32.3334 10.1606C32.1491 10.1606 31.9981 10.2041 31.8803 10.2912C31.7625 10.3782 31.7037 10.4985 31.7037 10.6521C31.7037 10.7801 31.7446 10.8851 31.8265 10.967C31.9136 11.0438 32.0697 11.1334 32.295 11.2358L32.871 11.4893C33.3062 11.6838 33.6237 11.8963 33.8233 12.1267C34.023 12.352 34.1229 12.6336 34.1229 12.9715C34.1229 13.4272 33.9565 13.7958 33.6237 14.0774C33.2909 14.3539 32.8659 14.4921 32.3488 14.4921C31.9238 14.4921 31.5398 14.3923 31.1968 14.1926C30.8589 13.9929 30.5901 13.719 30.3904 13.3709ZM35.0337 14.4V9.33117H36.0705V14.4H35.0337ZM37.2312 14.4V9.33117H38.268V13.463H40.4875V14.4H37.2312ZM43.7865 9.33117H44.9539L42.696 14.4921H42.3504L40.0848 9.33117H41.2598L42.527 12.4032L43.7865 9.33117ZM45.6462 14.4V9.33117H49.0561V10.2681H46.683V11.2973H48.4264V12.1805H46.683V13.463H49.1483V14.4H45.6462ZM54.3264 14.4H53.159L51.8457 12.6105H51.0854V14.4H50.0486V9.33117H51.9533C52.4857 9.33117 52.9235 9.48221 53.2665 9.78429C53.6096 10.0864 53.7811 10.4806 53.7811 10.967C53.7811 11.2845 53.7017 11.5712 53.543 11.8272C53.3894 12.0781 53.1718 12.2726 52.8902 12.4109L54.3264 14.4ZM51.0854 10.2451V11.6966H51.9533C52.1939 11.6966 52.3808 11.6301 52.5139 11.4969C52.6521 11.3638 52.7213 11.1872 52.7213 10.967C52.7213 10.752 52.6496 10.5779 52.5062 10.4448C52.368 10.3117 52.1837 10.2451 51.9533 10.2451H51.0854Z" fill="#728B9F"/>
<path d="M62.08 0.320068H1.92001C1.03635 0.320068 0.320007 1.03641 0.320007 1.92007V22.0801C0.320007 22.9637 1.03635 23.6801 1.92001 23.6801H62.08C62.9637 23.6801 63.68 22.9637 63.68 22.0801V1.92007C63.68 1.03641 62.9637 0.320068 62.08 0.320068Z" stroke="#728B9F" stroke-width="2"/>
</g>
<defs>
<filter id="filter0_i_201_4063" x="10.6882" y="3.49829" width="15.1034" height="21.0034" filterUnits="userSpaceOnUse" color-interpolation-filters="sRGB">
<feFlood flood-opacity="0" result="BackgroundImageFix"/>
<feBlend mode="normal" in="SourceGraphic" in2="BackgroundImageFix" result="shape"/>
<feColorMatrix in="SourceAlpha" type="matrix" values="0 0 0 0 0 0 0 0 0 0 0 0 0 0 0 0 0 0 127 0" result="hardAlpha"/>
<feOffset dy="4"/>
<feGaussianBlur stdDeviation="2"/>
<feComposite in2="hardAlpha" operator="arithmetic" k2="-1" k3="1"/>
<feColorMatrix type="matrix" values="0 0 0 0 0.823529 0 0 0 0 0.862745 0 0 0 0 0.898039 0 0 0 1 0"/>
<feBlend mode="normal" in2="shape" result="effect1_innerShadow_201_4063"/>
</filter>
<clipPath id="clip0_201_4063">
<path d="M0 2C0 0.89543 0.895431 0 2 0H62C63.1046 0 64 0.895431 64 2V22C64 23.1046 63.1046 24 62 24H2C0.895431 24 0 23.1046 0 22V2Z" fill="white"/>
</clipPath>
</defs>
</svg>
