<svg width="50" height="50" viewBox="0 0 50 50" fill="none" xmlns="http://www.w3.org/2000/svg">
<path d="M47.9163 20.8335C47.9163 18.521 46.0413 16.6668 43.7497 16.6668H30.583L32.583 7.146C32.6247 6.93766 32.6455 6.7085 32.6455 6.47933C32.6455 5.62516 32.2913 4.8335 31.7288 4.271L29.5205 2.0835L15.8122 15.7918C15.0413 16.5627 14.583 17.6043 14.583 18.7502V39.5835C14.583 40.6886 15.022 41.7484 15.8034 42.5298C16.5848 43.3112 17.6446 43.7502 18.7497 43.7502H37.4997C39.2288 43.7502 40.708 42.7085 41.333 41.2085L47.6247 26.521C47.8122 26.0418 47.9163 25.5418 47.9163 25.0002V20.8335ZM2.08301 43.7502H10.4163V18.7502H2.08301V43.7502Z" fill="#00C516"/>
</svg>
