<svg width="50" height="50" viewBox="0 0 50 50" fill="none" xmlns="http://www.w3.org/2000/svg">
<path d="M47.9154 20.8335C47.9154 18.521 46.0404 16.6668 43.7487 16.6668H30.582L32.582 7.146C32.6237 6.93766 32.6445 6.7085 32.6445 6.47933C32.6445 5.62516 32.2904 4.8335 31.7279 4.271L29.5195 2.0835L15.8112 15.7918C15.0404 16.5627 14.582 17.6043 14.582 18.7502V39.5835C14.582 40.6886 15.021 41.7484 15.8024 42.5298C16.5838 43.3112 17.6436 43.7502 18.7487 43.7502H37.4987C39.2279 43.7502 40.707 42.7085 41.332 41.2085L47.6237 26.521C47.8112 26.0418 47.9154 25.5418 47.9154 25.0002V20.8335ZM2.08203 43.7502H10.4154V18.7502H2.08203V43.7502Z" fill="#22BB33"/>
</svg>
