<svg width="50" height="50" viewBox="0 0 51 50" fill="none" xmlns="http://www.w3.org/2000/svg">
<path d="M40.082 31.25H48.4154V6.25H40.082V31.25ZM31.7487 6.25H12.9987C11.2695 6.25 9.79036 7.29167 9.16536 8.79167L2.8737 23.4792C2.6862 23.9583 2.58203 24.4583 2.58203 25V29.1667C2.58203 30.2717 3.02102 31.3315 3.80242 32.1129C4.58382 32.8943 5.64363 33.3333 6.7487 33.3333H19.8945L17.9154 42.8542C17.8737 43.0625 17.8529 43.2708 17.8529 43.5C17.8529 44.375 18.207 45.1458 18.7695 45.7083L20.9779 47.9167L34.6862 34.1875C35.457 33.4375 35.9154 32.3958 35.9154 31.25V10.4167C35.9154 8.10417 34.0404 6.25 31.7487 6.25Z" fill="#CC334F"/>
</svg>
