<svg width="50" height="50" viewBox="0 0 51 50" fill="none" xmlns="http://www.w3.org/2000/svg">
<path d="M40.083 31.25H48.4163V6.25H40.083V31.25ZM31.7497 6.25H12.9997C11.2705 6.25 9.79134 7.29167 9.16634 8.79167L2.87467 23.4792C2.68717 23.9583 2.58301 24.4583 2.58301 25V29.1667C2.58301 30.2717 3.02199 31.3315 3.8034 32.1129C4.5848 32.8943 5.64461 33.3333 6.74967 33.3333H19.8955L17.9163 42.8542C17.8747 43.0625 17.8538 43.2708 17.8538 43.5C17.8538 44.375 18.208 45.1458 18.7705 45.7083L20.9788 47.9167L34.6872 34.1875C35.458 33.4375 35.9163 32.3958 35.9163 31.25V10.4167C35.9163 8.10417 34.0413 6.25 31.7497 6.25Z" fill="#FF3358"/>
</svg>




