<svg width="100" height="100" viewBox="0 0 100 100" fill="none" xmlns="http://www.w3.org/2000/svg">
<path d="M50.0026 94.7923C25.2943 94.7923 5.21094 74.709 5.21094 50.0006C5.21094 25.2923 25.2943 5.20898 50.0026 5.20898C74.7109 5.20898 94.7943 25.2923 94.7943 50.0006C94.7943 74.709 74.7109 94.7923 50.0026 94.7923ZM50.0026 11.459C28.7526 11.459 11.4609 28.7507 11.4609 50.0006C11.4609 71.2506 28.7526 88.5423 50.0026 88.5423C71.2526 88.5423 88.5443 71.2506 88.5443 50.0006C88.5443 28.7507 71.2526 11.459 50.0026 11.459Z" fill="#22BB33"/>
<path d="M44.0859 64.9173C43.2526 64.9173 42.4609 64.584 41.8776 64.0007L30.0859 52.209C28.8776 51.0007 28.8776 49.0007 30.0859 47.7923C31.2943 46.584 33.2943 46.584 34.5026 47.7923L44.0859 57.3757L65.5026 35.959C66.7109 34.7507 68.7109 34.7507 69.9193 35.959C71.1276 37.1673 71.1276 39.1673 69.9193 40.3756L46.2943 64.0007C45.7109 64.584 44.9193 64.9173 44.0859 64.9173Z" fill="#22BB33"/>
</svg>
