<svg width="70" height="70" viewBox="0 0 50 50" fill="none" xmlns="http://www.w3.org/2000/svg">
<path d="M24.9997 47.3958C14.083 47.3958 5.20801 38.5208 5.20801 27.6042C5.20801 16.6875 14.083 7.8125 24.9997 7.8125C35.9163 7.8125 44.7913 16.6875 44.7913 27.6042C44.7913 38.5208 35.9163 47.3958 24.9997 47.3958ZM24.9997 10.9375C15.8122 10.9375 8.33301 18.4167 8.33301 27.6042C8.33301 36.7917 15.8122 44.2708 24.9997 44.2708C34.1872 44.2708 41.6663 36.7917 41.6663 27.6042C41.6663 18.4167 34.1872 10.9375 24.9997 10.9375Z" fill="#FF3358"/>
<path d="M25 28.6462C24.1458 28.6462 23.4375 27.9378 23.4375 27.0837V16.667C23.4375 15.8128 24.1458 15.1045 25 15.1045C25.8542 15.1045 26.5625 15.8128 26.5625 16.667V27.0837C26.5625 27.9378 25.8542 28.6462 25 28.6462Z" fill="#FF3358"/>
<path d="M31.25 5.72949H18.75C17.8958 5.72949 17.1875 5.02116 17.1875 4.16699C17.1875 3.31283 17.8958 2.60449 18.75 2.60449H31.25C32.1042 2.60449 32.8125 3.31283 32.8125 4.16699C32.8125 5.02116 32.1042 5.72949 31.25 5.72949Z" fill="#FF3358"/>
</svg>
