<?xml version="1.0" standalone="yes"?>
<svg xmlns="http://www.w3.org/2000/svg" width="200" height="199">
<path style="fill:#ffffff; stroke:none;" d="M0 0L0 199L200 199L200 0L0 0z"/>
<path style="fill:#6fcbff; stroke:none;" d="M142 37L143 38L142 37M140 38L141 39L140 38z"/>
<path style="fill:#0e67ff; stroke:none;" d="M83 70C76.4175 73.0733 61.9674 78.2146 58.0278 84.3904C54.7808 89.4805 57 101.104 57 107C57 122.384 57.9847 137.532 70.0401 148.826C92.4922 169.861 131.458 160.938 140.779 131C144.191 120.042 143 107.327 143 96L143 38C135.363 40.2 118.637 46.9546 114.028 53.6343C111.312 57.5699 113 66.3959 113 71L113 106C113 111.782 114.008 118.67 111.312 123.996C105.441 135.593 88.7445 135.677 83.8935 123C78.4766 108.844 83 85.149 83 70z"/>
<path style="fill:#6fcbff; stroke:none;" d="M138 39L139 40L138 39z"/>
<path style="fill:#9ed3ff; stroke:none;" d="M168 39L168 85L169 85C169 71.9965 173.01 50.9389 168 39M136 40L137 41L136 40M166 40L165 42L166 40z"/>
<path style="fill:#02c9ff; stroke:none;" d="M167 40C160.367 45.7397 148.583 50.9639 144.028 58.4637C139.158 66.4828 143 86.6481 143 96L166.397 86.3009L168 75L167 40z"/>
<path style="fill:#9ed3ff; stroke:none;" d="M134 41L135 42L134 41M132 42L133 43L132 42z"/>
<path style="fill:#6fcbff; stroke:none;" d="M164 42L165 43L164 42M129 44L130 45L129 44z"/>
<path style="fill:#9ed3ff; stroke:none;" d="M161 44L162 45L161 44z"/>
<path style="fill:#6fcbff; stroke:none;" d="M127 45L128 46L127 45M160 45L161 46L160 45z"/>
<path style="fill:#9ed3ff; stroke:none;" d="M125 46L126 47L125 46M123 47L124 48L123 47z"/>
<path style="fill:#6fcbff; stroke:none;" d="M157 47L158 48L157 47z"/>
<path style="fill:#9ed3ff; stroke:none;" d="M121 48L122 49L121 48z"/>
<path style="fill:#6fcbff; stroke:none;" d="M156 48L157 49L156 48z"/>
<path style="fill:#9ed3ff; stroke:none;" d="M154 49L155 50L154 49z"/>
<path style="fill:#6fcbff; stroke:none;" d="M118 50L119 51L118 50z"/>
<path style="fill:#9ed3ff; stroke:none;" d="M153 50L154 51L153 50z"/>
<path style="fill:#6fcbff; stroke:none;" d="M116 51L117 52L116 51M152 51L153 52L152 51z"/>
<path style="fill:#9ed3ff; stroke:none;" d="M114 52L115 53L114 52M150 52L151 53L150 52M149 53L150 54L149 53M112 54L112 81L113 81L112 54z"/>
<path style="fill:#6fcbff; stroke:none;" d="M148 54L149 55L148 54z"/>
<path style="fill:#9ed3ff; stroke:none;" d="M146 55L147 56L146 55z"/>
<path style="fill:#6fcbff; stroke:none;" d="M145 56L146 57L145 56M142 57L143 58L142 57M144 57L145 58L144 57z"/>
<path style="fill:#9ed3ff; stroke:none;" d="M81 70L82 71L81 70z"/>
<path style="fill:#6fcbff; stroke:none;" d="M78 72L79 73L78 72M76 73L77 74L76 73M74 74L75 75L74 74z"/>
<path style="fill:#9ed3ff; stroke:none;" d="M72 75L73 76L72 75M70 76L71 77L70 76z"/>
<path style="fill:#6fcbff; stroke:none;" d="M67 78L68 79L67 78M65 79L66 80L65 79M63 80L64 81L63 80z"/>
<path style="fill:#9ed3ff; stroke:none;" d="M61 81L62 82L61 81z"/>
<path style="fill:#02c9ff; stroke:none;" d="M112 81C104.492 87.4036 87.3822 94.9469 83.6034 104.171C81.7906 108.595 83 115.275 83 120L113 109L112 81z"/>
<path style="fill:#9ed3ff; stroke:none;" d="M59 82L60 83L59 82M110 82L111 83L110 82z"/>
<path style="fill:#6fcbff; stroke:none;" d="M109 83L110 84L109 83z"/>
<path style="fill:#9ed3ff; stroke:none;" d="M106 85L107 86L106 85z"/>
<path style="fill:#6fcbff; stroke:none;" d="M168 85L169 86L168 85M167 86L168 87L167 86z"/>
<path style="fill:#9ed3ff; stroke:none;" d="M165 87L166 88L165 87M102 88L103 89L102 88z"/>
<path style="fill:#6fcbff; stroke:none;" d="M162 88L163 89L162 88z"/>
<path style="fill:#9ed3ff; stroke:none;" d="M163 88L164 89L163 88M160 89L161 90L160 89M99 90L100 91L99 90z"/>
<path style="fill:#6fcbff; stroke:none;" d="M157 90L158 91L157 90z"/>
<path style="fill:#9ed3ff; stroke:none;" d="M98 91L99 92L98 91z"/>
<path style="fill:#6fcbff; stroke:none;" d="M154.667 91.3333L155.333 91.6667L154.667 91.3333M97 92L98 93L97 92M152 92L153 93L152 92z"/>
<path style="fill:#9ed3ff; stroke:none;" d="M150 93L151 94L150 93M94 94L95 95L94 94z"/>
<path style="fill:#6fcbff; stroke:none;" d="M147 94L148 95L147 94z"/>
<path style="fill:#9ed3ff; stroke:none;" d="M148 94L149 95L148 94z"/>
<path style="fill:#6fcbff; stroke:none;" d="M93 95L94 96L93 95z"/>
<path style="fill:#9ed3ff; stroke:none;" d="M145 95L146 96L145 95z"/>
<path style="fill:#6fcbff; stroke:none;" d="M90 97L91 98L90 97z"/>
<path style="fill:#9ed3ff; stroke:none;" d="M87 99L88 100L87 99M86 100L87 101L86 100z"/>
<path style="fill:#6fcbff; stroke:none;" d="M85 101L86 102L85 101M110 109L111 110L110 109z"/>
<path style="fill:#9ed3ff; stroke:none;" d="M111 109L112 121L113 121L111 109z"/>
<path style="fill:#ffffff; stroke:none;" d="M112 109L113 110L112 109z"/>
<path style="fill:#9ed3ff; stroke:none;" d="M108 110L109 111L108 110z"/>
<path style="fill:#ffffff; stroke:none;" d="M84 120C85.1842 131.486 99.1327 136.851 107.891 128.772C113.213 123.862 112 116.567 112 110L84 120z"/>
<path style="fill:#6fcbff; stroke:none;" d="M105 111L106 112L105 111M103 112L104 113L103 112M100 113L101 114L100 113z"/>
<path style="fill:#9ed3ff; stroke:none;" d="M101 113L102 114L101 113M98 114L99 115L98 114z"/>
<path style="fill:#6fcbff; stroke:none;" d="M92 116L93 117L92 116z"/>
<path style="fill:#9ed3ff; stroke:none;" d="M93 116L94 117L93 116z"/>
<path style="fill:#6fcbff; stroke:none;" d="M90 117L91 118L90 117M88 118L89 119L88 118M85 119L86 120L85 119z"/>
<path style="fill:#9ed3ff; stroke:none;" d="M86 119L87 120L86 119z"/>
<path style="fill:#6fcbff; stroke:none;" d="M142 119L142 123L143 123L142 119M83 120L84 121L83 120M57 121L58 122L57 121z"/>
<path style="fill:#9ed3ff; stroke:none;" d="M83 121L84 122L83 121z"/>
<path style="fill:#6fcbff; stroke:none;" d="M112 121L113 122L112 121M83 122L84 123L83 122z"/>
<path style="fill:#9ed3ff; stroke:none;" d="M55 123L56 124L55 123z"/>
<path style="fill:#02c9ff; stroke:none;" d="M56 123L33 140L33 141L59 131L56 123z"/>
<path style="fill:#9ed3ff; stroke:none;" d="M142 123L143 124L142 123z"/>
<path style="fill:#6fcbff; stroke:none;" d="M54 124L55 125L54 124z"/>
<path style="fill:#9ed3ff; stroke:none;" d="M84 124L85 125L84 124z"/>
<path style="fill:#6fcbff; stroke:none;" d="M111 124L112 125L111 124M84 125L85 126L84 125M51 126L52 127L51 126z"/>
<path style="fill:#9ed3ff; stroke:none;" d="M85 126L86 127L85 126z"/>
<path style="fill:#6fcbff; stroke:none;" d="M50 127L51 128L50 127M109 127L110 128L109 127z"/>
<path style="fill:#9ed3ff; stroke:none;" d="M48 128L49 129L48 128M108 128L109 129L108 128M141.333 128.667L141.667 129.333L141.333 128.667z"/>
<path style="fill:#6fcbff; stroke:none;" d="M47 129L48 130L47 129M107 129L108 130L107 129M46 130L47 131L46 130M89 130L90 131L89 130z"/>
<path style="fill:#9ed3ff; stroke:none;" d="M56 131L57 132L56 131M91 131L92 132L91 131M104 131L105 132L104 131M43 132L44 133L43 132z"/>
<path style="fill:#6fcbff; stroke:none;" d="M53 132L54 133L53 132z"/>
<path style="fill:#9ed3ff; stroke:none;" d="M54 132L55 133L54 132z"/>
<path style="fill:#6fcbff; stroke:none;" d="M59 132L60 133L59 132M93 132L94 133L93 132z"/>
<path style="fill:#9ed3ff; stroke:none;" d="M94.6667 132.333L95.3333 132.667L94.6667 132.333M99.6667 132.333L100.333 132.667L99.6667 132.333z"/>
<path style="fill:#6fcbff; stroke:none;" d="M101.667 132.333L102.333 132.667L101.667 132.333z"/>
<path style="fill:#9ed3ff; stroke:none;" d="M140 132L141 133L140 132z"/>
<path style="fill:#6fcbff; stroke:none;" d="M42 133L43 134L42 133z"/>
<path style="fill:#9ed3ff; stroke:none;" d="M51 133L52 134L51 133z"/>
<path style="fill:#6fcbff; stroke:none;" d="M48 134L49 135L48 134z"/>
<path style="fill:#9ed3ff; stroke:none;" d="M49 134L50 135L49 134z"/>
<path style="fill:#6fcbff; stroke:none;" d="M60 134L61 135L60 134z"/>
<path style="fill:#9ed3ff; stroke:none;" d="M139 134L140 135L139 134M39 135L40 136L39 135M46 135L47 136L46 135z"/>
<path style="fill:#6fcbff; stroke:none;" d="M43 136L44 137L43 136M61 136L62 137L61 136M138 136L139 137L138 136M41 137L42 138L41 137z"/>
<path style="fill:#9ed3ff; stroke:none;" d="M61 137L62 138L61 137M138 137L139 138L138 137z"/>
<path style="fill:#6fcbff; stroke:none;" d="M35 138L36 139L35 138M38 138L39 139L38 138z"/>
<path style="fill:#9ed3ff; stroke:none;" d="M39 138L40 139L39 138z"/>
<path style="fill:#6fcbff; stroke:none;" d="M137 138L138 139L137 138z"/>
<path style="fill:#9ed3ff; stroke:none;" d="M36 139L37 140L36 139M62 139L63 140L62 139M34 140L35 141L34 140z"/>
<path style="fill:#6fcbff; stroke:none;" d="M63 140L64 141L63 140z"/>
<path style="fill:#9ed3ff; stroke:none;" d="M136 140L137 141L136 140M64 142L65 143L64 142M135 142L136 143L135 142z"/>
<path style="fill:#6fcbff; stroke:none;" d="M65 143L66 144L65 143M134 143L135 144L134 143M133 144L134 145L133 144M132 145L133 146L132 145z"/>
<path style="fill:#9ed3ff; stroke:none;" d="M68 147L69 148L68 147M131 147L132 148L131 147M71 150L72 151L71 150z"/>
<path style="fill:#6fcbff; stroke:none;" d="M73 151L74 152L73 151M126 151L127 152L126 151z"/>
<path style="fill:#9ed3ff; stroke:none;" d="M74 152L75 153L74 152M125 152L126 153L125 152M75 153L76 154L75 153M77 154L78 155L77 154M122 154L123 155L122 154z"/>
<path style="fill:#6fcbff; stroke:none;" d="M79 155L80 156L79 155M120 155L121 156L120 155M81 156L82 157L81 156M118 156L119 157L118 156z"/>
<path style="fill:#9ed3ff; stroke:none;" d="M83 157L84 158L83 157M116 157L117 158L116 157z"/>
<path style="fill:#6fcbff; stroke:none;" d="M86 158L87 159L86 158M113 158L114 159L113 158z"/>
<path style="fill:#9ed3ff; stroke:none;" d="M88 159L89 160L88 159z"/>
<path style="fill:#6fcbff; stroke:none;" d="M89 159L90 160L89 159M110 159L111 160L110 159z"/>
<path style="fill:#9ed3ff; stroke:none;" d="M111 159L112 160L111 159M92 160L92 161L96 161L92 160z"/>
<path style="fill:#6fcbff; stroke:none;" d="M96.6667 160.333L97.3333 160.667L96.6667 160.333M102.667 160.333L103.333 160.667L102.667 160.333z"/>
<path style="fill:#9ed3ff; stroke:none;" d="M104 160L104 161L108 161L104 160z"/>
</svg>
