<svg width="24" height="24" viewBox="0 0 24 24" fill="none" xmlns="http://www.w3.org/2000/svg">
<path d="M24 12C24 18.6276 18.6276 24 12 24C5.37264 24 0 18.6276 0 12C0 5.37252 5.37264 0 12 0C18.6276 0 24 5.37252 24 12Z" fill="#1BA27A"/>
<path d="M17.6284 6.05112H6.26562V8.79432H10.5754V12.8263H13.3186V8.79432H17.6284V6.05112Z" fill="white"/>
<path d="M11.9753 13.2558C8.41008 13.2558 5.51964 12.6916 5.51964 11.9955C5.51964 11.2995 8.40996 10.7351 11.9753 10.7351C15.5405 10.7351 18.4308 11.2995 18.4308 11.9955C18.4308 12.6916 15.5405 13.2558 11.9753 13.2558ZM19.2239 12.2056C19.2239 11.308 15.9786 10.5804 11.9753 10.5804C7.97208 10.5804 4.72656 11.308 4.72656 12.2056C4.72656 12.996 7.24308 13.6546 10.5778 13.8005V19.5886H13.3207V13.8028C16.6811 13.6614 19.2239 13.0001 19.2239 12.2056Z" fill="white"/>
</svg>
