<svg width="16" height="16" viewBox="0 0 16 16" fill="none" xmlns="http://www.w3.org/2000/svg">
<path d="M8 9.16699C7.72667 9.16699 7.5 8.94033 7.5 8.66699V5.16699C7.5 4.89366 7.72667 4.66699 8 4.66699C8.27333 4.66699 8.5 4.89366 8.5 5.16699V8.66699C8.5 8.94033 8.27333 9.16699 8 9.16699Z" fill="#FFCC24"/>
<path d="M7.99992 11.4998C7.81992 11.4998 7.65324 11.4332 7.52657 11.3065C7.46657 11.2398 7.41992 11.1665 7.37992 11.0865C7.34659 11.0065 7.33325 10.9198 7.33325 10.8332C7.33325 10.6598 7.40657 10.4865 7.52657 10.3598C7.77324 10.1131 8.2266 10.1131 8.47327 10.3598C8.59327 10.4865 8.66659 10.6598 8.66659 10.8332C8.66659 10.9198 8.64657 11.0065 8.61324 11.0865C8.57991 11.1665 8.53327 11.2398 8.47327 11.3065C8.3466 11.4332 8.17992 11.4998 7.99992 11.4998Z" fill="#FFCC24"/>
<path d="M8.0002 15.1667C7.55354 15.1667 7.10019 15.0534 6.70019 14.8201L2.74019 12.5334C1.94019 12.0667 1.44019 11.2067 1.44019 10.2801V5.72008C1.44019 4.79341 1.94019 3.93341 2.74019 3.46674L6.70019 1.18008C7.5002 0.713411 8.49354 0.713411 9.30021 1.18008L13.2602 3.46674C14.0602 3.93341 14.5602 4.79341 14.5602 5.72008V10.2801C14.5602 11.2067 14.0602 12.0667 13.2602 12.5334L9.30021 14.8201C8.90021 15.0534 8.44687 15.1667 8.0002 15.1667ZM8.0002 1.8334C7.72687 1.8334 7.44686 1.90674 7.20019 2.04674L3.24019 4.3334C2.74686 4.62006 2.44019 5.14674 2.44019 5.72008V10.2801C2.44019 10.8467 2.74686 11.3801 3.24019 11.6667L7.20019 13.9534C7.69353 14.2401 8.30687 14.2401 8.79354 13.9534L12.7535 11.6667C13.2469 11.3801 13.5535 10.8534 13.5535 10.2801V5.72008C13.5535 5.15341 13.2469 4.62006 12.7535 4.3334L8.79354 2.04674C8.55354 1.90674 8.27354 1.8334 8.0002 1.8334Z" fill="#FFCC24"/>
</svg>
