<svg width="100" height="100" viewBox="0 0 100 100" fill="none" xmlns="http://www.w3.org/2000/svg">
<path d="M50 57.291C48.2917 57.291 46.875 55.8744 46.875 54.166V32.291C46.875 30.5827 48.2917 29.166 50 29.166C51.7083 29.166 53.125 30.5827 53.125 32.291V54.166C53.125 55.8744 51.7083 57.291 50 57.291Z" fill="#319EF6"/>
<path d="M50.0026 71.8751C48.8776 71.8751 47.8358 71.4585 47.0442 70.6668C46.6692 70.2502 46.3776 69.7918 46.1276 69.2918C45.9193 68.7918 45.8359 68.2501 45.8359 67.7084C45.8359 66.6251 46.2942 65.5417 47.0442 64.75C48.5858 63.2083 51.4194 63.2083 52.961 64.75C53.711 65.5417 54.1693 66.6251 54.1693 67.7084C54.1693 68.2501 54.0442 68.7918 53.8359 69.2918C53.6275 69.7918 53.336 70.2502 52.961 70.6668C52.1694 71.4585 51.1276 71.8751 50.0026 71.8751Z" fill="#319EF6"/>
<path d="M50.0001 94.7916C47.2084 94.7916 44.3751 94.0832 41.8751 92.6248L17.1251 78.3332C12.1251 75.4165 9 70.0415 9 64.2499V35.75C9 29.9583 12.1251 24.5833 17.1251 21.6666L41.8751 7.375C46.8751 4.45833 53.0835 4.45833 58.1252 7.375L82.8752 21.6666C87.8752 24.5833 91.0002 29.9583 91.0002 35.75V64.2499C91.0002 70.0415 87.8752 75.4165 82.8752 78.3332L58.1252 92.6248C55.6252 94.0832 52.7918 94.7916 50.0001 94.7916ZM50.0001 11.4583C48.2918 11.4583 46.5417 11.9166 45.0001 12.7916L20.2501 27.0833C17.1667 28.8749 15.25 32.1667 15.25 35.75V64.2499C15.25 67.7915 17.1667 71.1249 20.2501 72.9166L45.0001 87.2082C48.0834 88.9999 51.9168 88.9999 54.9585 87.2082L79.7085 72.9166C82.7918 71.1249 84.7085 67.8332 84.7085 64.2499V35.75C84.7085 32.2083 82.7918 28.8749 79.7085 27.0833L54.9585 12.7916C53.4585 11.9166 51.7084 11.4583 50.0001 11.4583Z" fill="#319EF6"/>
</svg>
