<svg width="50" height="50" viewBox="0 0 50 50" fill="none" xmlns="http://www.w3.org/2000/svg">
<path d="M25 28.646C24.1458 28.646 23.4375 27.9377 23.4375 27.0835V16.146C23.4375 15.2918 24.1458 14.5835 25 14.5835C25.8542 14.5835 26.5625 15.2918 26.5625 16.146V27.0835C26.5625 27.9377 25.8542 28.646 25 28.646Z" fill="#D9AA0F"/>
<path d="M25.0013 35.9375C24.4388 35.9375 23.9179 35.7293 23.5221 35.3334C23.3346 35.1251 23.1888 34.8959 23.0638 34.6459C22.9597 34.3959 22.918 34.125 22.918 33.8542C22.918 33.3125 23.1471 32.7708 23.5221 32.375C24.2929 31.6042 25.7097 31.6042 26.4805 32.375C26.8555 32.7708 27.0846 33.3125 27.0846 33.8542C27.0846 34.125 27.0221 34.3959 26.9179 34.6459C26.8138 34.8959 26.668 35.1251 26.4805 35.3334C26.0847 35.7293 25.5638 35.9375 25.0013 35.9375Z" fill="#D9AA0F"/>
<path d="M25.0001 47.3958C23.6042 47.3958 22.1875 47.0416 20.9375 46.3124L8.56253 39.1666C6.06253 37.7083 4.5 35.0208 4.5 32.1249V17.875C4.5 14.9792 6.06253 12.2917 8.56253 10.8333L20.9375 3.6875C23.4375 2.22917 26.5417 2.22917 29.0626 3.6875L41.4376 10.8333C43.9376 12.2917 45.5001 14.9792 45.5001 17.875V32.1249C45.5001 35.0208 43.9376 37.7083 41.4376 39.1666L29.0626 46.3124C27.8126 47.0416 26.3959 47.3958 25.0001 47.3958ZM25.0001 5.72913C24.1459 5.72913 23.2709 5.95831 22.5 6.39581L10.125 13.5416C8.58336 14.4375 7.625 16.0833 7.625 17.875V32.1249C7.625 33.8958 8.58336 35.5625 10.125 36.4583L22.5 43.6041C24.0417 44.4999 25.9584 44.4999 27.4792 43.6041L39.8542 36.4583C41.3959 35.5625 42.3543 33.9166 42.3543 32.1249V17.875C42.3543 16.1042 41.3959 14.4375 39.8542 13.5416L27.4792 6.39581C26.7292 5.95831 25.8542 5.72913 25.0001 5.72913Z" fill="#D9AA0F"/>
</svg>
